<?xml version="1.0" encoding="UTF-8" standalone="no"?>
<!-- Created with Inkscape (http://www.inkscape.org/) -->

<svg
   version="1.1"
   id="svg1"
   width="836"
   height="2068"
   viewBox="0 0 836 2068"
   sodipodi:docname="posterior.svg"
   inkscape:version="1.4.3 (0d15f75042, 2025-12-25)"
   xmlns:inkscape="http://www.inkscape.org/namespaces/inkscape"
   xmlns:sodipodi="http://sodipodi.sourceforge.net/DTD/sodipodi-0.dtd"
   xmlns="http://www.w3.org/2000/svg"
   xmlns:svg="http://www.w3.org/2000/svg">
  <defs
     id="defs1" />
  <sodipodi:namedview
     id="namedview1"
     pagecolor="#ffffff"
     bordercolor="#000000"
     borderopacity="0.25"
     inkscape:showpageshadow="2"
     inkscape:pageopacity="0.0"
     inkscape:pagecheckerboard="0"
     inkscape:deskcolor="#d1d1d1"
     inkscape:zoom="0.2393617"
     inkscape:cx="417.77778"
     inkscape:cy="1034"
     inkscape:window-width="1366"
     inkscape:window-height="706"
     inkscape:window-x="0"
     inkscape:window-y="0"
     inkscape:window-maximized="1"
     inkscape:current-layer="g1">
    <inkscape:page
       x="0"
       y="0"
       width="836"
       height="2068"
       id="page2"
       margin="0"
       bleed="0" />
  </sodipodi:namedview>
  <g
     inkscape:groupmode="layer"
     inkscape:label="Image"
     id="g1">
    <path
       style="fill:#000000"
       d="m 461.47794,1977.6055 c -8.3108,-2.6553 -16.2237,-19.3886 -17.5108,-37.0297 -0.2144,-2.9382 -1.7443,-7.6127 -3.9274,-12 -1.9669,-3.9528 -4.0819,-8.9869 -4.6999,-11.1869 -0.618,-2.2 -1.6096,-4.9962 -2.2036,-6.2138 -1.2158,-2.4924 -0.2951,-22.3038 1.1668,-25.1077 2.6582,-5.0982 4.0501,-12.0129 4.6656,-23.1785 1.4478,-26.2637 0.8944,-36.9396 -2.2182,-42.7938 -1.3172,-2.4772 -2.3949,-5.0775 -2.3949,-5.7784 0,-0.7009 -1.1629,-2.6563 -2.5841,-4.3455 -2.4598,-2.9232 -5.0891,-8.7971 -7.8703,-17.5823 -1.8406,-5.8138 -3.8991,-5.1623 -4.7389,1.5 -1.0816,8.5811 -2.3279,12.4984 -5.4637,17.1733 -7.1555,10.6677 -6.8972,34.6116 0.7262,67.3267 4.4482,19.0885 5.1333,26.0654 3.4446,35.0775 -0.8434,4.5009 -3.0514,11.4997 -4.9066,15.553 -2.7498,6.0076 -3.4746,9.0146 -3.922,16.2715 -0.486,7.881 -1.0264,9.8481 -4.7124,17.152 -6.1992,12.2838 -8.4386,14.5922 -14.7437,15.198 -6.0172,0.5782 -9.2854,-1.0265 -11.734,-5.7614 -1.1175,-2.1611 -2.2699,-2.9906 -4.1547,-2.9906 -4.8664,0 -10.4227,-2.3069 -12.4652,-5.1753 -1.4371,-2.0182 -2.8626,-2.8247 -4.9928,-2.8247 -2.0543,0 -4.1022,-1.0884 -6.5854,-3.5 -2.3519,-2.2842 -4.5626,-3.5 -6.3639,-3.5 -2.0814,0 -3.5133,-1.0242 -5.8232,-4.1652 -1.6847,-2.2908 -4.7611,-5.1073 -6.8365,-6.2588 -7.0972,-3.9378 -8.329,-9.0599 -7.3529,-30.576 0.1871,-4.125 -0.1214,-8.643 -0.6856,-10.04 -1.871,-4.6333 -0.3733,-15.8137 4.3485,-32.46 0.936,-3.3 2.0541,-12.075 2.4847,-19.5 0.9062,-15.6307 1.7237,-22.6899 2.9527,-25.5 0.4812,-1.1 1.0585,-4.025 1.2831,-6.5 0.2246,-2.475 1.4281,-7.875 2.6745,-12 2.8495,-9.4304 2.8681,-12.0024 0.1151,-15.8687 -2.1246,-2.9837 -2.1961,-3.8543 -1.9597,-23.864 0.2316,-19.616 -0.1671,-24.5144 -3.0744,-37.7673 -0.6033,-2.75 -1.285,-6.125 -1.5149,-7.5 -1.0683,-6.3893 -3.8002,-18.7964 -4.734,-21.5 -2.3769,-6.8812 -4.5312,-15.6154 -5.3032,-21.5 -0.1803,-1.375 -0.8003,-4.3 -1.3777,-6.5 -0.5774,-2.2 -2.1591,-8.275 -3.5149,-13.5 -1.35584,-5.225 -3.17957,-11.525 -4.05276,-14 -5.62244,-15.9364 -7.87519,-23.0898 -8.63191,-27.4098 -0.47302,-2.7004 -1.77578,-6.858 -2.89502,-9.2391 -1.11925,-2.3811 -2.035,-4.7328 -2.035,-5.2259 0,-0.4931 -0.67223,-2.1855 -1.49384,-3.7609 -0.82161,-1.5754 -1.49661,-3.5952 -1.5,-4.4886 -0.003,-0.8933 -0.71293,-3.5933 -1.57677,-6 -1.57611,-4.391 -5.64026,-19.4626 -7.51688,-27.8757 -0.55207,-2.475 -1.40871,-7.875 -1.90365,-12 -0.49494,-4.125 -1.33549,-10.65 -1.86789,-14.5 -0.90685,-6.5578 -0.70779,-40.9045 0.30137,-52 0.25012,-2.75 1.1356,-8.825 1.96775,-13.5 3.03323,-17.0408 3.52439,-20.297 3.15233,-20.899 -0.20855,-0.3374 0.2315,-5.3094 0.97789,-11.0489 2.04313,-15.7108 1.8945,-55.9215 -0.21934,-59.3418 -0.33204,-0.5372 -0.50734,-3.9543 -0.38955,-7.5935 0.11778,-3.6393 0.31664,-9.7668 0.44192,-13.6168 0.12527,-3.85 -0.0932,-8.575 -0.48553,-10.5 -0.39231,-1.925 -0.92568,-5.3 -1.18528,-7.5 -0.2596,-2.2 -0.74638,-4.675 -1.08174,-5.5 -0.62484,-1.5372 -2.33578,-11.7448 -3.01704,-18 -1.34212,-12.3232 -1.92944,-15.9661 -3.18968,-19.7849 -0.77774,-2.3568 -1.41407,-5.6411 -1.41407,-7.2985 0,-3.8165 -3.44802,-22.3673 -6.59004,-35.4551 -1.32548,-5.5212 -2.40996,-12.3571 -2.40996,-15.191 0,-2.8338 -0.36771,-5.3797 -0.81713,-5.6575 -0.44942,-0.2777 -1.4096,-5.5918 -2.13373,-11.809 -0.72414,-6.2172 -1.66449,-11.9836 -2.08968,-12.8141 -0.4252,-0.8306 -1.02836,-7.0259 -1.34037,-13.7674 -0.312,-6.7414 -0.98269,-13.0369 -1.49041,-13.9898 -0.50773,-0.953 -1.23113,-8.2577 -1.60756,-16.2327 -0.37644,-7.975 -0.90473,-16.075 -1.17399,-18 -0.26926,-1.925 -1.12644,-9.575 -1.90485,-17 -0.77841,-7.425 -1.71244,-16.2 -2.07563,-19.5 -0.36319,-3.3 -0.60907,-6.9 -0.5464,-8 0.33698,-5.9147 -0.1008,-28.3187 -0.72299,-37 -0.39418,-5.5 -0.31482,-16.075 0.17636,-23.5 0.49118,-7.425 1.00748,-15.3 1.14733,-17.5 0.13986,-2.2 0.57561,-5.575 0.96835,-7.5 0.39274,-1.925 0.9063,-5.525 1.14125,-8 0.74717,-7.87106 2.53234,-18.33421 4.02444,-23.5879 0.79475,-2.79834 1.44501,-6.05829 1.44501,-7.24434 0,-1.18604 1.97018,-8.14363 4.37818,-15.4613 2.40799,-7.31767 4.71025,-15.30771 5.11612,-17.75566 0.40588,-2.44795 1.14304,-5.22244 1.63814,-6.16554 0.93162,-1.77462 2.03436,-8.78129 1.93351,-12.28527 -0.0317,-1.1 0.65822,-3.92677 1.53306,-6.28171 0.87485,-2.35495 1.35156,-4.90473 1.05936,-5.66619 -0.2922,-0.76145 -0.0449,-4.45968 0.54963,-8.21828 0.5945,-3.7586 1.01613,-8.18382 0.93696,-9.83382 -0.17446,-3.63586 2.4103,-14.7623 4.48077,-19.28808 1.12892,-2.46767 1.26081,-4.08948 0.52861,-6.5 -1.55648,-5.12416 -2.10416,-17.01027 -1.10047,-23.88301 1.94276,-13.30288 3.56017,-28.65464 4.47384,-42.46366 0.63374,-9.57818 -1.39883,-27.01851 -4.06335,-34.86525 -0.74706,-2.2 -1.84629,-6.925 -2.44274,-10.5 -0.59645,-3.575 -1.52106,-8.525 -2.05468,-11 -2.92955,-13.58759 -4.8427,-25.16018 -4.36515,-26.40466 0.2986,-0.77816 -0.10247,-2.69294 -0.89128,-4.25508 -1.52333,-3.01676 -2.58541,-10.31656 -3.19509,-21.96026 -0.58553,-11.18239 -2.43669,-22.72984 -3.87425,-24.1674 -2.11479,-2.11479 -3.65243,0.72376 -5.70323,10.52841 -2.49756,11.94051 -7.62976,35.34053 -9.48777,43.25899 -0.83884,3.575 -1.69577,7.85 -1.90428,9.5 -0.20852,1.65 -0.88315,5.925 -1.4992,9.5 -2.15087,12.48186 -2.93914,21.59118 -2.94219,34 -0.003,13.54915 -1.42917,20.83848 -5.07869,25.96376 -1.19989,1.68508 -2.57487,5.64508 -3.05553,8.80001 -3.60062,23.63359 -7.26523,38.80481 -15.03318,62.23623 -4.02845,12.15151 -5.80847,17.08259 -7.40009,20.5 -0.76847,1.65 -2.63729,6.15 -4.15293,10 -1.51564,3.85 -3.06004,7.45 -3.43201,8 -0.37196,0.55 -0.99326,2.32255 -1.38067,3.93901 -0.38741,1.61645 -1.48082,4.09145 -2.42981,5.5 -0.94899,1.40854 -2.56028,4.36099 -3.58065,6.56099 -1.02037,2.2 -2.32317,4.9 -2.8951,6 -5.80646,11.16746 -13.95906,31.65148 -15.12393,38 -0.20183,1.1 -1.38663,4.25 -2.63289,7 -1.24626,2.75 -2.59134,6.8 -2.98909,9 -0.39774,2.2 -1.45002,7.27008 -2.3384,11.26684 -0.88838,3.99677 -1.80285,9.52467 -2.03216,12.28437 -0.56095,6.7507 -2.25517,11.6367 -5.72448,16.5088 -2.80895,3.9447 -2.88708,4.3848 -2.75183,15.5 0.13207,10.8544 -0.85572,27.6477 -1.71315,29.125 -0.21866,0.3767 -1.28034,5.3267 -2.3593,11 -1.07896,5.6732 -2.40983,12.4682 -2.95749,15.0999 -0.54766,2.6317 -1.45455,8.0317 -2.0153,12 -1.00254,7.0946 -1.30351,8.7043 -4.43419,23.7151 -3.0996,14.8618 -3.39517,16.553 -3.51599,20.1188 -0.0674,1.9903 -0.81352,6.0403 -1.65796,9 -0.84444,2.9596 -2.35946,8.9812 -3.36672,13.3812 -3.47442,15.1773 -3.11729,14.6177 -10.13541,15.8823 -2.74443,0.4945 -3.93323,0.2328 -5.08202,-1.1184 -1.64358,-1.9333 -4.1214,-13.9923 -3.18604,-15.5058 0.60603,-0.9806 1.52305,-8.7501 1.73083,-14.6647 0.0658,-1.8737 -0.39167,-3.5816 -1.01665,-3.7955 -1.37422,-0.4702 -3.35019,4.8206 -3.39911,9.1013 -0.0195,1.7055 -0.67854,4.2258 -1.46456,5.6008 -0.78602,1.375 -1.44508,4.3453 -1.46456,6.6008 -0.0446,5.1569 -1.68146,9.9893 -4.77076,14.0842 -1.32158,1.7517 -2.7402,4.4517 -3.1525,6 -0.97486,3.6608 -6.18297,7.2153 -9.611596,6.5599 -2.57006,-0.4913 -7.065,-5.3672 -7.6007,-8.2449 -0.15357,-0.825 0.25944,-3.9001 0.91781,-6.8336 1.26495,-5.6361 0.97097,-7.1664 -1.37671,-7.1664 -1.60677,0 -1.78167,0.7353 -1.54614,6.5 0.12549,3.0716 -0.83289,5.7336 -4.12916,11.4692 -6.20458,10.7961 -10.57205,12.4304 -17.54331,6.5645 -2.73013,-2.2973 -2.91636,-2.9003 -2.70766,-8.7676 0.12327,-3.4653 0.59089,-7.8678 1.03916,-9.7833 0.44828,-1.9155 0.70675,-4.2526 0.57438,-5.1935 -0.13236,-0.9409 0.2838,-2.6907 0.92481,-3.8884 0.641,-1.1978 1.39122,-4.7029 1.66715,-7.7893 0.27593,-3.0864 0.88071,-6.018 1.34394,-6.5148 0.46323,-0.4968 0.37749,-1.7716 -0.19054,-2.833 -0.98339,-1.8374 -1.12461,-1.8466 -2.95319,-0.1918 -1.05623,0.9559 -1.92042,2.9322 -1.92042,4.3919 0,1.4596 -0.66069,3.5273 -1.4682,4.595 -0.8075,1.0676 -1.48662,3.2911 -1.50914,4.9411 -0.0225,1.65 -1.14776,5.25 -2.50053,8 -1.35277,2.75 -2.47366,5.9341 -2.49086,7.0757 -0.0831,5.517 -9.73802,8.5295 -14.8148,4.6225 -2.00126,-1.5402 -2.29369,-2.6808 -2.36573,-9.2278 -0.10859,-9.8699 0.68229,-16.5385 2.57298,-21.6951 0.85196,-2.3236 1.98376,-8.0507 2.5151,-12.7269 0.53135,-4.6762 1.53267,-9.5251 2.22516,-10.7753 0.69249,-1.2502 1.33971,-3.5798 1.43827,-5.177 0.19716,-3.1949 2.08116,-10.112 3.49522,-12.8325 0.49639,-0.9551 0.90253,-4.6537 0.90253,-8.2191 0,-4.2059 0.87802,-9.1724 2.5,-14.1412 2.49954,-7.6572 3.03461,-11.8466 1.89301,-14.8215 -0.8397,-2.1882 -2.33361,-1.9862 -6.56276,0.8876 -2.97929,2.0245 -3.62154,3.0604 -3.5647,5.75 0.086,4.0695 -3.33332,11.6493 -7.28592,16.151 -3.80852,4.3377 -12.81184,8.6296 -18.10259,8.6296 -2.51041,0 -5.1808,-0.7922 -6.9735,-2.0687 -2.63781,-1.8783 -2.84949,-2.4535 -2.29987,-6.25 0.33293,-2.2997 1.72519,-6.3906 3.09391,-9.0909 1.66857,-3.2919 2.30464,-5.8293 1.93035,-7.7008 -0.68717,-3.4358 0.88274,-8.3578 4.01017,-12.5729 1.29905,-1.7508 2.3619,-3.6207 2.3619,-4.1554 0,-0.8581 3.60867,-5.6365 8.8068,-11.6613 0.94906,-1.1 3.06828,-4.0161 4.70938,-6.4802 5.06157,-7.5999 7.28941,-10.1625 13.038,-14.9974 1.6202,-1.3627 5.90075,-4.9627 9.51234,-8 3.61158,-3.0373 8.10029,-7.3224 9.97491,-9.5224 5.57353,-6.541 9.21159,-9.6139 13.69922,-11.5713 4.68988,-2.0456 7.92042,-6.4094 8.8309,-11.9287 0.73908,-4.48038 2.8966,-12.17422 6.57125,-23.43353 1.603576,-4.91343 3.591016,-12.20342 4.416526,-16.19998 0.82551,-3.99656 2.17669,-8.88378 3.00261,-10.8605 0.82593,-1.97672 1.25555,-3.99229 0.95473,-4.47903 -0.30083,-0.48675 -0.10721,-2.82945 0.43027,-5.20599 4.7474,-20.99129 9.34765,-46.5353 8.5988,-47.74697 -0.24476,-0.39604 -0.0363,-3.61221 0.46329,-7.14704 0.49958,-3.53483 1.15009,-8.45197 1.44558,-10.92697 0.2955,-2.475 1.01026,-7.69899 1.58837,-11.60887 0.57811,-3.90988 0.94356,-7.50988 0.81211,-8 -0.13145,-0.49012 0.47408,-4.04113 1.34564,-7.89113 0.87155,-3.85 1.60675,-7.675 1.63378,-8.5 0.26603,-8.11879 7.38362,-34.14805 10.29781,-37.65944 0.6286,-0.75742 1.48751,-3.0564 1.90868,-5.10884 0.90311,-4.40101 3.93161,-12.50237 6.25476,-16.73172 0.90633,-1.65 2.97768,-5.73012 4.603,-9.06693 1.62532,-3.33681 3.57939,-6.58501 4.34237,-7.21823 0.76298,-0.63321 2.32296,-3.3031 3.46662,-5.93307 5.89377,-13.55339 5.81515,-13.06328 6.78251,-42.28177 1.10108,-33.25746 1.51689,-41.22041 2.62485,-50.26671 1.22562,-10.00703 2.07259,-19.05918 2.08026,-22.23329 0.003,-1.1 0.39937,-4.25 0.88158,-7 0.48221,-2.75 1.06856,-6.125 1.30301,-7.5 1.70978,-10.02776 6.94903,-30.47397 8.93253,-34.85927 1.79236,-3.96274 1.89372,-5.46365 1.11428,-16.5 -0.89599,-12.68643 -0.98393,-44.53157 -0.14675,-53.14073 0.26742,-2.75 1.45877,-8.6 2.64745,-13 1.18868,-4.4 2.84941,-10.7 3.69052,-14 1.69895,-6.66564 5.62118,-16.24437 11.19491,-27.33977 4.05615,-8.07442 13.58601,-19.9453 20.34546,-25.34335 4.56097,-3.64235 15.63718,-8.81688 18.87276,-8.81688 1.04461,0 3.49509,-1.40113 5.44551,-3.11362 4.60787,-4.04577 9.40817,-6.44845 15.83406,-7.92538 6.83064,-1.56996 12.57074,-3.89498 15.84116,-6.41644 1.45852,-1.12451 4.12521,-3.16956 5.92598,-4.54456 1.80077,-1.375 3.78977,-3.01448 4.42001,-3.64329 4.00966,-4.00058 33.63145,-21.35671 36.44955,-21.35671 0.5306,0 3.2436,-1.34373 6.029,-2.98606 2.7854,-1.64233 6.2927,-3.28241 7.794,-3.64462 4.8654,-1.17384 20.5521,-9.54885 23.2296,-12.40214 0.275,-0.29304 2.8977,-2.05 5.8281,-3.90435 9.0211,-5.70841 8.6719,-4.11438 8.6719,-39.5901 v -31.11543 l -5.1308,-4.9976 c -3.0562,-2.9769 -5.4081,-6.26039 -5.8167,-8.12074 -0.3773,-1.71772 -2.0059,-4.9453 -3.6192,-7.17239 -1.6133,-2.22709 -2.9333,-4.30817 -2.9333,-4.62463 0,-0.31646 -1.0699,-2.00786 -2.3775,-3.75866 -2.3232,-3.11059 -6.0183,-16.84277 -5.4946,-20.41962 0.142,-0.97001 -1.0014,-4.20538 -2.5409,-7.18971 -1.5395,-2.98433 -2.9976,-7.15373 -3.2402,-9.26533 -0.4279,-3.7246 -0.3085,-3.89609 3.995,-5.74082 2.4399,-1.04584 4.6258,-2.47058 4.8576,-3.16609 0.2319,-0.69551 -0.5884,-3.77042 -1.8227,-6.83314 -3.2359,-8.02893 -4.756,-21.44084 -3.9625,-34.96173 0.3678,-6.26624 1.0377,-12.11624 1.4887,-13 0.451,-0.88376 1.0923,-3.69758 1.4252,-6.25293 0.3328,-2.55535 1.3576,-6.38035 2.2772,-8.5 0.9195,-2.11965 1.9972,-4.75391 2.3947,-5.85391 3.3125,-9.166 7.1886,-14.54595 18.5,-25.67758 5.7884,-5.69639 19.1734,-14.4542 28.5,-18.64758 10.3283,-4.643748 20.8108,-6.660666 34.0883,-6.55886 17.9723,0.137804 24.2509,1.543544 38.4117,8.60006 9.6415,4.80448 13.3261,7.28719 18.747,12.63186 8.6401,8.51853 14.2086,16.59597 16.8439,24.43335 1.15,3.42031 2.4342,6.66875 2.8537,7.21875 0.8112,1.06379 2.5677,7.1029 4.2173,14.5 0.989,4.43508 1.1466,31.69187 0.1921,33.23621 -0.2698,0.43662 -0.6647,2.69959 -0.8774,5.02882 -0.655,7.16959 -1.6204,11.78353 -3.037,14.51402 -1.6829,3.24387 -0.3607,5.22095 3.4917,5.22095 1.4776,0 3.5243,0.61262 4.5483,1.36138 1.7688,1.2934 1.7831,1.65546 0.2861,7.25 -1.4844,5.54783 -2.2566,10.82876 -3.3822,23.13156 -0.5818,6.36001 -2.5407,11.28944 -6.8575,17.25706 -1.7904,2.475 -4.8992,7.86421 -6.9084,11.97602 -2.0092,4.11181 -5.2344,9.09547 -7.1672,11.07481 -2.7757,2.84251 -3.6248,4.6338 -4.0407,8.52398 -0.2897,2.70885 -0.9432,8.16934 -1.4524,12.13441 -0.5092,3.96507 -0.7327,7.79007 -0.4968,8.5 0.236,0.70993 0.6778,6.55125 0.9819,12.98071 0.5878,12.43091 2.2423,21.36594 4.9124,26.5293 3.7358,7.22428 17.1168,15.22746 48.0093,28.71447 3.2253,1.40809 8.4003,4.08339 11.5,5.94513 3.0998,1.86174 8.7859,5.07508 12.6359,7.14075 3.85,2.06567 8.5736,4.93131 10.4969,6.36809 10.1625,7.59192 18.0478,12.26488 22.9857,13.62182 13.0453,3.58484 16.4719,5.06592 19.9577,8.62624 3.7381,3.81795 8.3546,6.4646 17.0182,9.75648 11.5466,4.38738 19.2679,11.92404 27.772,27.10779 3.1944,5.70362 3.4882,6.59885 7.8759,24 6.5417,25.94315 7.6222,38.89426 4.8388,58 -0.7612,5.225 -1.8627,15.50812 -2.4478,22.85139 l -1.0638,13.35139 3.4476,10.64861 c 1.8962,5.85673 3.9005,12.44861 4.454,14.64861 0.5536,2.2 1.4633,5.8 2.0217,8 3.5827,14.11554 4.4775,57.56083 1.6065,78 -0.2317,1.65 -0.6114,9.975 -0.8438,18.5 -0.577,21.17526 -0.033,23.21849 12.5253,47 2.4687,4.675 5.4318,11.2 6.5847,14.5 1.1529,3.3 2.9979,8.475 4.0999,11.5 1.1021,3.025 2.9665,8.875 4.1433,13 3.8803,13.60253 4.1515,14.48297 5.0833,16.5 1.2613,2.73032 3.7414,16.61815 5.4467,30.5 0.7771,6.325 1.8528,12.97082 2.3905,14.7685 0.5377,1.79767 0.9603,3.37267 0.939,3.5 -0.1805,1.07997 1.5473,13.63026 2.6476,19.2315 0.7563,3.85 2.3311,13.3 3.4995,21 1.1684,7.7 2.5464,15.86836 3.0622,18.15191 0.7939,3.51492 2.2349,12.27055 3.4628,21.04096 0.1688,1.20607 0.5934,2.6564 0.9436,3.22295 0.3501,0.56654 0.8494,2.69183 1.1094,4.72285 0.26,2.03102 0.8606,4.18069 1.3347,4.77705 0.474,0.59635 1.3958,4.20994 2.0483,8.0302 0.6525,3.82025 2.2829,9.26367 3.623,12.09649 1.3401,2.83281 2.4366,6.16577 2.4366,7.40658 0,3.38204 5.758,19.90242 8.067,23.14502 1.1098,1.5587 4.7454,4.2877 8.0791,6.0645 3.856,2.0553 9.9713,7.0708 16.8088,13.7861 5.9113,5.8055 14.0771,13.7054 18.1464,17.5554 8.3109,7.863 11.6408,11.9277 12.5316,15.2966 1.3795,5.217 -2.4867,3.3396 -5.6212,-2.7297 -2.1509,-4.1646 -7.5708,-9.4768 -14.239,-13.9562 -2.6,-1.7466 -7.8907,-6.9629 -11.757,-11.5919 -6.7837,-8.1219 -8.4967,-9.515 -15.9619,-12.9808 -8.1162,-3.768 -14.7807,-12.0181 -16.5791,-20.5233 -0.4053,-1.91698 -1.3235,-4.39198 -2.0404,-5.50004 -0.7168,-1.10807 -1.9533,-4.71467 -2.7478,-8.01467 -0.7944,-3.3 -2.1481,-8.025 -3.008,-10.5 -2.8687,-8.25604 -4.6785,-15.20191 -4.6785,-17.9559 0,-1.49943 -0.6882,-4.93526 -1.5293,-7.63517 -0.8412,-2.69991 -1.7528,-6.48393 -2.0259,-8.40893 -0.6624,-4.67019 -0.9919,-6.35574 -2.7366,-14 -1.5812,-6.9277 -2.9419,-14.90399 -3.2414,-19 -0.2392,-3.27177 -2.249,-15.29479 -3.5104,-21 -2.2808,-10.31562 -3.8897,-19.71888 -3.9353,-23 -0.049,-3.55037 -3.9281,-27.9392 -6.0434,-38 -1.4794,-7.03637 -10.7008,-36.23476 -13.1272,-41.56572 -1.0178,-2.23615 -1.8505,-4.41814 -1.8505,-4.84888 0,-0.43073 -0.6281,-2.20115 -1.3959,-3.93427 -0.7677,-1.73312 -2.434,-5.85113 -3.7028,-9.15113 -1.2689,-3.3 -2.8058,-6.675 -3.4154,-7.5 -0.6095,-0.825 -2.1663,-3.75 -3.4593,-6.5 -1.2931,-2.75 -2.9118,-6.125 -3.5971,-7.5 -4.1975,-8.42157 -6.0783,-33.38639 -3.5409,-47 2.838,-15.22639 3.2779,-19.37439 3.3005,-31.11973 0.046,-24.11617 -2.067,-43.61688 -6.2726,-57.88027 -5.9405,-20.14699 -6.2423,-24.23356 -4.1187,-55.77696 1.8394,-27.32312 1.5997,-39.74334 -0.8557,-44.3312 -0.5181,-0.9682 -0.9421,-3.08336 -0.9421,-4.70037 0,-1.61701 -0.675,-4.85317 -1.5,-7.19147 -0.825,-2.3383 -1.5,-5.37793 -1.5,-6.75474 0,-3.31699 -4.1635,-14.79045 -9.0371,-24.90398 -2.6377,-5.4735 -5.3356,-9.38124 -8.1973,-11.87317 -4.3957,-3.82774 -5.7738,-4.53587 -21.5977,-11.09807 -6.8189,-2.8278 -9.7754,-4.61636 -10.9782,-6.64128 -1.6785,-2.82592 -7.2958,-6.00104 -12.6897,-7.17269 -1.65,-0.35841 -4.125,-0.89618 -5.5,-1.19505 -5.4871,-1.19268 -15.0977,-6.83456 -22,-12.91507 -1.375,-1.21129 -5.2,-3.67089 -8.5,-5.46577 -3.3,-1.79489 -7.1662,-4.07959 -8.5916,-5.07713 -4.0216,-2.81443 -16.0344,-8.90305 -17.5656,-8.90305 -0.7551,0 -7.2432,-2.925 -14.418,-6.5 -7.1747,-3.575 -13.6232,-6.5 -14.3299,-6.5 -0.7067,0 -2.089,-0.88851 -3.0718,-1.97447 -0.9828,-1.08596 -2.7201,-2.27066 -3.8606,-2.63266 -4.3387,-1.37703 -13.9198,-8.84015 -16.4098,-12.78218 -2.8585,-4.52554 -4.9361,-10.63411 -5.7749,-16.98013 -1.0206,-7.7209 -2.2272,-27.12692 -1.7388,-27.96723 0.2674,-0.46017 0.9029,-6.08517 1.4122,-12.5 0.5093,-6.41483 1.0533,-12.78833 1.2088,-14.16333 1.4326,-12.66401 1.9829,-16.0939 2.648,-16.50494 0.8483,-0.52424 1.3011,-14.49506 0.4698,-14.49506 -0.2836,0 -2.9633,1.30617 -5.9549,2.90261 -3.1362,1.67356 -8.5269,3.39787 -12.7311,4.07226 -4.0105,0.64332 -10.6037,1.82626 -14.6515,2.62877 -5.5898,1.1082 -7.6941,1.18162 -8.75,0.30529 -4.1089,-3.4101 -0.061,-5.42982 14.7925,-7.38078 7.3245,-0.96204 14.4422,-2.29526 15.8172,-2.9627 1.375,-0.66744 5.5381,-2.73215 9.2513,-4.58824 6.8939,-3.44605 8.2187,-3.36832 8.9098,0.52279 0.254,1.42998 1.2792,2.08931 3.5971,2.31336 1.783,0.17235 3.2318,0.84735 3.2196,1.5 -0.032,1.68105 -3.0941,5.25661 -5.5974,6.53502 -3.9418,2.01297 -7.7465,13.69018 -4.8258,14.81096 2.3444,0.89962 4.9161,-2.09458 9.002,-10.48089 2.0576,-4.22315 4.8072,-9.36984 6.1102,-11.43709 3.3144,-5.25818 6.3949,-13.417 5.725,-15.16276 -0.3091,-0.80552 -1.9862,-1.60273 -3.7269,-1.77159 -3.2843,-0.3186 -3.4428,-0.73781 -2.5307,-6.69678 0.5441,-3.55433 -1.8428,-3.71345 -2.62,-0.17467 -0.7985,3.63556 -1.8269,4.41736 -4.6372,3.52541 -1.7411,-0.5526 -2.0128,-1.23686 -1.5713,-3.95724 0.2936,-1.80902 1.6484,-5.05492 3.0109,-7.21312 2.2782,-3.6089 3.6077,-7.76256 6.5624,-20.50216 3.0757,-13.26132 4.3815,-43.77729 2.109,-49.28845 -2.1412,-5.19274 -2.6895,-6.86915 -3.8836,-11.87381 -1.3843,-5.80175 -5.2022,-14.02227 -8.3431,-17.96405 -12.5699,-15.77507 -16.3188,-18.92515 -28.7487,-24.15683 -9.8465,-4.14436 -19.1099,-5.65671 -35.5126,-5.79784 -15.1039,-0.12995 -17.4666,0.20293 -32,4.50843 -19.3435,5.73053 -35.0385,19.66957 -44.5789,39.59142 -6.2984,13.152 -7.9824,22.46029 -7.9049,43.69268 0.024,6.46388 0.6939,12.47528 1.8958,17 1.0226,3.85 2.5945,10.38886 3.4931,14.53079 1.3398,6.17582 2.44,8.51356 6.1144,12.99291 2.4643,3.00416 4.4805,6.04193 4.4805,6.75059 0,2.20358 -2.9756,2.55773 -5.1275,0.61027 -2.003,-1.81269 -2.0881,-1.81016 -3.4876,0.10377 -1.2028,1.64487 -1.7488,1.76551 -3.3799,0.74684 -1.6376,-1.02271 -2.1088,-0.9097 -2.9779,0.71426 -0.6872,1.28392 -0.6971,2.13647 -0.03,2.5489 0.5515,0.34084 1.0027,1.53621 1.0027,2.65639 0,1.12018 0.6366,3.23113 1.4147,4.69099 0.7781,1.45986 2.4053,5.24179 3.6161,8.40429 1.2108,3.1625 2.5309,5.75 2.9336,5.75 0.4027,0 1.3967,1.6875 2.209,3.75 2.271,5.76677 6.6841,12.25 8.3385,12.25 4.4204,0 -1.3504,-13.6581 -8.3037,-19.65266 -3.2233,-2.77891 -2.3658,-5.34734 1.7852,-5.34734 2.3397,0 3.2789,-0.58603 4.0066,-2.5 1.1639,-3.06134 3.0748,-3.18781 5.595,-0.37029 2.4926,2.78664 9.004,6.97809 13.405,8.62889 1.925,0.72207 8.675,1.75176 15,2.28821 20.1083,1.70545 24.8077,3.07011 22.0432,6.40114 -0.6997,0.84315 -2.2328,1.33526 -3.4076,1.09384 -1.1746,-0.24139 -7.7606,-0.6756 -14.6356,-0.96493 -14.7181,-0.61939 -20.9852,-2.25804 -27.4162,-7.16851 -4.9253,-3.7607 -5.6556,-3.85876 -5.745,-0.77138 -0.062,2.1306 3.6684,26.60236 5.0854,33.36303 1.0799,5.15226 1.2047,6.76394 1.0071,13 -0.2604,8.21515 -0.2639,9.43173 -0.056,19.5 0.2589,12.5307 -0.5785,26.58855 -1.7706,29.72399 -1.5398,4.0501 -9.2648,11.03526 -17.9998,16.27601 -4.5836,2.75 -9.5198,5.71421 -10.9695,6.58713 -1.4496,0.87292 -5.2326,2.55767 -8.4068,3.74389 -7.2044,2.69239 -15.3849,6.80353 -16.2171,8.14996 -0.3463,0.56046 -1.3907,1.01931 -2.3207,1.01967 -2.1599,8.3e-4 -25.13694,13.05971 -31.41709,17.85576 -2.62409,2.00397 -7.48404,5.76707 -10.7999,8.36242 -3.31585,2.59536 -7.92899,5.21316 -10.25142,5.81732 -2.32243,0.60417 -5.91773,1.53759 -7.98956,2.07428 -4.42461,1.14615 -14.04766,6.22863 -18.0239,9.51945 -1.53498,1.27037 -5.83457,3.21622 -9.55466,4.32411 -3.72008,1.10789 -8.76495,3.33986 -11.2108,4.95993 -9.19719,6.09196 -23.02682,25.91896 -25.51935,36.58608 -0.38555,1.65 -1.19402,3.9 -1.79661,5 -1.85958,3.39458 -6.27111,21.02719 -8.25631,33 -1.5516,9.35772 -1.82726,28.32478 -0.76008,52.2975 0.34937,7.8481 0.18803,14.405 -0.39371,16 -0.54212,1.48637 -1.5335,4.7275 -2.20308,7.2025 -0.66957,2.475 -2.30805,7.66826 -3.64105,11.54059 -1.333,3.87232 -2.8286,10.39732 -3.32355,14.5 -0.49492,4.10267 -1.59535,11.95941 -2.44536,17.45941 -2.79478,18.08354 -3.65719,29.3783 -4.04682,53 -0.6638,40.24361 -1.84623,54.8896 -4.67854,57.95 -0.48356,0.5225 -0.8792,1.54394 -0.8792,2.26987 0,0.72593 -1.21375,3.22343 -2.69722,5.55 -1.48348,2.32657 -3.86597,6.48013 -5.29443,9.23013 -1.42846,2.75 -3.84694,7.11954 -5.3744,9.71008 -2.79865,4.74644 -6.12653,12.7459 -7.60886,18.28992 -0.44116,1.65 -1.7281,5.03522 -2.85986,7.52272 -1.13176,2.48749 -2.77758,7.66249 -3.65737,11.5 -4.43059,19.32536 -6.50081,29.53263 -7.09404,34.97728 -0.35955,3.3 -0.84291,6.3239 -1.07412,6.71979 -0.23121,0.39588 -0.88353,4.44588 -1.4496,9 -1.0915,8.78141 -1.17267,9.56551 -2.92727,28.28021 -0.97851,10.43675 -2.08337,17.78913 -4.5082,30 -0.32765,1.65 -0.78894,4.35 -1.02508,6 -0.23614,1.65 -0.6967,3.675 -1.02347,4.5 -0.56791,1.43382 -1.28152,5.20321 -3.33691,17.6259 -0.51195,3.09424 -1.35611,6.80674 -1.87591,8.25 -0.5198,1.44325 -1.50705,5.04335 -2.19391,8.00022 -0.68685,2.95687 -1.86492,6.55687 -2.61792,8 -0.75301,1.44313 -1.37188,3.45587 -1.37527,4.47275 -0.003,1.01688 -0.65304,3.26688 -1.44368,5 -3.360266,7.36589 -4.562476,11.0864 -4.562476,14.11964 0,2.8088 -1.19271,6.3394 -3.8646,11.4399 -0.40578,0.7746 -3.63975,2.8969 -7.18659,4.7161 -4.3145,2.2131 -8.76554,5.7373 -13.44881,10.6484 -3.85,4.0373 -10.94466,10.632 -15.76591,14.6549 -6.36775,5.3133 -10.21837,9.5382 -14.07503,15.4433 -2.92001,4.4709 -7.63785,10.3541 -10.48409,13.0738 -2.84623,2.7196 -5.17497,5.3168 -5.17497,5.7714 0,0.4546 1.13579,1.3441 2.52398,1.9766 5.22351,2.38 3.86235,9.5344 -1.60589,8.4407 -4.55019,-0.91 -7.52641,3.8713 -4.53637,7.2877 2.72268,3.1109 2.74135,5.6183 0.0711,9.5531 -3.11771,4.5942 -2.19652,6.0753 3.15425,5.0715 2.76413,-0.5186 5.25365,-2.2348 9.42398,-6.4968 6.33757,-6.4768 7.97826,-10.8597 5.48796,-14.6604 -2.04161,-3.1159 -1.09955,-4.8982 3.28323,-6.2115 2.03376,-0.6094 5.77629,-2.4263 8.31674,-4.0375 3.63016,-2.3023 4.75974,-3.6797 5.27646,-6.4341 0.76572,-4.0817 2.57027,-5.9628 4.54766,-4.7408 1.10342,0.682 1.14569,1.4136 0.21335,3.6928 -1.24289,3.0385 -1.26881,3.5749 -0.76557,15.8424 0.19773,4.8201 -0.16554,9.2286 -0.9139,11.091 -0.68314,1.7001 -1.56578,6.3143 -1.96143,10.254 -0.39564,3.9396 -1.12349,7.4127 -1.61745,7.718 -0.49397,0.3053 -0.89812,2.5269 -0.89812,4.937 0,2.4101 -0.45,4.6601 -1,5 -0.55,0.3399 -1,1.4794 -1,2.5323 0,1.0528 -0.98896,3.9498 -2.19768,6.4377 l -2.19768,4.5235 2.0495,2.7532 c 1.74515,2.3444 2.88108,2.7976 7.64922,3.0518 6.79071,0.3619 9.12247,-1.4405 10.21284,-7.8944 0.40025,-2.369 1.59938,-6.3408 2.66474,-8.8262 1.06535,-2.4854 1.74431,-5.2557 1.5088,-6.1564 -0.67424,-2.5782 1.17853,-4.9215 3.89134,-4.9215 3.55273,0 4.1365,2.6993 1.55416,7.1862 -1.36734,2.3758 -2.63081,7.0942 -3.31135,12.3661 -1.0681,8.2743 -1.03253,8.5967 1.21217,10.9861 2.97902,3.171 10.25108,3.4057 13.80348,0.4455 3.07841,-2.5652 6.03434,-10.5428 7.12507,-19.2293 0.983536,-7.833 1.708806,-9.0046 5.574116,-9.0046 3.66352,0 4.77183,2.1281 2.72914,5.2403 -2.42311,3.6918 -5.96463,17.1174 -5.27624,20.0017 1.49469,6.2626 15.07353,6.4921 17.4518,0.295 1.189,-3.0982 3.55622,-16.635 3.5564,-20.337 2e-4,-4.1225 1.45348,-5.95 4.73155,-5.95 2.82356,0 4.01829,2.5699 2.39966,5.1618 -0.65153,1.0432 -1.40286,5.6491 -1.66964,10.2353 -0.54495,9.3684 -0.096,10.2193 6.13327,11.6243 3.13337,0.7066 3.98858,0.4863 6.02835,-1.5535 1.85644,-1.8564 2.40493,-3.5367 2.5046,-7.6724 0.17894,-7.4248 0.37706,-8.7544 2.13786,-14.3478 1.66675,-5.2947 2.58658,-10.6544 3.33482,-19.4316 0.25712,-3.0161 0.90223,-5.9186 1.43359,-6.45 0.53136,-0.5314 0.96611,-1.8736 0.96611,-2.9827 0,-1.1091 0.62916,-3.8316 1.39814,-6.05 2.41014,-6.9529 4.93981,-30.2823 4.40086,-40.5861 -0.27224,-5.2048 -0.17089,-10.3596 0.22522,-11.4552 0.41735,-1.1544 0.11763,-3.177 -0.71274,-4.8099 -1.87908,-3.6951 -1.42266,-4.7236 3.17438,-7.1534 2.11112,-1.1158 4.17201,-2.7038 4.57974,-3.5288 1.05312,-2.1309 3.24341,-14.8363 3.14632,-18.2512 -0.0448,-1.5768 0.54418,-4.64038 1.30892,-6.80789 0.76475,-2.16751 1.18905,-3.94092 0.9429,-3.94092 -0.24615,0 0.1841,-1.6875 0.95612,-3.75 0.77202,-2.0625 1.67834,-5.325 2.01404,-7.25 0.75572,-4.33342 5.50119,-17.52912 10.66614,-29.65927 2.14498,-5.0376 3.89996,-9.46707 3.89996,-9.84327 0,-0.3762 1.73555,-4.12953 3.85679,-8.34073 2.12123,-4.2112 4.18267,-8.78173 4.58097,-10.15673 0.59885,-2.06734 6.83922,-15.52194 10.89953,-23.5 2.66105,-5.22868 3.57988,-7.50015 5.66312,-14 1.23395,-3.85 2.86365,-7.99667 3.62156,-9.21482 0.75792,-1.21815 1.37803,-3.0245 1.37803,-4.01411 0,-0.98962 0.94574,-4.26795 2.10163,-7.28519 1.1559,-3.01723 2.46677,-7.51088 2.91304,-9.98588 0.44627,-2.475 1.50335,-6.525 2.34905,-9 1.59077,-4.65546 3.12179,-12.12428 4.61226,-22.5 0.47404,-3.3 1.34626,-7.56468 1.93827,-9.47707 1.1163,-3.606 0.63869,-7.02293 -0.98164,-7.02293 -2.16953,0 -0.60471,-3.65664 2.35591,-5.50521 5.76612,-3.60029 6.52354,-6.58548 6.54962,-25.81368 0.0172,-12.71461 0.40128,-18.09099 1.47723,-20.68111 0.79966,-1.925 1.22918,-4.96645 0.95449,-6.75878 -0.50873,-3.31943 1.62447,-15.00542 4.26703,-23.37543 0.80471,-2.54882 1.46311,-5.84091 1.46311,-7.31575 0,-1.47484 0.46208,-3.54493 1.02685,-4.60021 0.56477,-1.05528 1.21141,-3.6132 1.43698,-5.68426 0.38946,-3.57575 1.36519,-7.64519 4.87301,-20.3237 0.84579,-3.05697 2.07226,-8.68197 2.72551,-12.5 0.65324,-3.81803 1.6219,-7.77537 2.15258,-8.7941 0.53067,-1.01873 1.37073,-4.71814 1.86678,-8.22092 0.91154,-6.43663 0.81391,-6.95678 -2.89562,-15.42685 -0.84307,-1.925 -1.88167,-5.075 -2.308,-7 -0.42634,-1.925 -1.72227,-7.775 -2.87986,-13 -2.80839,-12.67621 -3.03752,-14.33955 -3.09937,-22.5 -0.0562,-7.41386 -2.28269,-14.15077 -5.97598,-18.08209 -2.25883,-2.40442 -1.66147,-5.41791 1.07398,-5.41791 2.61946,0 6.60164,8.83851 7.47073,16.5814 1.83193,16.32105 5.96866,38.13365 7.9498,41.9186 0.86366,1.65 1.57306,3.80985 1.57645,4.79966 0.003,0.98981 0.64932,3.04339 1.43541,4.56352 0.78608,1.52012 1.71516,5.66027 2.06463,9.20034 0.34946,3.54006 1.26632,8.23648 2.03746,10.43648 2.3786,6.78589 4.59942,15.72091 5.46816,22 0.45656,3.3 1.32857,9.15 1.93778,13 1.33831,8.4576 3.79436,24.60885 5.09419,33.5 1.60184,10.95701 6.35404,28.20981 8.06804,29.29097 2.34621,1.47995 5.93942,0.22353 10.4829,-3.66553 4.76069,-4.07496 7.68582,-4.90199 8.21484,-2.32258 0.51759,2.52367 -3.40039,6.10592 -10.56735,9.66182 -3.3601,1.66712 -6.38171,3.47194 -6.7147,4.01072 -0.33298,0.53877 0.0437,4.25222 0.83717,8.25209 1.72045,8.67331 1.43535,25.84101 -0.76845,46.27251 -0.83055,7.7 -1.77244,16.475 -2.0931,19.5 -0.32066,3.025 -0.80838,6.56242 -1.08381,7.86092 -0.66288,3.12508 1.56008,12.86688 3.25753,14.27564 1.02347,0.8494 3.53057,0.0251 10.58823,-3.48121 9.32455,-4.63255 22.18132,-7.75805 29.24722,-7.11006 13.3109,1.22069 21.8025,4.18215 26.5243,9.25043 1.0545,1.13186 3.6179,3.30101 5.6965,4.82035 3.4745,2.53968 9.7461,8.16624 16.0331,14.38393 3.2204,3.18495 7.428,12.21857 7.6078,16.33378 0.1189,2.72235 -0.2016,3.16622 -2.2861,3.16622 -2.0985,0 -2.5786,-0.68491 -3.5721,-5.09574 -1.2125,-5.384 -4.2058,-10.41038 -8.4445,-14.18016 -20.617,-18.33629 -21.8757,-19.19698 -30.8582,-21.10089 -12.8496,-2.72357 -25.2566,-0.66793 -46.79016,7.7524 -4.45488,1.74201 -10.46804,13.81214 -10.27476,20.62439 0.21205,7.47404 -3.58325,33.91706 -7.24814,50.5 -3.3356,15.09295 -4.02372,17.83841 -5.26344,21 -3.49523,8.9137 -7.335,24.99582 -9.19227,38.50001 -0.37821,2.75 -1.16697,5.9 -1.7528,7 -1.46688,2.7543 -1.74701,9.0001 -2.10807,47 -0.32561,34.2696 0.44578,53.5742 2.95577,73.9701 0.81019,6.5836 1.47308,14.7668 1.47308,18.1849 0,3.4182 0.39432,7.2566 0.87628,8.5299 0.48195,1.2733 1.17723,7.6784 1.54507,14.2335 0.36783,6.5551 0.82532,12.1801 1.01664,12.5 0.19133,0.3199 0.87649,6.4316 1.52259,13.5816 0.6461,7.15 2.09356,18.625 3.21657,25.5 1.123,6.875 2.14518,13.4 2.27151,14.5 0.12632,1.1 0.7324,4.25 1.34683,7 0.61443,2.75 1.6425,8.375 2.2846,12.5 0.64209,4.125 1.7603,9.975 2.4849,13 0.7246,3.025 1.55278,7.525 1.84039,10 0.28762,2.475 0.93471,6.75 1.43797,9.5 0.50327,2.75 0.94948,5.675 0.99157,6.5 0.0421,0.825 0.57272,3.75 1.17915,6.5 5.86316,26.5876 7.91701,43.9222 7.72322,65.1845 -0.19297,21.173 0.10402,21.9963 8.12216,22.5152 3.78652,0.245 4.64055,0.6499 4.64055,2.1997 0,1.3131 -1.21415,2.3197 -3.93369,3.2612 -6.77494,2.3456 -7.28473,3.289 -7.36021,13.6207 -0.0616,8.4278 -1.12415,32.7107 -1.69427,38.7187 -1.46259,15.4132 -1.91,18.7547 -2.7217,20.3272 -0.51874,1.005 -1.09926,3.705 -1.29006,6 -0.19079,2.2951 -0.87082,10.0228 -1.51117,17.1728 -2.13012,23.7842 0.73768,63.9707 5.5355,77.5692 0.82155,2.3285 1.77808,6.6531 2.12564,9.6103 0.34756,2.9572 1.01849,5.6156 1.49095,5.9076 0.47245,0.292 0.85901,1.2468 0.85901,2.1217 0,1.5655 3.06907,10.3177 9.65528,27.5345 1.8396,4.8088 3.34472,9.5512 3.34472,10.5386 0,0.9874 0.86438,3.4906 1.92084,5.5628 1.05646,2.0722 2.93122,7.6799 4.16615,12.4615 1.2349,4.7816 2.6689,9.2482 3.1866,9.9258 0.5178,0.6776 1.1369,2.9276 1.3759,5 0.239,2.0724 1.065,5.568 1.8356,7.768 0.7705,2.2 1.8827,6.475 2.4716,9.5 0.5888,3.025 1.9838,9.775 3.0999,15 1.1161,5.225 2.6161,12.425 3.3333,16 1.5157,7.5548 7.2738,31.6625 8.9569,37.5 1.0224,3.5461 1.1553,17.1504 0.3664,37.5 l -0.2132,5.5 h 3.5 c 1.925,0 3.8287,0.5067 4.2303,1.126 0.4017,0.6194 -0.3858,3.8729 -1.75,7.2302 -1.3641,3.3572 -2.4803,7.4113 -2.4803,9.0091 0,1.5978 -0.6522,5.0942 -1.4494,7.7699 -4.3765,14.6889 -6.5387,25.5174 -6.5744,32.925 -0.013,2.7169 -0.4345,6.7104 -0.9364,8.8745 -0.5602,2.4155 -0.5498,4.6123 0.027,5.6898 0.9992,1.867 0.09,5.9408 -4.5457,20.3755 -2.6677,8.3063 -3.9005,20.4515 -2.8522,28.0994 0.4695,3.4257 1.1188,4.4842 3.3066,5.3904 1.4973,0.6202 3.6904,2.8499 4.8735,4.9549 2.3228,4.1329 5.8995,6.2632 13.6931,8.1556 2.727,0.6621 7.6581,2.1248 10.9581,3.2503 7.4588,2.5442 25.7511,3.1777 31.6505,1.0963 3.2842,-1.1587 4.0164,-1.1371 5.3103,0.1568 1.7149,1.7149 1.9292,11.1198 0.2995,13.1463 -0.5545,0.6896 -3.1767,1.25 -5.8488,1.25 -2.664,0 -6.3429,0.7149 -8.1753,1.5887 l -3.3316,1.5888 0.2067,9.6612 c 0.1137,5.3137 0.2476,9.9331 0.2977,10.2653 0.05,0.3322 1.1945,1.7947 2.5432,3.25 4.7159,5.0884 11.6044,2.6765 15.2909,-5.354 5.3376,-11.6271 5.4745,-12.178 4.8256,-19.4184 -0.7662,-8.5497 0.244,-12.3763 4.6156,-17.4846 3.4575,-4.0401 5.8486,-10.4674 5.8024,-15.597 -0.015,-1.65 0.01,-3.9 0.046,-5 0.04,-1.1 -0.5728,-5.375 -1.3623,-9.5 -0.7894,-4.125 -1.956,-10.65 -2.5924,-14.5 -0.6364,-3.85 -1.283,-7.45 -1.4368,-8 -0.1539,-0.55 -1.0013,-3.475 -1.8831,-6.5 -3.2094,-11.0092 -3.7669,-15.7676 -3.5149,-30 l 0.2567,-14.5 -2.5,0.28 c -10.5502,1.1818 -14,0.6073 -14,-2.3314 0,-1.6862 4.2502,-3.6884 11.3945,-5.3677 10.1364,-2.3827 13.8789,-7.8885 15.7081,-23.1099 1.9391,-16.1361 1.7192,-23.0081 -0.8519,-26.6188 -6.3212,-8.8775 -25.858,-8.2593 -32.6221,1.0322 -2.7607,3.7924 -8.6286,16.6509 -8.6286,18.9083 0,0.8983 -0.8334,3.7874 -1.8521,6.4203 -1.0186,2.6328 -2.4017,7.6528 -3.0736,11.1554 -1.1979,6.2452 -1.1718,6.4205 1.3521,9.0548 3.9475,4.1203 3.5027,4.8345 -4.6292,7.4335 -1.7204,0.5499 -2.6157,2.0781 -9.1655,15.6433 -6.4535,13.366 -7.1084,14.4719 -8.7559,14.7873 -3.9369,0.7536 -2.8807,-2.8309 6.1251,-20.7873 0.9654,-1.925 2.3227,-5.3 3.016,-7.5 0.6934,-2.2 2.1677,-5.292 3.2762,-6.871 1.1125,-1.5849 2.108,-4.7747 2.222,-7.1203 0.1136,-2.3371 0.4974,-4.72 0.8531,-5.2954 0.3556,-0.5754 0.9067,-3.6713 1.2246,-6.8797 0.318,-3.2085 1.3363,-6.9586 2.2629,-8.3336 1.8594,-2.759 4.1931,-7.6344 6.2227,-13 1.7107,-4.5224 2.347,-24.6964 1.0241,-32.4705 -1.8455,-10.8454 -2.1422,-15.0064 -1.1759,-16.4897 0.8168,-1.2539 1.2364,-1.2023 2.9683,0.3651 1.8463,1.6709 2.8557,5.4294 3.5379,13.1725 0.1416,1.6075 0.5767,5.1726 0.9669,7.9226 1.5403,10.8553 1.7792,11.0441 9.3438,7.3821 2.4063,-1.1648 6.0359,-2.3318 8.0658,-2.5933 4.8159,-0.6202 5.9575,-1.7809 3.9491,-4.0152 -2.2572,-2.5111 -7.55,-16.2583 -8.6662,-22.5089 -0.517,-2.8956 -1.4764,-7.1669 -2.1319,-9.4917 -0.6556,-2.3249 -0.9289,-4.9124 -0.6075,-5.75 0.6368,-1.6596 4.1838,-2.0818 5.0955,-0.6066 0.5049,0.8169 4.7315,18.8018 6.2474,26.5836 0.3215,1.65 1.4214,4.0732 2.4444,5.3849 1.0229,1.3116 1.8599,3.2338 1.8599,4.2714 0,1.9244 4.4737,4.7033 5.6607,3.5163 0.3587,-0.3587 -0.048,-2.3443 -0.9032,-4.4124 -0.8555,-2.0681 -3.1535,-7.5852 -5.1066,-12.2602 -3.9308,-9.4086 -4.1653,-10.3916 -5.7254,-24 -1.9939,-17.3935 -3.004,-64.0451 -1.6565,-76.5069 0.8466,-7.8299 0.1406,-8.9892 -4.3297,-7.1096 -6.1034,2.5663 -9.6247,-1.6723 -4.1893,-5.0426 6.8401,-4.2414 10.6381,-9.2202 12.4654,-16.3409 0.494,-1.925 1.3602,-5.3 1.9249,-7.5 1.675,-6.5255 1.8693,-7.6979 2.4036,-14.5 1.0882,-13.8538 1.2592,-30.9483 0.4101,-41 -1.7366,-20.5587 -2.9735,-30.5759 -4.4536,-36.0656 -0.8252,-3.0611 -1.5004,-7.2532 -1.5004,-9.3157 0,-2.0626 -0.3997,-4.5081 -0.8883,-5.4344 -0.4885,-0.9264 -1.0926,-3.4939 -1.3424,-5.7055 -0.2497,-2.2117 -1.0408,-5.1176 -1.758,-6.4576 -0.7171,-1.34 -1.2665,-3.7521 -1.2207,-5.3603 0.046,-1.6082 -0.6008,-3.9677 -1.4366,-5.2433 -0.8358,-1.2756 -1.344,-3.1289 -1.1294,-4.1184 0.2146,-0.9896 -0.4231,-3.749 -1.4172,-6.1321 -0.9941,-2.3831 -1.8074,-5.3599 -1.8074,-6.6151 0,-1.2553 -0.813,-3.3555 -1.8067,-4.6671 -4.0873,-5.3951 -9.0353,-17.7295 -13.9943,-34.8849 -1.2272,-4.2456 -22.2973,-13.7289 -34.5734,-15.5609 -1.5809,-0.236 -4.7309,-0.9474 -7,-1.581 -9.1028,-2.5419 -11.6256,-1.6483 -11.6256,4.1181 0,4.4595 -1.4923,5.9601 -3.71582,3.7365 -1.10381,-1.1038 -1.59493,-4.0999 -1.78151,-10.8683 -0.1452,-5.2672 -0.94199,-11.2786 -1.82615,-13.7772 -1.74507,-4.9317 -1.48169,-6.0672 1.40726,-6.0672 2.58802,0 4.20292,4.3436 3.39432,9.1297 -0.7784,4.6076 0.5293,5.4822 9.427,6.3048 3.4736,0.3211 6.7046,0.8243 7.1799,1.118 0.4753,0.2938 4.3632,1.2028 8.6396,2.02 4.6001,0.879 10.9636,3.0857 15.5821,5.4035 9.4378,4.7362 13.3571,4.13 9.1615,-1.4171 -0.8075,-1.0677 -1.4682,-3.3928 -1.4682,-5.1671 0,-1.7743 -0.9417,-5.4008 -2.0927,-8.0589 -1.1509,-2.6581 -2.4953,-7.6182 -2.9873,-11.0225 -0.4921,-3.4043 -1.5278,-7.6793 -2.3016,-9.5 -2.2239,-5.2332 -3.9257,-15.9031 -2.7275,-17.1013 2.5348,-2.5347 6.064,5.9999 6.3286,15.3042 0.048,1.6819 0.468,3.2935 0.9337,3.5814 0.4658,0.2878 0.8485,1.5093 0.8506,2.7143 0,1.2051 0.9076,3.6736 2.0124,5.4857 1.1048,1.8121 1.9697,4.5121 1.9219,6 -0.1106,3.4423 1.686,10.5776 3.5906,14.2607 0.8092,1.5649 1.4713,3.9832 1.4713,5.3739 0,3.3067 3.9542,15.6251 5.6654,17.6494 0.7341,0.8683 1.3346,2.0609 1.3346,2.6501 0,2.0279 7.1514,18.1519 8.5747,19.3332 2.4201,2.0085 4.4233,-0.6691 4.4399,-5.9344 0.01,-2.5452 0.7246,-6.6526 1.5925,-9.1276 0.8679,-2.475 2.444,-8.9428 3.5024,-14.3729 1.0584,-5.4301 2.1552,-10.2463 2.4372,-10.7027 0.5187,-0.8392 1.0224,-4.1261 2.4405,-15.9244 1.0388,-8.6425 -0.3363,-37.6113 -2.4446,-51.5 -0.7319,-4.8214 -2.0427,-38.8506 -2.0415,-53 0,-18.4999 2.2723,-54.6584 3.9878,-63.5 0.8004,-4.125 1.9426,-12.675 2.5382,-19 0.5956,-6.325 1.7105,-14.425 2.4774,-18 0.7669,-3.575 2.3504,-13.594 3.5189,-22.2644 1.1685,-8.6704 2.5098,-17.1079 2.9807,-18.75 0.471,-1.6421 0.6739,-2.9856 0.4509,-2.9856 -0.223,0 0.063,-1.233 0.6362,-2.7399 2.4226,-6.3718 4.156,-19.7061 4.3888,-33.7601 0.1366,-8.25 0.3628,-15.45 0.5026,-16 1.2323,-4.8472 -2.5638,-4.5486 -7.5296,0.5923 -2.1742,2.2507 -5.978,5.4946 -8.453,7.2085 -2.475,1.714 -5.2951,3.8505 -6.2669,4.7478 -1.9769,1.8255 -3.4188,2.5895 -12.7331,6.7467 -11.1376,4.971 -15.288,5.7163 -31,5.5664 -11.3504,-0.1082 -16.3463,-0.6154 -23,-2.3351 -4.675,-1.2082 -8.95,-2.5464 -9.5,-2.9738 -0.55,-0.4274 -2.35,-1.0984 -4,-1.4912 -4.48064,-1.0665 -12.21038,-6.6528 -19.37849,-14.0049 -5.35642,-5.4938 -6.17805,-6.7836 -5.12756,-8.0494 0.68802,-0.829 1.75835,-1.4972 2.3785,-1.4848 0.62016,0.012 4.27756,3.2111 8.12756,7.1081 6.28283,6.3597 10.40333,9.0377 18.99999,12.3486 5.0924,1.9613 19.3028,3.4826 32.7008,3.5008 23.2441,0.032 33.6007,-2.9223 44.7992,-12.7779 1.925,-1.6941 4.4684,-3.9096 5.6519,-4.9234 7.5167,-6.4381 11.811,-11.0193 14.1626,-15.1088 l 2.6855,-4.6699 -0.2024,-42.6671 c -0.1697,-35.79839 0.026,-42.85663 1.2164,-43.84454 3.605,-2.99183 3.9271,-1.06589 4.1127,24.58602 0.4821,66.66212 0.3226,62.72722 2.7013,66.64872 7.6931,12.6824 20.7137,25.2728 31.3734,30.3367 9.7812,4.6466 22.7653,6.6885 38.7016,6.0862 17.7716,-0.6716 26.7217,-4.2247 45.0687,-17.8917 5.0737,-3.7795 8.5551,-4.8056 8.4965,-2.5043 -0.059,2.3277 -5.9494,7.6393 -12.9682,11.6943 -1.375,0.7944 -4.8995,2.9024 -7.8323,4.6845 -2.9327,1.782 -9.2242,4.8693 -13.9811,6.8605 -17.0773,7.1487 -40.2673,6.3723 -55.7436,-1.8664 -2.7099,-1.4426 -5.4129,-2.6229 -6.0066,-2.6229 -0.5937,0 -4.1973,-2.4773 -8.008,-5.5052 -6.8859,-5.4715 -13.4303,-12.5711 -18.2005,-19.7448 -1.3715,-2.0625 -3.2435,-3.75 -4.1599,-3.75 -1.464,0 -1.6754,1.5479 -1.7413,12.75 -0.041,7.0125 -0.3886,18.15 -0.7719,24.75 -0.5086,8.761 -0.2709,15.104 0.881,23.5 2.2375,16.3098 3.5852,30.9194 4.6585,50.5 1.0234,18.6707 1.2991,21.6066 2.4326,25.9009 0.4798,1.8177 0.3162,3.6207 -0.438,4.8284 -0.9496,1.5205 -0.9277,2.2599 0.1037,3.5026 1.751,2.1096 2.4236,61.4701 1.2269,108.2681 -0.7023,27.4602 -0.9638,31.28 -2.3145,33.8039 -1.325,2.4757 -1.9374,29.3832 -0.8422,37.0042 0.7612,5.2971 6.6814,25.008 9.2184,30.6919 0.7364,1.65 1.8468,4.9125 2.4674,7.25 1.5038,5.6634 4.4956,5.9128 5.9988,0.5 0.5728,-2.0625 1.044,-4.3542 1.047,-5.0926 0.01,-1.4882 3.9302,-13.2089 7.6982,-22.9937 1.342,-3.485 2.3132,-7.5452 2.1583,-9.0227 -0.155,-1.4775 0.217,-4.0262 0.8266,-5.6637 1.2268,-3.2953 2.8978,-11.3068 3.9582,-18.9773 0.3802,-2.75 0.8445,-5.675 1.0318,-6.5 0.1874,-0.825 0.5278,-3.075 0.7565,-5 1.9306,-16.2501 2.4821,-18 5.6725,-18 1.8395,0 1.9676,0.4373 1.3911,4.75 -0.3493,2.6125 -1.1026,7.225 -1.674,10.25 -1.5403,8.1542 -2.4046,13.4698 -3.8645,23.7676 -1.4249,10.0503 -0.8405,12.3084 2.683,10.3679 5.2578,-2.8958 14.4279,-4.8116 27.3679,-5.7177 4.125,-0.2889 8.4354,-0.7152 9.5786,-0.9475 2.3271,-0.4729 4.4214,-4.2853 4.4214,-8.0487 0,-2.7984 2.7628,-4.4235 4.0312,-2.3712 0.4561,0.738 0.4323,2.0835 -0.053,2.9901 -1.1681,2.1825 -1.5959,12.8003 -0.6432,15.9595 0.4874,1.6161 0.2683,3.1635 -0.6198,4.3766 -1.8964,2.5906 -5.2436,0.7323 -6.0633,-3.3661 l -0.6121,-3.0606 -8.27,0.6068 c -7.4629,0.5476 -15.9941,2.0595 -25.77,4.5668 -7.5451,1.9352 -10.7362,6.7366 -15.5367,23.3765 -0.7933,2.75 -2.824,8.825 -4.5125,13.5 -3.0457,8.4326 -3.5528,10.535 -6.0303,25 -0.7065,4.125 -1.4191,7.95 -1.5836,8.5 -0.1645,0.55 -0.7024,2.8 -1.1954,5 -0.493,2.2 -1.3827,6.025 -1.9772,8.5 -5.2938,22.0399 -10.8555,68.0439 -10.2763,85 0.4762,13.9409 3.6313,34.4381 6.7693,43.9763 1.8489,5.6201 7.2859,12.3433 11.3398,14.0225 1.9463,0.8062 2.9817,1.8797 2.789,2.8917 -0.3647,1.915 -4.5596,2.736 -6.1014,1.1942 -1.2768,-1.2768 -2.7034,-1.3597 -4.4386,-0.2579 -0.9953,0.6319 -0.7525,6.4544 1.1774,28.2346 2.362,26.6574 2.8296,58.2127 0.9808,66.1886 -0.4712,2.0328 -0.2577,2.75 0.8186,2.75 1.8074,0 3.9324,-4.4316 3.129,-6.5254 -0.7468,-1.9461 2.349,-5.4746 4.8031,-5.4746 2.2553,0 2.4213,3.368 0.345,7 -0.786,1.375 -1.4451,3.7598 -1.4645,5.2997 -0.019,1.5398 -0.722,4.1273 -1.5612,5.75 -0.8391,1.6226 -1.3369,2.9503 -1.1063,2.9503 1.1418,0 -1.7086,8.4896 -4.3601,12.9867 -4.7284,8.0192 -4.6271,8.1283 7.2421,7.7983 l 10.25,-0.285 0.2313,-4.5 c 0.4207,-8.1833 3.5279,-23.0985 5.2567,-25.2335 1.128,-1.393 2.2956,-1.8717 3.4681,-1.4217 1.8806,0.7216 1.8353,1.7845 -0.4541,10.6552 -4.0451,15.6734 -3.8606,26.2417 0.5684,32.5521 3.7465,5.338 8.9692,14.0019 11.1205,18.4479 2.675,5.5283 6.3091,17.2334 6.3091,20.321 0,1.2534 0.4126,2.7065 0.9168,3.229 0.5043,0.5225 2.4971,5.675 4.4285,11.45 4.5831,13.7035 6.3416,17.8243 9.253,21.6833 3.8752,5.1362 2.899,9.1603 -1.9282,7.9487 -2.1643,-0.5432 -7.6701,-9.9212 -7.6701,-13.0644 0,-0.7634 -1.35,-4.2409 -3,-7.7278 -1.6501,-3.4869 -3.2752,-7.8023 -3.6113,-9.5898 -0.3362,-1.7875 -0.8987,-3.3074 -1.25,-3.3776 -0.3513,-0.07 -1.59,-0.2308 -2.7527,-0.357 -4.6178,-0.5009 -5.6748,-3.2304 -2.8259,-7.2977 2.3747,-3.3904 0.9839,-15.4178 -2.2238,-19.2299 -1.3135,-1.561 -2.9083,-4.3343 -3.5441,-6.163 -1.1012,-3.1673 -8.2504,-14.3554 -11.5498,-18.0748 -1.2812,-1.4443 -3.282,-1.75 -11.4546,-1.75 -17.3767,0 -21.1392,2.107 -22.7944,12.765 -1.5823,10.1887 -0.2618,17.5575 4.5221,25.235 1.1995,1.925 3.0839,5.525 4.1875,8 2.8759,6.4494 5.1118,8.0538 11.9468,8.5725 8.0929,0.6142 11.0154,1.3191 12.4036,2.9918 2.3296,2.8071 -0.654,4.4357 -8.1261,4.4357 -7.8274,0 -9.3059,1.2164 -7.7983,6.4159 2.2434,7.7374 0.5298,47.5924 -2.1971,51.1015 -0.4349,0.5596 -1.0688,3.4495 -1.4086,6.4221 -0.3399,2.9726 -0.8407,5.7651 -1.1129,6.2056 -0.8124,1.3144 -1.7035,8.1035 -1.5559,11.8549 0.3042,7.7376 3.446,18.2821 6.555,22 1.1498,1.375 2.7397,3.625 3.5331,5 1.8527,3.2107 3.133,13.6709 2.0288,16.5753 -1.3203,3.4725 2.3943,11.8533 8.2246,18.5566 4.7363,5.4454 5.4117,5.8681 9.3764,5.8681 4.015,0 4.3438,-0.216 5.4549,-3.5828 1.2563,-3.8066 0.593,-12.9617 -1.2288,-16.9601 -1.4312,-3.1412 -5.1562,-4.8649 -10.6204,-4.9146 -4.2321,-0.038 -4.7059,-0.2809 -4.9697,-2.5425 -0.1604,-1.375 -0.7761,-3.4698 -1.3682,-4.6552 -0.8523,-1.706 -0.6873,-2.6961 0.7916,-4.7511 1.676,-2.3289 2.2798,-2.5188 5.8682,-1.8449 2.2,0.4132 8.9715,0.7229 15.0477,0.6883 9.4397,-0.054 11.7685,-0.4046 16,-2.411 11.2781,-5.3476 21.17,-15.0686 23.0809,-22.6822 0.5569,-2.2189 4.0794,-5.7466 6.5658,-6.5754 0.9978,-0.3326 -0.1013,-7.4438 -1.9736,-12.7685 -0.2901,-0.825 -0.5802,-1.95 -0.6446,-2.5 -0.2135,-1.8223 -1.7031,-5.9466 -3.6118,-10 -4.2221,-8.9661 -6.9626,-15.8331 -6.9326,-17.3708 0.018,-0.8961 0.6415,-2.4329 1.3866,-3.4152 0.9909,-1.3063 1.1171,-2.7836 0.4699,-5.5 -0.4867,-2.0427 -0.9239,-9.345 -0.9716,-16.2274 -0.058,-8.4037 -0.714,-15.3005 -1.9968,-21 -1.0506,-4.6676 -2.6723,-11.8616 -3.6038,-15.9866 -0.9315,-4.125 -2.0587,-7.9275 -2.5049,-8.45 -0.4461,-0.5225 -0.8112,-1.6993 -0.8112,-2.6151 0,-0.9159 -0.9577,-2.8827 -2.1282,-4.3708 -2.9232,-3.7162 -1.3427,-7.5641 3.1068,-7.5641 2.7451,0 3.0201,-0.2972 3.0069,-3.25 -0.01,-1.7875 -0.7513,-5.275 -1.6517,-7.75 -4.3818,-12.0446 -7.2292,-40.0112 -4.4185,-43.3979 0.5081,-0.6123 1.1508,-4.9358 1.4281,-9.6077 0.2773,-4.6719 0.9563,-11.1944 1.5089,-14.4944 0.5526,-3.3 1.2969,-8.25 1.654,-11 0.3572,-2.75 1.4568,-7.25 2.4438,-10 0.987,-2.75 2.7837,-9.3449 3.9928,-14.6554 1.2091,-5.3105 2.8272,-10.4855 3.5959,-11.5 0.7687,-1.0145 1.4119,-3.298 1.4294,-5.0744 0.017,-1.7763 0.6417,-4.9263 1.3871,-7 0.7454,-2.0736 2.124,-6.4702 3.0635,-9.7702 0.9395,-3.3 2.1595,-7.35 2.7111,-9 0.5516,-1.65 1.6065,-5.025 2.3444,-7.5 1.816,-6.0916 4.5162,-13.857 6.0853,-17.5 0.7107,-1.65 1.6293,-5.25 2.0415,-8 0.8034,-5.3604 0.7785,-5.2478 1.6562,-7.5 0.3215,-0.825 1.1081,-4.65 1.7479,-8.5 0.6399,-3.85 1.7604,-9.025 2.4901,-11.5 0.7298,-2.475 1.357,-5.175 1.3939,-6 0.037,-0.825 0.4503,-4.875 0.9187,-9 1.1015,-9.7009 0.6259,-44.3848 -0.7255,-52.9046 -0.5753,-3.6275 -1.2233,-9.2954 -1.4399,-12.5954 -0.5546,-8.4482 -3.6835,-28.67 -4.7468,-30.6776 -0.4887,-0.9226 -0.6105,-2.4021 -0.2706,-3.2877 0.3398,-0.8855 -0.088,-3.5056 -0.9501,-5.8224 -1.6118,-4.33 -3.1527,-14.5202 -4.1906,-27.7123 -0.6529,-8.2991 -1.0858,-9.0043 -7.5178,-12.2477 -2.485,-1.2531 -4.623,-3.0958 -4.8191,-4.1537 -0.3187,-1.7192 0.1179,-1.8458 4.5547,-1.3203 2.6989,0.3197 5.3715,0.2753 5.939,-0.099 0.5676,-0.3738 1.5694,-6.7547 2.2264,-14.1797 2.7378,-30.9453 3.3481,-36.5964 4.1577,-38.5 0.8171,-1.921 1.4544,-5.3928 2.5698,-14 0.2852,-2.2 0.8916,-4.9 1.3477,-6 1.447,-3.49 3.0407,-9.7144 4.9926,-19.5 1.0422,-5.225 3.0963,-14.45 4.5646,-20.5 1.4684,-6.05 3.318,-14.375 4.1103,-18.5 0.7923,-4.125 1.5858,-8.175 1.7633,-9 0.1776,-0.825 0.6487,-3.75 1.047,-6.5 0.3983,-2.75 1.1727,-6.1808 1.721,-7.6241 0.5482,-1.4433 1.3581,-5.0433 1.7998,-8 1.1054,-7.3997 7.6467,-39.1153 10.6994,-51.8759 3.7114,-15.5143 6.7218,-34.582 8.9203,-56.5 2.3771,-23.6991 2.8501,-33.5816 2.8957,-60.5 0.053,-31.2455 -0.9165,-50.8899 -2.8377,-57.5 -0.7992,-2.75001 -1.7374,-7.92501 -2.0848,-11.50001 -0.3474,-3.575 -1.038,-9.65 -1.5346,-13.5 -0.4966,-3.85 -1.1886,-10.14344 -1.5378,-13.98542 -0.3492,-3.84199 -0.9261,-7.44199 -1.282,-8 -0.6592,-1.03353 -1.1845,-5.04532 -3.0502,-23.29649 -0.5781,-5.65506 -1.3417,-10.75207 -1.6968,-11.32671 -0.3552,-0.57463 -0.7913,-5.62277 -0.9692,-11.21808 -0.5157,-16.21507 -4.6205,-32.07832 -9.2413,-35.71303 -1.444,-1.1358 -5.5722,-3.44768 -9.1739,-5.1375 -18.1775,-8.52851 -16.9582,-8.15787 -27.0485,-8.22176 -11.1751,-0.0708 -13.154,0.51287 -30.6464,9.0384 -11.7082,5.70641 -13.5954,6.98928 -17.25,11.72636 -3.0481,3.95123 -4.1036,6.23915 -4.1036,8.89521 0,4.83669 -0.8605,6.73942 -3.048,6.73942 -2.7799,0 -3.1557,-1.44614 -2.0002,-7.69707 1.8546,-10.03223 7.3372,-15.86648 22.5482,-23.99452 9.6458,-5.15423 21.3761,-10.21345 24.9884,-10.77736 13.4192,-2.09486 16.8735,-1.44959 32.2109,6.01693 14.608,7.11146 15.2407,7.09931 15.5102,-0.29798 0.2939,-8.06737 0.1876,-9.76304 -1.7396,-27.75 -2.4239,-22.62222 -2.3759,-21.89021 -2.909,-44.35068 -0.2916,-12.28374 -0.9081,-20.86272 -1.5552,-21.64241 -0.5896,-0.71046 -2.5196,-1.87285 -4.2888,-2.5831 -1.7693,-0.71024 -5.6919,-2.93128 -8.7169,-4.93563 -3.025,-2.00435 -6.225,-3.90857 -7.1112,-4.23159 -2.4449,-0.8912 -3.0498,-4.60005 -0.9349,-5.73193 1.7783,-0.95168 4.1758,0.33658 13.9867,7.51537 4.4637,3.26618 7.8683,4.10225 9.5271,2.33962 0.7141,-0.75881 2.2206,-5.42965 3.3478,-10.37965 1.1273,-4.95 3.0341,-13.05 4.2374,-18 1.2032,-4.95 2.5471,-11.475 2.9863,-14.5 0.4392,-3.025 1.2698,-7.525 1.8457,-10 0.971,-4.17308 1.7595,-9.18006 4.0941,-26 0.4963,-3.575 1.3996,-9.2 2.0075,-12.5 0.6079,-3.3 1.2417,-7.35 1.4085,-9 0.1667,-1.65 1.0461,-5.84885 1.9541,-9.33077 0.908,-3.48192 1.6509,-7.61329 1.6509,-9.18083 0,-3.59065 4.4943,-18.24227 7.1572,-23.33264 2.7605,-5.27693 6.9046,-20.97965 7.2986,-27.65576 0.3615,-6.12524 1.4205,-10.62697 4.5868,-19.5 2.4903,-6.97827 3.865,-8.99243 5.2157,-7.64173 0.9145,0.91455 0.5696,2.44222 -2.8541,12.64173 -0.7385,2.2 -1.8205,7.375 -2.4045,11.5 -2.6253,18.54321 -2.7971,19.31751 -5.765,25.98452 -0.8531,1.91648 -1.8918,4.84148 -2.3083,6.5 -0.4165,1.65851 -1.9535,6.16548 -3.4157,10.01548 -2.35,6.18754 -2.6174,8.11809 -2.304,16.63324 0.1951,5.29829 0.862,10.24829 1.4821,11 0.6202,0.75172 1.3957,3.61676 1.7234,6.36676 0.3278,2.75 1.0793,6.8 1.67,9 0.5908,2.2 1.4423,6.30497 1.8924,9.12215 0.45,2.81719 1.3307,6.07969 1.957,7.25 0.6263,1.17032 0.8821,2.12785 0.5684,2.12785 -0.3137,0 -0.066,0.94264 0.5507,2.09475 0.6166,1.15211 1.3632,4.41461 1.6591,7.25 0.2959,2.83539 1.104,6.28025 1.7959,7.65525 0.6918,1.375 1.5883,4.525 1.9922,7 0.4039,2.475 1.0764,5.175 1.4945,6 0.4181,0.825 1.0375,4.1251 1.3765,7.33355 0.339,3.20845 0.9199,6.32466 1.2908,6.9249 1.1671,1.88826 3.4062,21.7001 3.9971,35.36558 0.4214,9.74447 0.2047,14.37963 -0.8415,18 -2.548,8.81706 1.0819,18.8054 7.2849,20.046 3.6207,0.72414 3.6735,2.13793 0.1838,4.92054 -2.5207,2.0099 -2.6223,2.37148 -1.4127,5.02621 1.1598,2.54559 1.9814,6.74447 5.1024,26.07675 0.4612,2.85644 1.0891,5.59907 1.3955,6.09473 0.3063,0.49566 1.4952,5.11357 2.642,10.26202 1.1468,5.14844 2.4359,9.83082 2.8648,10.40527 0.4288,0.57445 1.5671,3.29445 2.5295,6.04445 0.9624,2.75 2.1358,5.9 2.6076,7 3.8886,9.06749 4.9869,11.90673 4.9869,12.89201 0,0.62577 1.3861,4.05607 3.0803,7.62288 5.317,11.1944 7.2437,15.42104 7.9706,17.48511 0.3873,1.1 2.0698,4.925 3.7387,8.5 1.669,3.575 3.2692,7.4 3.5562,8.5 1.3347,5.11673 4.5149,12.66962 12.2525,29.09967 1.321,2.80482 2.4017,5.44255 2.4017,5.86163 0,0.41908 1.575,4.96708 3.5,10.10666 1.925,5.13959 3.5,10.62835 3.5,12.19724 0,1.5689 0.6607,3.72605 1.4682,4.79371 0.8075,1.0676 1.4825,3.1658 1.5,4.6627 0.017,1.4968 0.7681,6.2218 1.668,10.5 1.3549,6.4407 2.2375,8.3696 5.1323,11.2162 l 3.4961,3.4378 -2.679,2.3045 c -2.2095,1.9005 -2.5785,2.8755 -2.1053,5.5622 0.3155,1.7917 0.732,4.6077 0.9255,6.2577 0.6028,5.1407 3.5855,19.7423 5.2091,25.5011 0.8531,3.0256 1.4152,5.9506 1.2492,6.5 -0.1661,0.5494 0.2229,3.6989 0.8644,6.9989 0.6416,3.3 2.1454,12.0079 3.342,19.3508 1.1966,7.3429 3.073,15.6679 4.1697,18.5 1.0967,2.8321 2.8666,7.8492 3.933,11.1492 2.8343,8.7705 3.0042,8.9652 8.1161,9.3022 6.0244,0.3971 6.8518,-1.1013 5.7067,-10.3348 -0.8557,-6.9 -0.2455,-8.8879 2.4133,-7.8612 1.1108,0.4289 2.0871,2.7113 8.6369,20.191 1.5662,4.1795 5.8591,6.5001 10.6238,5.7429 1.9598,-0.3115 4.0162,-0.8461 4.5696,-1.1881 1.4165,-0.8755 0.3623,-13.8654 -1.5668,-19.3058 -1.7206,-4.8522 -0.9637,-7.0462 2.4306,-7.0462 1.2086,0 2.078,0.9616 2.4862,2.75 0.3452,1.5125 1.7037,4.9759 3.019,7.6963 1.3153,2.7205 2.3914,5.6892 2.3914,6.597 0,0.9079 0.9,2.6884 2,3.9567 1.1,1.2683 2,2.6756 2,3.1273 0,1.8268 5.5561,3.5125 9.3542,2.8381 4.4835,-0.7962 5.9059,-2.473 5.0605,-5.9654 -0.3328,-1.375 -0.7985,-5.425 -1.0347,-9 -0.2363,-3.575 -1.1453,-8.4507 -2.0199,-10.8349 -1.1087,-3.022 -1.273,-4.6522 -0.5424,-5.3828 1.715,-1.715 3.6019,-0.2821 5.0589,3.8418 0.7531,2.1317 1.9321,4.5509 2.62,5.3759 0.6878,0.825 1.7805,3.1515 2.4281,5.17 1.7815,5.552 3.0056,6.1404 11.0862,5.3289 9.1344,-0.9173 12.38,-4.0885 8.618,-8.4202 -0.7541,-0.8683 -2.8266,-8.7787 -4.6056,-17.5787 -1.779,-8.8 -4.0812,-18.4431 -5.1161,-21.429 -2.7618,-7.9684 -3.4586,-15.9222 -1.4621,-16.6883 0.8637,-0.3314 2.5794,0.033 3.8126,0.8093 3.7847,2.383 10.4264,4.1041 13.1754,3.4142 3.7933,-0.9521 4.5306,1.848 1.1804,4.4832 -4.1534,3.267 -3.4606,6.4397 2.6365,12.074 5.8209,5.3791 10.2641,7.0978 15.9842,6.1832 4.4149,-0.706 5.6106,-1.9838 3.4277,-3.6631 -0.9771,-0.7517 -1.7377,-3.5391 -2.0847,-7.6403 -0.699,-8.2601 -2.9099,-10.9764 -7.4151,-9.1103 -2.232,0.9245 -3.5057,0.9536 -5.0714,0.1157 -3.0103,-1.6111 -2.5721,-3.784 0.9176,-4.5504 1.6546,-0.3634 3.4704,-1.5242 4.0352,-2.5795 0.5648,-1.0553 1.3744,-1.9187 1.7992,-1.9187 1.265,0 7.1573,8.9123 7.1573,10.8256 0,0.9719 1.5635,4.2212 3.4744,7.2207 4.0747,6.396 4.9096,14.1827 1.7756,16.5617 -2.3879,1.8127 -9.9185,1.7243 -15.5135,-0.1821 -6.4177,-2.1867 -15.1867,-11.5862 -16.0923,-17.2493 -0.7226,-4.5193 -3.609,-7.2601 -6.7742,-6.4324 -1.7418,0.4555 -1.9129,1.0557 -1.3222,4.6395 0.3731,2.264 1.0586,4.5897 1.5234,5.1683 0.4648,0.5787 0.6042,1.9732 0.3098,3.099 -0.2974,1.1375 0.337,3.4813 1.428,5.2753 1.0798,1.7756 1.7485,4.0497 1.486,5.0536 -0.2625,1.0038 0.029,4.2639 0.6478,7.2445 0.6188,2.9807 1.3615,6.7231 1.6504,8.3165 0.2889,1.5933 0.8996,3.361 1.3571,3.928 0.7204,0.893 3.1031,10.7735 4.4688,18.5311 0.2421,1.375 1.4318,6.325 2.6439,11 1.212,4.675 2.2981,10.075 2.4135,12 0.1155,1.925 0.5645,7.5893 0.9979,12.5874 l 0.788,9.0874 -3.0401,3.4024 -3.0401,3.4025 -4.2757,-1.5589 c -2.3516,-0.8574 -4.5691,-2.2029 -4.9278,-2.9899 -0.3587,-0.787 -2.0756,-4.3737 -3.8154,-7.9704 -1.7398,-3.5968 -3.1633,-7.6641 -3.1633,-9.0386 0,-1.3745 -0.9,-4.2643 -2,-6.4219 -1.1,-2.1576 -2,-4.8667 -2,-6.0203 0,-2.5821 -2.5523,-6.2607 -3.61,-5.203 -0.4255,0.4255 -0.2373,2.2567 0.4182,4.0694 0.6555,1.8128 1.1967,4.8389 1.2026,6.7249 0.01,1.8859 0.65,5.535 1.4311,8.109 0.7812,2.574 1.4528,7.749 1.4925,11.5 0.1797,16.9868 0.3532,15.9003 -2.9871,18.7109 -4.5658,3.8419 -9.6099,3.5842 -13.7654,-0.7032 -2.5548,-2.6359 -3.4959,-4.8104 -4.6081,-10.6477 -0.7687,-4.0344 -1.1945,-7.8649 -0.9461,-8.5122 0.2484,-0.6473 -0.4662,-3.3182 -1.588,-5.9353 -1.1218,-2.6171 -2.0397,-6.274 -2.0397,-8.1266 0,-7.4187 -5.8717,-23.2813 -8.1065,-21.9001 -0.5664,0.3501 -0.8,1.2355 -0.519,1.9676 0.2809,0.7322 0.8105,5.5241 1.1768,10.6489 0.3663,5.1247 1.2834,10.516 2.038,11.9806 0.9241,1.7936 1.3578,6.2004 1.3286,13.5 -0.039,9.6166 -0.2812,11.0905 -2.155,13.0871 -2.485,2.648 -7.4488,2.9809 -11.6964,0.7844 -2.3624,-1.2217 -3.1215,-2.6381 -4.5602,-8.5089 -0.9494,-3.8738 -2.1266,-7.2909 -2.6162,-7.5934 -0.4895,-0.3026 -0.8901,-2.0086 -0.8901,-3.7911 0,-1.7826 -0.4219,-3.6685 -0.9376,-4.191 -0.8345,-0.8456 -1.2734,-3.5848 -2.6356,-16.45 -0.2039,-1.925 -0.8004,-4.4 -1.3256,-5.5 -0.5252,-1.1 -1.3628,-3.35 -1.8614,-5 -0.4985,-1.65 -1.5221,-3 -2.2746,-3 -1.1058,0 -1.3775,3.4949 -1.4167,18.22 -0.047,17.4758 -0.1395,18.3111 -2.2769,20.4506 -1.8566,1.8584 -2.6896,2.0685 -4.9923,1.2587 -5.3463,-1.8802 -9.1961,-12.641 -12.5507,-35.0818 -0.177,-1.1838 -0.9163,-2.8687 -1.6429,-3.7442 -0.7266,-0.8755 -1.0982,-2.7574 -0.8259,-4.182 0.5554,-2.9051 -2.4757,-13.9242 -5.4293,-19.7379 -1.0665,-2.0991 -2.1431,-5.4102 -2.3925,-7.3579 -0.2493,-1.9478 -0.6773,-3.9037 -0.951,-4.3466 -0.2737,-0.4429 -0.9258,-4.5568 -1.4491,-9.1421 -1.103,-9.6662 -3.606,-25.5552 -4.9365,-31.3368 -0.5062,-2.2 -1.6447,-7.15 -2.53,-11 -2.981,-12.9639 -3.5714,-16.7481 -3.5714,-22.8897 0,-3.3642 -0.943,-9.2652 -2.0957,-13.1135 -1.1526,-3.8482 -2.2463,-7.8968 -2.4305,-8.9968 -0.1842,-1.1 -0.8703,-5.375 -1.5246,-9.5 -1.2395,-7.81336 -4.0126,-16.93825 -8.5094,-28.00001 -4.707,-11.57885 -6.5679,-16.3585 -9.4716,-24.32757 -1.5686,-4.30516 -3.3306,-8.40414 -3.9154,-9.10884 -0.5849,-0.70471 -1.9586,-3.88332 -3.0528,-7.06359 -1.0942,-3.18027 -2.449,-6.33616 -3.0109,-7.0131 -0.5618,-0.67693 -2.1169,-4.32591 -3.4558,-8.10884 -1.339,-3.78293 -4.2961,-10.47806 -6.5714,-14.87806 -2.2753,-4.4 -4.8177,-10.025 -5.6496,-12.5 -0.832,-2.475 -2.5109,-6.525 -3.7308,-9 -3.8445,-7.79971 -15.547,-47.64831 -15.4417,-52.58102 0.083,-3.91075 -2.2287,-14.46065 -4.1534,-18.95069 -1.0925,-2.54876 -1.9864,-5.55618 -1.9864,-6.68316 0,-1.12698 -0.9045,-3.51254 -2.0099,-5.30123 -2.0039,-3.24227 -2.1073,-8.28855 -0.3686,-17.9839 0.2959,-1.65 0.6186,-8.85 0.7172,-16 0.1663,-12.07 -0.7721,-21.41383 -3.2641,-32.5 -0.5563,-2.475 -1.7086,-8.55 -2.5605,-13.5 -0.8519,-4.95 -1.9808,-9.9 -2.5087,-11 -1.8546,-3.86444 -4.281,-12.03624 -4.6023,-15.5 -0.1786,-1.925 -1.0316,-6.875 -1.8956,-11 -0.864,-4.125 -1.7305,-9.10316 -1.9255,-11.06257 -0.8269,-8.30662 -2.8737,-14.93743 -4.6111,-14.93743 -1.8619,0 -2.6036,3.46204 -3.5345,16.5 -0.2749,3.85 -1.1458,10.6 -1.9353,15 -0.7894,4.4 -1.6121,10.14944 -1.8281,12.77652 -0.216,2.62709 -0.6808,5.06459 -1.0328,5.41667 -0.3521,0.35208 -0.6402,1.75043 -0.6402,3.10746 0,1.35702 -0.4208,4.09452 -0.9352,6.08333 -0.5144,1.98881 -1.6719,7.21602 -2.5721,11.61602 -0.9003,4.4 -2.2795,9.81504 -3.0648,12.03343 -0.7853,2.21839 -1.4279,5.27009 -1.4279,6.78155 0,1.51146 -0.8506,5.32142 -1.8903,8.46657 -3.419,10.34303 -3.9658,35.36357 -1.2396,56.71845 0.4915,3.85 1.4178,12.85 2.0585,20 0.6407,7.15 1.5903,14.90561 2.1102,17.23469 0.8605,3.85473 -0.3213,18.29541 -1.6768,20.48857 -0.4559,0.73766 1.461,5.71509 4.1763,10.84434 1.6137,3.04821 3.3549,12.70794 4.0434,22.4324 0.2727,3.85 0.6957,9.025 0.9402,11.5 1.999,20.23675 2.4421,24.3101 2.9597,27.20523 0.3239,1.81213 0.7593,5.09477 0.9674,7.29477 1.3666,14.44558 4.4024,37.24988 7.3981,55.57171 1.1305,6.9145 2.0715,13.4395 2.0912,14.5 0.02,1.0606 0.2924,9.8033 0.6062,19.4283 1.1956,36.6724 0.7617,51.8908 -2.0843,73.108 -2.1661,16.1489 -3.5241,26.7589 -4.0179,31.392 -1.3605,12.7637 -6.2649,40.784 -7.7889,44.5 -0.3383,0.825 -1.32,5.325 -2.1815,10 -0.8615,4.675 -2.1952,11.425 -2.9638,15 -0.7686,3.575 -1.9155,8.975 -2.5486,12 -0.6332,3.025 -1.8154,8.2 -2.6271,11.5 -0.8117,3.3 -1.589,6.675 -1.7275,7.5 -0.1384,0.825 -0.6205,2.62 -1.0714,3.9888 -0.4509,1.3688 -0.9023,4.2938 -1.0031,6.5 -0.1009,2.2062 -0.6503,4.9112 -1.2211,6.0112 -0.5707,1.1 -1.3144,3.8 -1.6526,6 -0.3382,2.2 -1.0444,5.8 -1.5694,8 -0.5249,2.2 -2.0702,9.4 -3.4339,16 -1.3637,6.6 -3.633,16.5 -5.0427,22 -4.0611,15.8437 -4.6107,18.3644 -4.6107,21.1483 0,1.4408 -0.4146,4.2469 -0.9214,6.2357 -1.9793,7.7678 -3.2705,17.3362 -3.6121,26.7673 -0.1964,5.4204 -1.0746,14.6874 -1.9515,20.5934 -1.0528,7.0902 -1.2717,11.3413 -0.6444,12.5135 0.5225,0.9764 1.2148,5.3677 1.5383,9.7585 0.3235,4.3908 0.985,10.2333 1.4699,12.9833 2.1734,12.326 4.257,22.1598 5.085,24 1.6174,3.5946 2.4483,9.5861 3.9233,28.2931 0.5765,7.3112 1.2982,13.6977 1.6038,14.1922 0.8995,1.4554 1.4103,8.4148 1.9829,27.0147 0.4126,13.4055 0.1845,19.2548 -0.9748,25 -0.8323,4.125 -1.7445,9.975 -2.027,13 -0.2825,3.025 -0.9261,6.85 -1.4303,8.5 -0.5042,1.65 -1.1214,4.575 -1.3715,6.5 -0.2502,1.925 -1.8882,8.225 -3.6402,14 -1.7519,5.775 -4.0562,13.65 -5.1207,17.5 -1.0645,3.85 -2.8898,9.475 -4.0561,12.5 -1.1664,3.025 -2.4691,6.4 -2.895,7.5 -0.4259,1.1 -1.7661,6.275 -2.9782,11.5 -1.2121,5.225 -2.63,10.5919 -3.1509,11.9264 -0.5208,1.3346 -1.8018,6.5808 -2.8465,11.6583 -1.0448,5.0776 -2.8235,11.9746 -3.9528,15.3268 -1.1292,3.3522 -2.9252,11.2746 -3.9909,17.6053 -1.0657,6.3308 -2.1866,11.9131 -2.4907,12.4053 -1.8044,2.9195 -2.7529,34.5334 -1.3374,44.5779 0.3875,2.75 1.4578,7.25 2.3784,10 3.2806,9.7992 4.1577,18.335 2.6716,26 -1.4091,7.2685 -1.421,7.1443 2.3,24 2.2716,10.2901 2.6714,12.7186 2.9524,17.9355 0.1501,2.7855 0.5737,10.9145 0.9413,18.0645 1.2613,24.5316 1.4827,25.8855 5.315,32.5 1.1153,1.925 2.7232,5.975 3.5731,9 1.5391,5.4783 3.3343,30.0337 2.8839,39.4487 -0.3059,6.3959 -3.1333,11.9412 -6.3185,12.3925 -3.445,0.4881 -5.6134,2.7749 -6.3489,6.6954 -0.6274,3.3447 -3.6929,6.4634 -6.353,6.4634 -1.7853,0 -4.2061,2.485 -4.2061,4.3178 0,2.8058 -3.5552,5.9991 -6.5862,5.9156 -3.5763,-0.098 -5.6416,1.349 -7.5077,5.2619 -1.1609,2.4342 -2.3592,3.1928 -6.3965,4.0493 -4.4111,0.9358 -5.1383,1.4702 -6.4887,4.7682 -1.1718,2.8619 -2.3241,3.9395 -5.0209,4.6952 -4.2813,1.1998 -7.4542,1.122 -11.8776,-0.2914 z m -87.46,-16.9666 c 1.266,-2.0276 1.2527,-12.1703 -0.017,-12.9847 -2.6568,-1.7041 -5.7057,-0.7147 -7.6564,2.4847 -2.4179,3.9657 -2.5365,7.4876 -0.334,9.9213 1.8888,2.0871 6.8421,2.4451 8.0074,0.5787 z m 113.486,-1.1763 c 2.5118,-5.5129 -2.0191,-10.3188 -7.143,-7.5766 -1.7396,0.931 -2.041,1.7072 -1.4893,3.8351 0.3805,1.4673 0.8356,3.3428 1.0113,4.1678 0.1758,0.825 0.354,1.6125 0.3961,1.75 0.042,0.1375 1.4362,0.25 3.098,0.25 2.2279,0 3.3117,-0.6372 4.1269,-2.4263 z m -126.5064,-9.2833 c 0.794,-3.1635 -1.4017,-7.6204 -4.0008,-8.121 -2.5407,-0.4893 -5.6439,2.6744 -5.6259,5.7356 0.041,6.9573 7.9851,8.9258 9.6267,2.3854 z m 138.4238,2.6744 c 2.3709,-1.2689 2.5043,-4.6774 0.2792,-7.1361 -1.8751,-2.072 -11.345,-2.6752 -11.345,-0.7226 0,1.8435 6.0642,8.8939 7.6498,8.8939 0.8149,0 2.3521,-0.4658 3.416,-1.0352 z m -152.1846,-7.3216 c 1.638,-1.9738 0.2666,-7.4615 -2.0483,-8.1962 -3.8609,-1.2255 -6.6975,3.8736 -4.1656,7.4883 1.6557,2.3639 4.5645,2.6953 6.2139,0.7079 z m 135.1188,-2.0842 c 0,-1.9466 -1.04,-2.4657 -6.4171,-3.2027 -4.9549,-0.6791 -6.1715,0.7173 -2.8329,3.2517 2.4467,1.8573 9.25,1.8213 9.25,-0.049 z m -104.9342,-2.5942 c 3.4525,-1.8477 2.3494,-3.9648 -2.0658,-3.9648 -3.2121,0 -4,0.3611 -4,1.8333 0,3.2644 2.3838,4.102 6.0658,2.1315 z m 133.3272,-0.5466 c 2.0682,-5.3896 -1.5132,-8.6847 -5.7861,-5.3236 -2.8525,2.2437 -3.2513,3.861 -1.4069,5.7054 1.7385,1.7385 6.4759,1.487 7.193,-0.3818 z m -145.393,-2.883 c 0,-1.7329 -3.0254,-3.5352 -5.9342,-3.5352 -3.1236,0 -2.4763,1.9181 1.1842,3.5091 4.1596,1.808 4.75,1.8112 4.75,0.026 z m -29.3519,-3.128 c 1.2238,-1.8464 1.1411,-2.4055 -0.7031,-4.75 -1.25,-1.5891 -3.0785,-2.6572 -4.5489,-2.6572 -2.7574,0 -4.2602,2.5359 -2.5289,4.2672 0.6231,0.623 1.1328,1.9053 1.1328,2.8495 0,3.3631 4.4819,3.5589 6.6481,0.2905 z m 14.3519,-3.4286 c 0,-0.5618 -1.1372,-1.5396 -2.5271,-2.1729 -1.9348,-0.8815 -2.8118,-0.8668 -3.7417,0.063 -0.9526,0.9527 -0.8929,1.4178 0.2772,2.1575 1.9964,1.2622 5.9916,1.2304 5.9916,-0.048 z m 173.2732,-9.0682 c 0.4253,-2.9409 0.5519,-5.9238 0.2814,-6.6288 -0.9527,-2.4825 -4.4177,-1.2422 -7.5389,2.6986 -3.8002,4.7982 -3.8097,8.8316 -0.025,10.7088 3.9373,1.9529 6.3439,-0.2872 7.2826,-6.7786 z m -190.4613,-3.6489 c -0.3874,-2.0111 -3.5543,-2.9191 -5.031,-1.4424 -1.5038,1.5038 -4e-4,3.1809 2.8515,3.1809 1.8499,0 2.4258,-0.4594 2.1795,-1.7385 z m 90.0941,-149.6482 c 0.633,-0.7628 1.7768,-4.4753 2.5417,-8.25 0.765,-3.7748 2.5782,-10.0133 4.0294,-13.8633 3.2593,-8.6467 7.3285,-25.6384 7.4249,-31.0041 0.399,-22.213 -0.2603,-49.7268 -1.5398,-64.2488 -3.1754,-36.0431 -3.8247,-41.2471 -5.7694,-46.2471 -2.5978,-6.6789 -3.7558,-11.8539 -4.028,-18 -0.134,-3.025 -0.7752,-7.3826 -1.4248,-9.6835 -0.7625,-2.7003 -0.9886,-8.1956 -0.6379,-15.5 0.2988,-6.2241 0.7248,-15.5915 0.9465,-20.8165 0.2218,-5.225 0.9164,-10.8453 1.5437,-12.4896 0.6272,-1.6443 0.8913,-4.3443 0.5869,-6 -0.3044,-1.6557 0.086,-5.414 0.8673,-8.3517 0.7814,-2.9377 1.1976,-5.9227 0.9249,-6.6333 -0.2727,-0.7106 0.2072,-2.9744 1.0664,-5.0308 0.8592,-2.0564 1.5622,-4.9589 1.5622,-6.4501 0,-1.4911 0.3375,-3.0497 0.75,-3.4634 0.4125,-0.4138 0.803,-2.1763 0.8678,-3.9167 0.1425,-3.8309 2.1454,-14.0358 3.5651,-18.1644 1.044,-3.0362 2.2061,-8.5513 3.4112,-16.1884 0.7052,-4.4692 -2.3649,-15.6962 -7.0582,-25.8116 -1.276,-2.75 -3.1217,-7.925 -4.1016,-11.5 -0.9799,-3.575 -2.3785,-7.7152 -3.108,-9.2003 -0.7294,-1.4852 -1.3263,-4.0434 -1.3263,-5.6849 0,-1.6415 -0.4652,-4.2083 -1.0339,-5.7039 -1.5052,-3.9592 -1.5761,-32.4025 -0.088,-35.1838 0.6579,-1.2291 1.0837,-3.2456 0.9463,-4.481 -0.1374,-1.2353 0.06,-6.5211 0.4394,-11.7461 0.8057,-11.1068 1.9932,-40.7106 1.8653,-46.5 -0.049,-2.2 -0.3168,-18.85 -0.5958,-37 -0.5365,-34.8876 -0.9746,-48.9551 -1.9312,-62 -1.0301,-14.0472 -2.0868,-33.0041 -3.0013,-53.8435 -0.2135,-4.8639 -0.8151,-9.2705 -1.337,-9.7924 -1.6442,-1.6442 -3.0522,1.3305 -3.6143,7.6359 -0.2941,3.3 -1.6909,13.5434 -3.1038,22.763 -1.413,9.2197 -3.2431,22.7197 -4.067,30 -0.8239,7.2804 -2.1552,19.087 -2.9585,26.237 -3.3322,29.6594 -4.3587,65.8553 -2.5238,89 1.5559,19.6256 2.1754,25.9625 2.6068,26.6641 1.7161,2.7909 2.4188,33.8465 1.0031,44.3359 -1.2654,9.3759 -3.7896,20.9866 -6.6308,30.5 -1.5605,5.225 -3.0687,11.525 -3.3517,14 -0.2829,2.475 -1.2405,7.65 -2.128,11.5 -1.8544,8.0445 -1.6023,12.9749 1.2015,23.5 1.0988,4.125 3.1896,12.9 4.6463,19.5 1.4566,6.6 3.3675,15.15 4.2465,19 2.7027,11.8379 4.4521,21.7243 4.9544,28 2.7397,34.2251 1.6911,59.6478 -2.9603,71.7723 -4.6598,12.1466 -5.4666,16.0559 -5.5174,26.7367 -0.027,5.77 -0.1285,11.841 -0.2243,13.491 -0.3588,6.1735 0.1243,42.4571 0.7257,54.5 0.5541,11.0986 1.327,16.7702 4.2923,31.5 0.4429,2.2 2.1507,7.375 3.7951,11.5 1.6445,4.125 3.5532,10.2 4.2416,13.5 1.8906,9.0629 3.2739,13.762 4.7834,16.25 1.5761,2.5977 2.6103,2.809 4.2251,0.8633 z M 77.817204,1201.5406 c 2.56014,-1.872 1.08801,-3.6517 -3.02067,-3.6517 -2.72444,0 -3.44098,0.3991 -3.44098,1.9167 0,3.0076 3.45323,3.9348 6.46165,1.735 z m 699.338336,-2.8517 c 2.8641,-2.8641 0.045,-5.0666 -5.2005,-4.0638 -3.0197,0.5773 -3.3295,1.9891 -0.8495,3.8718 2.2,1.67 4.4991,1.743 6.05,0.192 z m -673.1998,-4.9974 c 0.0553,-1.4892 1.51093,-4.3041 3.25,-6.2848 3.48774,-3.9723 3.94735,-6.5774 1.57838,-8.9464 -2.05223,-2.0522 -9.746456,-2.0982 -11.431116,-0.068 -1.9517,2.3516 -1.46979,6.3652 1.09165,9.0917 1.973716,2.101 2.149446,2.7936 1.125,4.434 -2.09919,3.3613 -1.5285,5.1402 1.535896,4.7876 2.21114,-0.2544 2.76963,-0.845 2.85019,-3.0138 z m 642.9936,-1.9543 c 0.9771,-1.581 -2.2458,-3.7521 -4.6403,-3.1259 -1.9315,0.5051 -2.5782,2.3196 -1.2868,3.6109 1.0903,1.0904 5.1592,0.7574 5.9271,-0.485 z m -662.582826,-3.0983 c 2.47341,-4.0567 2.4684,-4.2255 -0.19952,-6.711 -1.57698,-1.4692 -3.54001,-2.039 -7.02475,-2.039 -4.2712,0 -4.95012,0.2997 -5.81144,2.5651 -2.37055,6.235 -0.12845,9.4349 6.61088,9.4349 3.93978,0 4.66781,-0.3683 6.42483,-3.25 z m -32.6147,-0.3402 c 0.86147,-2.245 -0.12792,-3.4098 -2.89626,-3.4098 -2.947,0 -4.06731,1.6115 -2.46364,3.5438 1.602,1.9303 4.59647,1.8554 5.3599,-0.134 z m 725.381226,0.034 c 4.6845,-3.2812 1.8312,-11.5638 -3.7775,-10.9653 -1.375,0.1467 -3.4265,0.3242 -4.5589,0.3944 -1.1323,0.07 -2.8994,0.7423 -3.9268,1.4935 -1.6857,1.2326 -1.7368,1.6963 -0.5235,4.75 0.7394,1.8613 1.7741,3.9466 2.2993,4.6341 1.3364,1.7496 7.8225,1.5599 10.4874,-0.3067 z m 26.7225,-4.86 c 0,-2.7646 -5.1515,-4.3604 -7.2623,-2.2496 -1.3133,1.3134 -1.3516,1.8242 -0.237,3.1672 1.9154,2.3079 7.4993,1.6247 7.4993,-0.9176 z m -671.69166,-0.6583 c -0.19708,-0.5912 -0.78583,-1.075 -1.30833,-1.075 -0.5225,0 -1.11125,0.4838 -1.30833,1.075 -0.19709,0.5913 0.39166,1.075 1.30833,1.075 0.91667,0 1.50542,-0.4837 1.30833,-1.075 z m 615.48216,-0.8155 c 0.5297,-0.5297 0.6854,-2.0693 0.3461,-3.4213 -0.6695,-2.6673 -4.1401,-3.7464 -8.6496,-2.6892 -3.1684,0.7427 -3.967,4.7991 -1.332,6.7663 1.9614,1.4643 7.9211,1.0587 9.6355,-0.6558 z m -690.790486,-5.5652 c 0,-2.6302 -0.42917,-3.0444 -3.90137,-3.7659 -2.98139,-0.6194 -4.49922,-0.4188 -6.43662,0.8506 l -2.53525,1.6612 2.93662,2.3778 c 2.08295,1.6866 3.95407,2.2985 6.43662,2.1047 3.14881,-0.2458 3.5,-0.5697 3.5,-3.2284 z m 77.934896,-1.52 c 4.92733,-1.8734 1.46616,-6.791 -3.84202,-5.4588 -3.87298,0.9721 -4.2213,4.3239 -0.59288,5.7051 0.825,0.3141 1.58321,0.6065 1.6849,0.65 0.1017,0.043 1.3392,-0.36 2.75,-0.8963 z m 666.99999,0 c 2.0729,-0.7882 2.5651,-1.6408 2.5651,-4.4433 0,-4.6342 -2.7318,-6.5513 -8.3227,-5.8408 -5.6266,0.7151 -7.6773,1.9117 -7.6773,4.48 0,5.3387 6.8619,8.3031 13.4349,5.8041 z m -715.673946,-1.6579 c 1.38353,-0.3708 2.48092,-1.6267 2.8278,-3.2364 0.31177,-1.4468 1.02623,-3.5839 1.58769,-4.7491 2.55862,-5.3099 -1.49062,-8.5489 -10.17643,-8.1402 l -5.5,0.2588 -0.84597,6.3152 c -0.72123,5.384 -0.58778,6.6005 0.90499,8.25 1.77811,1.9648 6.62519,2.528 11.20192,1.3017 z m 688.095546,-3.0337 c 1.9792,-1.2757 2.2414,-2.0242 1.6379,-4.676 -0.3952,-1.7365 -1.0118,-4.7322 -1.3701,-6.6572 l -0.6516,-3.5 -6.5789,-0.2921 c -8.2994,-0.3685 -9.0579,0.3965 -7.725,7.7921 1.3286,7.3715 4.0989,10.3537 8.8183,9.4928 1.9321,-0.3524 4.5733,-1.3242 5.8694,-2.1596 z m -663.25455,0.075 c 1.15607,-0.3103 2.83508,-2.1016 3.73113,-3.9807 2.97024,-6.2286 -1.1868,-10.2545 -9.83307,-9.5227 -3.79844,0.3215 -5.060436,1.6147 -6.386536,6.5445 -0.8806,3.2736 -0.78356,4.2575 0.56706,5.75 1.640966,1.8132 7.468776,2.4042 11.921416,1.2089 z m 606.99065,-1.9214 c 0.9125,-3.6356 -1.1826,-5.6502 -5.4987,-5.2876 -2.5238,0.2121 -3.6791,0.8379 -3.9232,2.125 -0.5011,2.6425 2.6868,5.6756 5.9653,5.6756 2.1842,0 2.9691,-0.5706 3.4566,-2.513 z m 26.9254,0.498 c 1.7621,-1.4623 1.8918,-4.5111 0.3768,-8.8569 -1.2261,-3.5173 -3.5025,-5.1281 -7.2473,-5.1281 -4.9858,0 -5.6475,0.826 -5.6475,7.0503 0,4.9138 0.3557,6.0881 2.25,7.4293 2.4917,1.764 7.858,1.5056 10.268,-0.4946 z m -682.937256,-3.1583 c 0.71806,-0.7297 1.61397,-3.688 1.9909,-6.574 l 0.68533,-5.2474 -3.7299,-1.5584 c -2.05144,-0.8572 -5.14158,-1.4209 -6.86698,-1.2527 -2.77772,0.2708 -3.23093,0.764 -3.95627,4.3058 -2.08023,10.1575 -2.07018,10.4211 0.43771,11.4799 2.99261,1.2634 9.72945,0.5843 11.43921,-1.1532 z m 78.218716,-7.0076 c 0.25077,-2.8916 -0.12273,-3.6454 -2.29705,-4.6361 -4.44033,-2.0231 -8.03793,-1.4978 -9.34188,1.3641 -2.40522,5.2788 -1.06263,7.961 4.33948,8.6692 4.37204,0.5732 6.94678,-1.3305 7.29945,-5.3972 z m 655.91404,0.9675 c 3.71,-1.3415 5.3092,-4.9194 3.4963,-7.8223 -0.5956,-0.9536 -0.8282,-2.7073 -0.5171,-3.8971 0.3793,-1.4505 -0.2028,-2.9812 -1.7667,-4.646 -2.0573,-2.1899 -2.8688,-2.4041 -6.8792,-1.8157 -7.5495,1.1077 -9.0468,1.9866 -9.0468,5.3107 0,1.6312 0.3919,3.208 0.8709,3.504 0.4789,0.296 1.1593,1.9805 1.5118,3.7434 1.2816,6.4076 5.2086,8.1984 12.3308,5.623 z m -79.8953,-5.6019 c 0.4092,-4.2628 -1.2432,-6.1845 -5.3182,-6.1845 -3.9399,0 -5.6226,1.766 -4.8137,5.052 0.9845,3.9996 2.389,5.0704 6.2281,4.7486 3.2564,-0.273 3.6148,-0.605 3.9038,-3.6159 z M 350.35554,233.94066 c 0,-1.00661 -0.8666,-2.89255 -1.9257,-4.19099 -1.6778,-2.05685 -2.0089,-2.14711 -2.5723,-0.70104 -0.782,2.007 2.1909,8.1481 3.5406,7.31394 0.5266,-0.32544 0.9574,-1.4153 0.9574,-2.42191 z m 163,-1.96998 c 0,-1.05502 0.2717,-2.62623 0.6038,-3.49157 0.8359,-2.17843 -2.3783,-3.24427 -4.2224,-1.40015 -1.1231,1.12312 -1.2272,2.08535 -0.4472,4.13674 1.1685,3.07347 4.0658,3.61147 4.0658,0.75498 z M 365.57734,1899.4192 c -5.586,-1.7443 -11.3203,-6.1099 -10.5754,-8.0512 0.7815,-2.0365 4.863,-1.8516 11.6304,0.5269 6.6084,2.3227 11.0477,1.7576 19.4853,-2.4804 5.6717,-2.8487 9.7475,-3.246 10.5968,-1.0328 0.6852,1.7856 -3.0118,5.5072 -5.4707,5.5072 -0.9541,0 -3.0068,1.0396 -4.5615,2.3103 -5.4201,4.43 -13.3537,5.6404 -21.1049,3.22 z m 105.1939,-1.9591 c -2.2463,-0.6943 -5.3963,-1.9927 -7,-2.8854 -1.6036,-0.8926 -4.6378,-2.3036 -6.7426,-3.1355 -2.7279,-1.0781 -3.7307,-2.0206 -3.4917,-3.2814 0.5035,-2.6565 6.5528,-2.7492 13.4431,-0.2061 9.45,3.488 10.7315,3.4916 16.835,0.047 9.5805,-5.4069 13.8072,-3.3364 6.4739,3.1713 -7.7089,6.8411 -12.617,8.4229 -19.5177,6.2901 z m -68.6839,-931.32121 c -1.9934,-1.5125 -4.4969,-3.88028 -5.5632,-5.26173 -4.3839,-5.67922 -15.6221,-32.39509 -14.9956,-35.64817 0.2256,-1.17105 1.2183,-1.8401 2.7303,-1.8401 2.5494,0 2.7989,0.5653 7.0605,16 2.9191,10.57235 7.1414,17.63205 12.2508,20.48357 4.8353,2.69855 6.7072,4.71254 6.7536,7.26643 0.049,2.67415 -4.0497,2.17656 -8.2364,-1 z m 33.6133,-0.79313 c -0.6987,-1.82078 -0.8653,-1.6263 4.9145,-5.73563 5.5239,-3.92731 11.7683,-12.78269 12.8489,-18.22124 0.4371,-2.2 1.4648,-7.46711 2.2837,-11.70469 2.0966,-10.84913 3.8262,-13.64696 6.4683,-10.4634 0.8143,0.98118 0.6934,3.15363 -0.4592,8.25 -0.8605,3.80495 -1.9,8.71809 -2.31,10.91809 -1.3078,7.01862 -9.6933,20.72953 -16.0323,26.21404 -2.9839,2.58169 -6.8649,2.95541 -7.7139,0.74283 z m -23.8451,-53.10939 c -1.1,-0.30949 -2.45,-0.90563 -3,-1.32477 -0.55,-0.41913 -2.6331,-1.28765 -4.6291,-1.93003 -4.3261,-1.39232 -7.3419,-4.42282 -6.5236,-6.55543 0.6284,-1.63746 4.6193,-2.0916 6.2027,-0.70583 3.8741,3.39051 28.6441,4.42121 38.4821,1.60126 9.2906,-2.66305 10.9679,-2.83589 10.9679,-1.13021 0,2.19795 -6.7694,7.11603 -11.7868,8.56332 -4.5973,1.32612 -26.4015,2.41341 -29.7132,1.48169 z m 9.0567,-22.56999 c -0.8562,-1.22237 -1.5567,-3.66009 -1.5567,-5.41713 0,-3.02807 0.2633,-3.25109 5.0492,-4.2775 8.4705,-1.81658 9.072,-1.45632 8.2097,4.91714 -0.8787,6.49505 -8.3599,9.54929 -11.7022,4.77749 z m 1.8311,-30.20467 c -1.1617,-0.82124 -2.6619,-2.82026 -3.3337,-4.44227 -1.8013,-4.34872 -0.027,-7.13055 4.5468,-7.13055 1.9418,0 4.3684,-0.44839 5.3924,-0.99641 3.1853,-1.70474 5.2878,-0.1588 4.5821,3.36931 -1.74,8.69993 -6.4342,12.5602 -11.1876,9.19992 z m 215.5995,-22.75256 c -2.0276,-4.37585 -5.2738,-10.26161 -8.1739,-14.82026 -0.8748,-1.375 -2.1493,-4.3 -2.8323,-6.5 -0.6829,-2.2 -1.5707,-4.45 -1.9728,-5 -0.402,-0.55 -1.5969,-4.15 -2.6552,-8 -1.5576,-5.6666 -1.9174,-10.23485 -1.8886,-23.98216 0.033,-15.80947 0.1653,-17.00745 1.9157,-17.34839 2.645,-0.51522 3.1149,0.70789 3.4548,8.99236 0.3606,8.7896 1.1154,9.9996 5.4605,8.75344 8.056,-2.31041 19.7045,0.005 19.7045,3.91709 0,2.41438 -2.2784,3.0395 -8.7957,2.41327 -8.0708,-0.7755 -13.9747,0.47434 -15.8644,3.35848 -1.381,2.10757 -1.4633,3.43516 -0.5537,8.92473 1.1299,6.81856 9.1053,24.34434 15.6868,34.47118 3.9477,6.07429 4.1431,8.33789 0.7614,8.82026 -1.7999,0.25674 -2.6423,-0.53662 -4.2471,-4 z m -431.44623,-2.75382 c -0.35497,-0.57436 0.008,-2.51177 0.80708,-4.30537 11.35385,-25.49137 16.68331,-41.59744 14.74403,-44.55772 -1.59753,-2.43861 -5.66169,-3.32167 -13.9023,-3.02072 -8.12943,0.2969 -8.70885,0.18469 -8.98417,-1.73994 -0.4711,-3.2932 3.71025,-4.79527 13.56632,-4.87346 l 8.72798,-0.0692 0.23438,-7 c 0.27319,-8.15925 1.82247,-12.73518 4.15611,-12.27548 1.78161,0.35096 1.79107,0.63167 0.73453,21.77548 -1.07184,21.44995 -1.4679,23.89113 -5.09956,31.43149 -1.87242,3.88768 -4.799,10.44351 -6.50351,14.56851 -1.70451,4.125 -3.46748,8.175 -3.91771,9 -1.00956,1.84989 -3.69159,2.4767 -4.56318,1.06644 z m 214.94323,-4.67793 c -5.6226,-6.0669 -4.0664,-9.45535 4.1391,-9.01244 2.9957,0.1617 5.9459,0.7932 6.556,1.40333 2.3299,2.32984 -3.0356,10.2206 -6.9496,10.2206 -0.7289,0 -2.4144,-1.17517 -3.7455,-2.61149 z M 176.35555,808.04388 c 0,-1.56498 0.89042,-3.65083 1.97904,-4.63602 4.84797,-4.38736 7.59215,-18.8207 7.15824,-37.64965 -0.1345,-5.83678 1.2823,-8.46411 3.74391,-6.94275 0.72277,0.4467 1.30928,1.88345 1.30338,3.1928 -0.0668,14.7952 -0.55711,21.92568 -1.74145,25.32367 -0.77771,2.23133 -1.43274,4.95696 -1.45562,6.05696 -0.0571,2.74545 -5.65838,15.67364 -7.22028,16.66503 -2.43724,1.547 -3.76722,0.83737 -3.76722,-2.01004 z m 244.22289,-6.09862 c -3.1399,-2.86785 -4.0571,-6.19533 -2.4185,-8.77417 0.4418,-0.69529 2.6878,-1.16318 5.2347,-1.0905 2.4535,0.07 5.4734,-0.22196 6.7109,-0.64883 1.8829,-0.64949 2.25,-0.42022 2.25,1.40512 0,1.19968 -0.9554,4.40217 -2.1231,7.11663 -2.5453,5.91673 -4.8387,6.38988 -9.654,1.99175 z m 249.0027,-4.36581 c -2.3534,-3.0431 -10.2629,-20.72166 -11.2705,-25.19056 -1.9149,-8.49313 -2.1381,-9.85791 -2.3711,-14.5 -0.2833,-5.64427 0.1772,-7 2.378,-7 1.4493,0 1.9585,1.58088 2.9796,9.25 1.204,9.04304 4.0319,17.3017 10.6675,31.15364 0.765,1.597 1.3909,3.68635 1.3909,4.64301 0,2.15453 -2.5281,3.25561 -3.7744,1.64391 z m -326.357,-9.20041 c -4.232,-2.29943 -4.5946,-5.62648 -1.0616,-9.74015 2.2033,-2.56539 5.0427,-2.1971 5.7824,0.75 0.3451,1.375 1.0717,2.5 1.6147,2.5 1.3928,0 6.7959,-3.28683 6.7959,-4.13405 0,-0.38656 1.575,-1.67623 3.5,-2.86595 1.925,-1.18972 3.5,-2.64241 3.5,-3.2282 0,-0.5858 1.5667,-2.68659 3.4815,-4.66844 5.6605,-5.85875 14.5185,-16.51854 14.5185,-17.47176 0,-1.44491 15.1877,-16.60368 19.2986,-19.26184 5.0225,-3.24761 8.1018,-4.35839 9.5688,-3.45175 2.1253,1.31354 0,4.13486 -4.7455,6.30487 -5.2872,2.41676 -9.3474,6.37972 -20.2624,19.77712 -12.6164,15.48564 -13.0659,15.99958 -20.3595,23.2794 -6.8334,6.82048 -15.9581,13.76071 -17.9866,13.68056 -0.5574,-0.022 -2.1975,-0.68343 -3.6448,-1.46981 z m -39.24464,-2.35319 c -2.91042,-3.21598 -2.72494,-5.84908 0.73124,-10.38043 3.27829,-4.29813 6.07335,-5.72799 7.80736,-3.99398 0.60015,0.60015 -9.9e-4,2.08043 -1.63203,4.01881 -2.78513,3.30994 -2.06915,4.82163 1.82123,3.8452 1.23094,-0.30894 6.49284,-4.75776 11.69314,-9.88625 12.3459,-12.17544 26.0267,-23.88298 27.3814,-23.43201 2.7529,0.91643 0.9971,3.80087 -6.5166,10.70573 -4.4803,4.11729 -12.0304,11.12677 -16.7779,15.57663 -15.86602,14.87136 -20.82708,17.6135 -24.50784,13.5463 z m 186.82424,-5.99783 c -4.6237,-2.12694 -17.0696,-15.25849 -26.5327,-27.9943 -8.7951,-11.83671 -15.7152,-18.66047 -19.7365,-19.4616 -2.725,-0.54289 -3.2633,-1.06547 -3,-2.91221 0.4818,-3.37825 3.3594,-3.29997 9.132,0.24843 4.8306,2.96931 11.433,10.16967 20.6136,22.48055 4.6047,6.17483 15.6382,17.57788 19.2814,19.92733 2.997,1.9327 4.794,1.41566 4.794,-1.37936 0,-3.56331 5.1202,-3.56044 7.0278,0.004 1.455,2.71865 1.1793,5.48185 -0.7778,7.79466 -2.5398,3.0015 -6.1482,3.43329 -10.8018,1.29256 z m 33.0518,-2.19909 c -3.5933,-1.05352 -6.5724,-3.88255 -10.4675,-9.94004 -1.5915,-2.475 -6.5201,-8.03824 -10.9524,-12.36276 -4.4323,-4.32452 -7.812,-8.26202 -7.5104,-8.75 0.3016,-0.48798 1.7728,-0.88724 3.2693,-0.88724 2.8016,0 6.4829,3.25973 11.0453,9.78046 2.5329,3.62005 15.5971,15.21954 17.1414,15.21954 0.5359,0 0.9743,-1.35 0.9743,-3 0,-4.36897 3.4366,-3.8993 5.9169,0.80865 1.7152,3.25571 0.4851,7.68716 -2.5131,9.05321 -2.816,1.28306 -2.7951,1.28282 -6.9038,0.0782 z m -103.3862,-2.5225 c -3.336,-4.24111 -3.6535,-6.56208 -1.1724,-8.57119 1.7864,-1.44651 2.5516,-1.5554 4.1065,-0.58434 1.54,0.96171 2.4755,0.86003 4.8179,-0.52368 2.5623,-1.51354 3.0534,-1.54065 4.1423,-0.22864 1.5229,1.83508 -0.015,6.12669 -3.5703,9.96298 -2.9911,3.22743 -5.7563,3.20911 -8.324,-0.0551 z m 3.1945,-23.42714 c -3.2249,-1.29899 -5.4929,-5.35541 -5.1269,-9.16963 l 0.3186,-3.32077 h 6.5 6.5 l -0.3123,5 c -0.2208,3.53439 -0.9128,5.51296 -2.3608,6.75 -2.2908,1.95706 -2.4463,1.97792 -5.5186,0.7404 z m -2.944,-28.43407 c -3.7774,-2.67009 -4.2448,-10.55633 -0.6256,-10.55633 0.8821,0 2.3971,0.71794 3.3668,1.59542 1.6166,1.46305 2.0118,1.44838 4.7631,-0.17687 2.4435,-1.4434 3.2816,-1.53876 4.5166,-0.51388 1.328,1.10219 1.1096,1.83798 -1.7594,5.92687 -3.5926,5.12025 -6.6945,6.24619 -10.2615,3.72479 z m 1.9998,-27.72592 c -2.684,-1.2996 -4.3641,-4.90979 -4.3641,-9.37746 0,-2.77286 0.3894,-3.45295 1.977,-3.45295 1.0873,0 2.714,1.125 3.615,2.5 1.9695,3.00593 3.0635,3.16086 3.8918,0.55115 0.704,-2.21806 4.2644,-3.70299 5.6224,-2.34493 0.928,0.92793 -1.5243,9.69084 -3.3704,12.04378 -1.164,1.48369 -4.4007,1.519 -7.3717,0.0804 z m 1.0656,-33.79511 c -2.2474,-0.90958 -5.439,-5.18332 -5.4144,-7.25012 0.034,-2.85868 1.8695,-3.86123 7.7548,-4.2359 5.0935,-0.32425 6.177,-0.11047 6.4911,1.28075 0.5278,2.33821 -1.013,6.26285 -3.5021,8.91997 -2.3195,2.47606 -2.362,2.48631 -5.3294,1.2853 z m -1.5247,-32.7853 c -2.7936,-3.47962 -3.9881,-6.41279 -3.3851,-8.31255 0.7016,-2.2106 4.3975,-2.61089 6.3472,-0.68745 1.0166,1.00285 1.6658,0.70626 3.2834,-1.5 2.2787,-3.10778 5.8576,-3.72114 5.835,-1 -0.026,3.07817 -3.0433,10.57011 -4.7933,11.90021 -2.4007,1.82473 -5.6439,1.64662 -7.2872,-0.40021 z m 98.595,-10.92562 c -7.1981,-1.51403 -9.6718,-3.88872 -17.0053,-16.32438 -4.1283,-7.00055 -9.8005,-30.12625 -9.4432,-38.5 0.1266,-2.967 -2.9783,-33.06705 -4.1261,-40 -2.8029,-16.92983 0.123,-47.02384 5.5905,-57.5 4.1901,-8.02869 7.6768,-16.41226 8.2213,-19.76817 0.669,-4.12223 5.3564,-8.23183 9.3892,-8.23183 4.6427,0 9.0571,2.69769 8.6854,5.30773 -0.2698,1.89419 -0.8561,2.15531 -4.312,1.92047 -6.0422,-0.4106 -8.2928,0.48096 -10.1892,4.03629 -2.416,4.52955 -6.2026,15.29453 -7.4696,21.23551 -0.5865,2.75 -1.7277,5.75142 -2.5361,6.66982 -1.3781,1.56576 -4.7563,23.29078 -3.8497,24.7577 0.5186,0.83903 1.5693,11.57933 2.1104,21.57248 0.2383,4.4 0.8198,10.925 1.2923,14.5 0.4725,3.575 0.6691,7.01178 0.4369,7.63729 -0.2323,0.62552 0.2814,4.54404 1.1415,8.70785 0.86,4.1638 1.5683,10.40201 1.574,13.8627 0.02,12.08262 5.0831,30.94173 10.1457,37.78928 3.6889,4.9895 12.9687,7.42676 19.2232,5.04881 3.1237,-1.18762 10.5524,-8.97591 14.8652,-15.58478 6.4529,-9.88823 11.9935,-16.46115 13.8758,-16.46115 3.0282,0 2.1961,2.80613 -2.4731,8.34051 -2.3942,2.83772 -6.6792,8.60369 -9.5223,12.81326 -2.8432,4.20958 -6.9493,9.26185 -9.1248,11.22727 -5.327,4.81262 -12.4265,7.80015 -16.5,6.94334 z m -193,-1.62023 c -6.039,-1.82707 -10.2382,-4.39951 -14.83864,-9.09026 -5.17006,-5.27159 -10.66135,-12.17492 -10.66135,-13.40283 0,-0.5079 -1.575,-2.98617 -3.5,-5.50727 -3.65193,-4.78278 -4.30113,-7.09063 -2.33621,-8.30502 1.42962,-0.88355 4.04422,2.27561 9.33621,11.28076 5.99018,10.19323 13.13819,16.63179 21.42129,19.29516 6.2761,2.01805 7.0424,2.06732 10.391,0.66817 2.7775,-1.16048 4.1047,-2.62664 5.7273,-6.3267 1.1617,-2.64889 2.9167,-6.61616 3.9,-8.81616 0.9833,-2.2 2.5034,-7.6 3.378,-12 0.8745,-4.4 2.0864,-10.475 2.6929,-13.5 0.6065,-3.025 1.2702,-8.425 1.4748,-12 0.2046,-3.575 0.9073,-11.225 1.5616,-17 0.6543,-5.775 1.3334,-13.53515 1.5091,-17.24478 0.1757,-3.70962 0.6338,-7.25333 1.018,-7.87489 3.4096,-5.51686 4.7762,-35.71301 1.9252,-42.53661 -0.8246,-1.97338 -1.4992,-4.69038 -1.4992,-6.03777 0,-1.3474 -1.176,-4.45648 -2.6133,-6.90908 -1.4373,-2.4526 -3.0298,-6.31276 -3.5387,-8.57813 -0.509,-2.26536 -1.8476,-5.41379 -2.9746,-6.99651 -1.8971,-2.66428 -2.4911,-2.8644 -8.0101,-2.6988 -6.2895,0.18872 -8.326,-0.75395 -7.3159,-3.38634 1.3827,-3.60315 11.7901,-4.95463 15.3022,-1.98709 2.4864,2.10094 7.5172,11.8083 7.8258,15.10065 0.1211,1.29286 1.3758,4.56064 2.7882,7.26175 1.4124,2.70111 3.2126,7.38622 4.0006,10.41136 0.7879,3.02514 1.6984,5.93036 2.0233,6.45605 1.4661,2.37221 1.0727,17.4471 -0.7206,27.61541 -1.7304,9.81125 -2.8184,16.95487 -4.1738,27.40478 -0.2497,1.925 -0.7171,5.3 -1.0386,7.5 -0.3216,2.2 -0.8039,8.18647 -1.0719,13.30326 -0.4433,8.46516 -1.2723,13.9072 -4.5998,30.19674 -1.1803,5.77766 -3.7348,13.80323 -4.9338,15.5 -0.3886,0.55 -1.729,4.15 -2.9786,8 -1.2496,3.85 -3.0148,7.79812 -3.9226,8.77359 -2.12,2.2781 -10.2683,3.02783 -15.5478,1.43056 z m 91.5726,-19.33901 c -2.4868,-3.16141 -2.5383,-3.75661 -0.5012,-5.79371 1.8789,-1.87887 1.6932,-1.86363 4.9004,-0.40235 2.2647,1.03187 2.8975,0.85127 5.3923,-1.53887 2.3592,-2.26025 3.018,-2.4772 3.9848,-1.31224 1.5239,1.83609 0.4543,6.97952 -1.999,9.61277 -2.9204,3.13467 -9.1001,2.83789 -11.7773,-0.5656 z m 4.4398,-26.57822 c -3.5213,-2.04133 -5.5102,-5.17678 -5.2568,-8.28692 0.311,-3.81676 4.0018,-4.75619 5.7622,-1.46668 l 1.1532,2.15468 2.229,-2.094 c 2.6145,-2.45627 5.1501,-2.7089 5.9616,-0.594 0.7497,1.95358 -0.1015,4.24828 -3.0604,8.25 -2.5855,3.49687 -3.6958,3.83 -6.7888,2.03692 z m -1.282,-30.48712 c -1.2288,-1.0461 -2.2431,-3.26549 -2.4222,-5.2998 l -0.3082,-3.5 6.4849,-0.71511 c 8.3711,-0.92311 9.2158,-0.0784 6.0035,6.00354 -2.8242,5.34744 -6.1819,6.55569 -9.758,3.51137 z m 77.9566,-17.57454 c -1.4793,-1.78236 1.2325,-23.19029 3.3461,-26.41606 3.74,-5.70801 9.8382,-10.46077 18.9719,-14.78616 5.2531,-2.48767 9.9751,-4.52304 10.4934,-4.52304 0.5183,0 3.3182,-1.07924 6.222,-2.3983 2.9038,-1.31907 6.8546,-3.06032 8.7796,-3.86946 1.925,-0.80913 8.778,-5.33843 15.2289,-10.06511 6.4509,-4.72668 12.9759,-9.23019 14.5,-10.00779 3.4345,-1.75228 15.326,-4.4873 17.0211,-3.91482 2.2541,0.76125 1.3086,3.20337 -1.5,3.87432 -1.5125,0.36131 -3.2,0.98284 -3.75,1.38116 -0.55,0.39832 -2.2894,1.03288 -3.8654,1.41013 -2.8802,0.68946 -16.6883,8.13026 -17.6302,9.50047 -0.2774,0.40351 -3.6544,2.75746 -7.5044,5.23101 -3.85,2.47355 -7.675,5.14243 -8.5,5.93085 -1.845,1.76324 -12.0807,6.92754 -13.7304,6.92754 -0.661,0 -2.6795,0.63677 -4.4857,1.41505 -1.8061,0.77828 -5.6353,2.36101 -8.5092,3.51719 -6.3171,2.54133 -12.6475,6.73539 -17.0092,11.26899 -3.1588,3.28332 -3.2445,3.61175 -3.6651,14.0386 -0.2369,5.87215 -0.7205,11.14543 -1.0746,11.7184 -0.863,1.39645 -2.0556,1.31323 -3.3388,-0.23297 z m -150.599,-2.58289 c -0.2915,-0.47169 -0.058,-2.38419 0.5193,-4.25 1.701,-5.49882 1.7374,-16.0105 0.067,-19.39237 -1.9633,-3.97527 -3.6216,-5.14149 -10.1743,-7.15524 -3.025,-0.92963 -10.1443,-3.18751 -15.8207,-5.0175 -5.6764,-1.82999 -10.74112,-3.32726 -11.25492,-3.32726 -0.87003,0 -5.55173,-2.20573 -13.92437,-6.56032 -1.925,-1.00119 -8,-4.77859 -13.5,-8.39422 -7.98094,-5.24657 -11.5518,-6.9385 -17.68577,-8.37981 -7.59441,-1.78447 -10.59636,-3.59112 -9.3413,-5.62185 0.93939,-1.51997 5.76631,-1.27836 11.17995,0.55962 4.03031,1.36833 21.79956,10.96198 24.84712,13.41501 2.84473,2.28976 18.53254,9.36095 24.34269,10.9723 3.6615,1.01547 9.1323,2.72091 12.1573,3.78986 3.025,1.06895 7.8907,2.70911 10.8126,3.64481 8.2444,2.64018 11.1702,5.97327 13.6711,15.5746 1.3068,5.01673 0.8397,17.8142 -0.7209,19.75 -1.1507,1.42742 -4.3836,1.67255 -5.1748,0.39237 z m 73.3001,-11.64201 c -3.4477,-1.87377 -5.6227,-6.91023 -3.8873,-9.00126 1.4157,-1.70585 4.5761,-1.99268 5.4992,-0.4991 0.9436,1.52678 4.2129,1.19055 4.8616,-0.5 0.3166,-0.825 1.4898,-1.5 2.607,-1.5 3.7918,0 1.9823,9.18411 -2.4106,12.23469 -1.5749,1.09365 -3.7464,0.85458 -6.6699,-0.73433 z m 81.4529,-31.97408 c -1.9905,-1.39417 -2.0379,-1.79048 -0.8796,-7.34136 1.4352,-6.87747 2.1084,-8.18492 4.2142,-8.18492 1.5587,0 1.526,1.16742 -0.1863,6.6536 -0.8843,2.83332 2.5076,4.00454 6.6401,2.29282 2.2387,-0.92731 3.2671,-0.94994 4.1262,-0.0908 1.4491,1.4491 0.5661,2.33748 -5.5585,5.59209 -5.6272,2.99031 -5.6268,2.99026 -8.3561,1.07856 z m -164.8123,-2.88167 c -2.8336,-2.07193 -1.2729,-4.64461 2.8175,-4.64461 4.8773,0 5.9666,-1.77758 4.8509,-7.91579 -0.6804,-3.74355 -0.5998,-5.335 0.3082,-6.08859 2.018,-1.6748 3.5462,1.24831 4.6934,8.97727 0.9362,6.30782 0.8557,7.30956 -0.7281,9.05956 -2.1184,2.3409 -9.0891,2.69822 -11.9419,0.61216 z m 46.7213,0.25481 c -2.2441,-0.66053 -3.25,-1.56675 -3.25,-2.92801 0,-1.782 0.6966,-1.96995 7.25,-1.95623 8.2631,0.0173 16.25,2.0301 16.25,4.0952 0,1.7027 -15.1415,2.29269 -20.25,0.78904 z m 34.9009,-0.21758 c -1.8765,-2.26112 -1.8434,-7.77639 0.054,-9.00813 1.3637,-0.88519 2.2297,-0.61388 4.3256,1.35505 l 2.6205,2.46184 2.6827,-3.28702 c 2.1366,-2.61791 2.9355,-3.03425 3.9245,-2.04529 1.883,1.88308 1.4882,6.25862 -0.8309,9.20685 -1.7253,2.19335 -2.8777,2.63486 -6.8776,2.63486 -2.7565,0 -5.2713,-0.56195 -5.8989,-1.31816 z m 1.0145,-30.27853 c -1.5932,-1.11596 -2.1871,-2.39557 -1.9725,-4.25 0.3038,-2.62438 0.3943,-2.65331 8.3071,-2.65331 7.4064,0 8.0226,0.15838 8.3044,2.13461 0.7187,5.03938 -9.5,8.36817 -14.639,4.7687 z m 0.1818,-23.87272 c -4.4368,-3.1076 -2.7615,-9.61284 2.0519,-7.96792 1.1555,0.39488 4.3509,0.76732 7.1009,0.82764 4.6338,0.10166 5.0225,0.304 5.3071,2.763 0.2146,1.85443 -0.3793,3.13404 -1.9725,4.25 -2.8559,2.00037 -9.7134,2.07027 -12.4874,0.12728 z m -1.0397,-17.24877 c -3.9033,-1.94426 -6.161,-6.54848 -4.3067,-8.78272 1.5686,-1.89006 4.9177,-1.87534 7.4403,0.0327 2.5483,1.92741 6.0869,1.86008 9.5432,-0.18156 3.0405,-1.79611 6.0157,-1.27519 6.0157,1.05328 0,7.77574 -10.2368,12.09024 -18.6925,7.8783 z m 0.915,-20.83852 c -2.7933,-1.95649 -2.8272,-3.90634 -0.1012,-5.81572 1.4758,-1.03369 2.8193,-1.22047 4.4149,-0.61381 1.3606,0.51729 3.7574,0.46783 5.8921,-0.12159 5.9685,-1.64798 7.3946,0.84889 3.1195,5.4618 -1.9236,2.07554 -3.3848,2.64602 -6.7775,2.64602 -2.3789,0 -5.3254,-0.70052 -6.5478,-1.5567 z m 20.7775,0.67333 c 0,-1.15702 3.6187,-2.09389 8,-2.07117 3.2934,0.0171 3.3854,0.10484 1.5589,1.48634 -2.0922,1.58242 -9.5589,2.03924 -9.5589,0.58483 z m -19.8344,-19.71319 c -1.4284,-1.0005 -2.1648,-2.40052 -1.9725,-3.75 0.283,-1.98549 0.8908,-2.15344 7.7932,-2.15344 6.5822,0 7.5309,0.23143 7.8554,1.91624 0.8741,4.53881 -8.8436,7.37197 -13.6761,3.9872 z m 1.1498,-17.3651 c -1.2016,-0.50904 -2.6632,-1.81966 -3.248,-2.91249 -1.5184,-2.83708 1.3008,-5.53945 4.8404,-4.6399 1.4257,0.36232 4.5812,0.9637 7.0123,1.3364 2.431,0.37271 4.5794,1.1605 4.7743,1.75064 1.0446,3.16365 -8.7418,6.42994 -13.379,4.46535 z m -3.4838,-21.50873 c -1.8461,-4.05169 0.1721,-5.38688 8.1809,-5.41219 6.0422,-0.0191 6.9616,0.22551 7.5254,2.00208 1.1687,3.68199 -2.0893,5.8805 -8.7143,5.8805 -5.2684,0 -5.9812,-0.25185 -6.992,-2.47039 z m 1.9184,-20.10158 c -2.8705,-1.55729 -3.5771,-3.79882 -1.5855,-5.02971 1.7434,-1.07748 13.7735,-1.30775 14.4112,-0.27584 1.0157,1.6434 -0.5852,4.56084 -3.142,5.72576 -3.3492,1.52604 -6.335,1.39647 -9.6837,-0.42021 z m 3.9626,-19.04879 c -1.8398,-1.83984 -0.5366,-3.37924 2.8607,-3.37924 2.863,0 3.5074,0.34791 3.2415,1.75 -0.3378,1.78134 -4.7674,2.96402 -6.1022,1.62924 z"
       id="path1" />
  </g>
</svg>
