<?xml version="1.0" encoding="UTF-8" standalone="no"?>
<!-- Created with Inkscape (http://www.inkscape.org/) -->

<svg
   version="1.1"
   id="svg1"
   width="873"
   height="1974"
   viewBox="0 0 873 1974"
   sodipodi:docname="anterior.svg"
   inkscape:version="1.4.3 (0d15f75042, 2025-12-25)"
   xmlns:inkscape="http://www.inkscape.org/namespaces/inkscape"
   xmlns:sodipodi="http://sodipodi.sourceforge.net/DTD/sodipodi-0.dtd"
   xmlns="http://www.w3.org/2000/svg"
   xmlns:svg="http://www.w3.org/2000/svg">
  <defs
     id="defs1" />
  <sodipodi:namedview
     id="namedview1"
     pagecolor="#ffffff"
     bordercolor="#000000"
     borderopacity="0.25"
     inkscape:showpageshadow="2"
     inkscape:pageopacity="0.0"
     inkscape:pagecheckerboard="0"
     inkscape:deskcolor="#d1d1d1"
     inkscape:zoom="0.25075988"
     inkscape:cx="436.67272"
     inkscape:cy="990.98787"
     inkscape:window-width="1366"
     inkscape:window-height="706"
     inkscape:window-x="0"
     inkscape:window-y="0"
     inkscape:window-maximized="1"
     inkscape:current-layer="layer1">
    <inkscape:page
       x="0"
       y="0"
       width="873"
       height="1974"
       id="page2"
       margin="0"
       bleed="0" />
  </sodipodi:namedview>
  <g
     inkscape:groupmode="layer"
     id="layer1"
     inkscape:label="reference anterior bodychart"
     style="display:inline"
     sodipodi:insensitive="true">
    <g
       inkscape:groupmode="layer"
       inkscape:label="Image"
       id="g1"
       style="display:inline" />
    <path
       style="display:inline;fill:#000000"
       d="m 390.47998,1935.6194 c -3.78637,-3.7864 -6.7439,-5.583 -9.19044,-5.583 -3.54262,0 -8.61427,-3.5849 -10.80166,-7.6352 -1.17635,-2.1781 -3.59272,-4.5227 -5.86746,-5.693 -2.45609,-1.2637 -4.37428,-3.2028 -5.25626,-5.3137 -0.8713,-2.0853 -2.78382,-4.0358 -5.13254,-5.2346 -5.32065,-2.7155 -6.78434,-4.766 -8.59707,-12.044 -0.89009,-3.5736 -2.6532,-7.5642 -3.97632,-9 -1.30744,-1.4187 -2.62851,-3.3006 -2.93572,-4.1819 -0.79454,-2.2793 1.92588,-15.7305 3.74198,-18.5022 0.83786,-1.2788 1.52339,-3.6233 1.52339,-5.2102 0,-3.0577 4.17812,-9.5886 8.17465,-12.778 3.06999,-2.4499 7.12103,-9.0407 6.55164,-10.6591 -0.24152,-0.6864 0.008,-2.3731 0.55422,-3.7481 0.54633,-1.375 1.38172,-4.4125 1.85641,-6.75 0.4747,-2.3375 1.31308,-6.275 1.86308,-8.75 0.55,-2.475 1.38149,-6.4125 1.84776,-8.75 1.42311,-7.1343 3.15569,-12.6341 4.17941,-13.2668 0.53506,-0.3307 0.97283,-1.2485 0.97283,-2.0395 0,-0.7911 1.29864,-4.2521 2.88587,-7.691 5.91048,-12.806 6.37603,-14.7937 5.10564,-21.7995 -1.19405,-6.5848 -0.81653,-11.5764 1.57545,-20.8305 0.85261,-3.2986 1.05025,-5.9843 0.51127,-6.9474 -0.48325,-0.8635 -0.53564,-2.4937 -0.1164,-3.6227 0.41923,-1.1289 0.37121,-4.9776 -0.10671,-8.5526 -0.47793,-3.575 -1.08104,-8.975 -1.34026,-12 -0.66984,-7.8167 -3.49863,-22.8735 -5.07265,-27 -0.73427,-1.925 -1.62832,-5.075 -1.98678,-7 -0.35847,-1.925 -1.28258,-4.4967 -2.05359,-5.7148 -0.77101,-1.2182 -1.40184,-2.9039 -1.40184,-3.746 0,-1.5681 -3.25255,-11.6657 -5.48854,-17.0392 -0.68658,-1.65 -3.39556,-8.625 -6.01994,-15.5 -2.62438,-6.875 -6.2638,-16.1 -8.0876,-20.5 -5.33847,-12.8793 -8.40392,-21.0638 -8.40392,-22.4377 0,-0.7045 -2.025,-5.9314 -4.5,-11.6155 -2.475,-5.684 -4.5,-11.1698 -4.5,-12.1907 0,-1.0208 -0.52554,-2.3816 -1.16788,-3.024 -1.35319,-1.3532 -3.79501,-7.9774 -3.81706,-10.355 -0.008,-0.8926 -0.87787,-3.5926 -1.93242,-6 -1.05454,-2.4074 -2.21211,-6.6271 -2.57237,-9.3771 -0.36025,-2.75 -1.04814,-6.125 -1.52865,-7.5 -0.4805,-1.375 -1.10416,-5.1313 -1.38592,-8.3473 -0.28175,-3.216 -1.03416,-6.4761 -1.67201,-7.2447 -0.63786,-0.7685 -0.93744,-2.2474 -0.66573,-3.2864 0.2717,-1.039 -0.16674,-5.4289 -0.97432,-9.7554 -1.48783,-7.9707 -1.68498,-22.4823 -1.01032,-74.3662 0.21188,-16.2944 0.65644,-23.1551 1.61185,-24.8753 1.00952,-1.8175 1.1687,-5.6915 0.67797,-16.5 -0.35272,-7.7686 -1.00633,-16.2883 -1.45248,-18.9326 -0.44614,-2.6444 -0.61608,-5.8285 -0.37763,-7.0758 0.23844,-1.2474 -0.21895,-6.2838 -1.01642,-11.1921 -0.79748,-4.9083 -1.52434,-10.6159 -1.61524,-12.6836 -0.0909,-2.0677 -0.62163,-5.8927 -1.17938,-8.5 -0.55775,-2.6073 -1.61109,-8.3406 -2.34074,-12.7406 -0.72966,-4.4 -2.47579,-10.475 -3.88029,-13.5 -9.7711,-21.0449 -13.18826,-31.1098 -17.82447,-52.5 -4.03722,-18.6266 -5.95876,-28.0469 -6.01739,-29.5 -0.0333,-0.825 -0.87919,-5.775 -1.87978,-11 -1.00059,-5.225 -2.13581,-12.875 -2.5227,-17 -0.38689,-4.125 -1.16418,-8.625 -1.7273,-10 -0.56312,-1.375 -1.13138,-5.65 -1.2628,-9.5 -0.13141,-3.85 -0.75547,-10.375 -1.38678,-14.5 -0.63131,-4.125 -1.32022,-9.5627 -1.5309,-12.0837 -0.21068,-2.5211 -1.10946,-6.3223 -1.99729,-8.4472 -0.88783,-2.1248 -1.38077,-4.4718 -1.09543,-5.2153 0.28534,-0.7436 0.0603,-5.7174 -0.50012,-11.0529 -1.61699,-15.3949 -2.17508,-21.6079 -2.06161,-22.9509 0.0581,-0.6875 0.0652,-2.6 0.0159,-4.25 -0.29299,-9.794 -0.22492,-13.1531 0.38501,-19 0.37293,-3.575 0.92058,-13.1621 1.217,-21.3046 0.29641,-8.1425 0.94756,-15.5675 1.447,-16.5 1.49669,-2.7944 3.01968,-10.7084 2.54004,-13.199 -0.24645,-1.2797 0.25203,-5.405 1.10774,-9.1672 0.85571,-3.7623 1.36043,-7.4005 1.1216,-8.0849 -0.23883,-0.6844 0.20453,-3.4241 0.98524,-6.08839 0.78072,-2.6643 1.58761,-8.0187 1.79309,-11.8988 0.20548,-3.88 0.82601,-8.2252 1.37897,-9.6559 1.48192,-3.8343 6.1117,-27.48655 6.1286,-31.30935 0.008,-1.81055 0.70778,-5.28273 1.55505,-7.71596 1.32256,-3.79818 2.46008,-8.65801 4.93316,-21.07594 1.23992,-6.22596 1.46459,-10.01999 2.01332,-34 0.38316,-16.74455 1.0423,-27.04508 1.91971,-30 0.7349,-2.475 1.33182,-5.4 1.32648,-6.5 -0.0106,-2.18755 1.6054,-12.12013 3.25398,-20 1.12745,-5.38895 1.85127,-11.50896 2.48371,-21 0.2199,-3.3 0.85235,-9.825 1.40544,-14.5 0.5531,-4.675 1.09364,-10.975 1.20121,-14 0.35861,-10.08464 -4.21572,-38.84548 -7.23665,-45.5 -1.51833,-3.34458 -5.63963,-15.48527 -6.44977,-19 -1.69237,-7.34215 -2.90361,-11.59408 -4.11828,-14.45676 -0.80671,-1.90121 -2.50682,-7.30121 -3.77802,-12 -1.2712,-4.69878 -2.77671,-9.89324 -3.34556,-11.54324 -1.43577,-4.16451 -3.34482,-14.40918 -6.14443,-32.97318 -2.25577,-14.9579 -4.55491,-14.81241 -7.47758,0.47318 -0.99904,5.225 -2.29207,10.4 -2.8734,11.5 -0.58133,1.1 -1.42277,4.25 -1.86988,7 -1.87285,11.51938 -2.53397,14.46089 -3.52792,15.69678 -0.57646,0.71677 -1.30146,2.87822 -1.61111,4.80322 -0.70893,4.40722 -2.09693,11.18032 -3.48378,17 -4.44723,18.66203 -4.57739,19.63107 -4.23085,31.5 0.82608,28.29277 0.75289,29.45594 -2.32788,37 -2.23311,5.46832 -2.93745,8.9693 -3.21892,16 -0.19818,4.95 -1.07136,12.825 -1.94041,17.5 -0.86906,4.675 -2.03836,12.30289 -2.59845,16.95087 -0.5601,4.64798 -1.3914,9.14798 -1.84734,10 -0.45594,0.85202 -1.15619,3.79913 -1.5561,6.54913 -1.24966,8.59329 -4.81213,21.64405 -8.46207,31 -0.42914,1.1 -1.32479,4.025 -1.99034,6.5 -0.66555,2.475 -1.84184,5.97777 -2.61398,7.78393 -0.77214,1.80616 -1.40389,3.67855 -1.40389,4.16086 0,0.48232 -1.575,4.24015 -3.5,8.35073 -1.925,4.11058 -3.49875,7.86319 -3.49722,8.33913 0.002,0.47594 -0.96944,2.89035 -2.1577,5.36535 -1.18827,2.475 -2.50613,5.22794 -2.9286,6.11764 -0.42246,0.88971 -1.29716,3.58971 -1.94378,6 -0.64661,2.4103 -2.65247,7.75736 -4.45745,11.88236 -1.80499,4.125 -3.99638,9.975 -4.86976,13 -0.87338,3.025 -2.9824,9.775 -4.68671,15 -1.70431,5.22505 -3.32476,10.62505 -3.60099,12.00005 -0.9262,4.6103 -2.63239,28.4499 -2.36179,32.99999 0.85014,14.2948 0.23743,29.1889 -1.56819,38.1202 -0.29134,1.4412 -0.70327,4.7501 -0.9154,7.3533 -0.45069,5.5308 -0.99728,6.3383 -3.31037,4.8903 -2.41095,-1.5093 -2.60684,-5.4467 -0.69789,-14.0271 1.18088,-5.3078 1.64899,-12.1422 1.6278,-23.766 -0.027,-14.7975 -0.26308,-16.98359 -2.53725,-23.49279 -2.90265,-8.308 -2.41903,-11.0832 2.36234,-13.5557 2.6272,-1.3586 3.04296,-2.1244 3.04296,-5.6051 0,-4.5503 1.82914,-12.93031 3.13596,-14.36715 0.47522,-0.5225 0.86404,-2.345 0.86404,-4.05 0,-1.705 0.39534,-3.5275 0.87854,-4.05 0.4832,-0.5225 1.86935,-4.20828 3.08034,-8.19063 1.21098,-3.98235 2.61564,-7.49641 3.12146,-7.80902 0.50581,-0.31261 0.91966,-1.42849 0.91966,-2.47973 0,-1.05124 1.06912,-4.28719 2.37583,-7.19098 1.3067,-2.9038 2.94101,-7.04111 3.6318,-9.19401 0.69078,-2.15291 2.74567,-7.18331 4.56642,-11.17868 1.82075,-3.99537 3.82026,-9.2089 4.44337,-11.58563 0.6231,-2.37673 2.89909,-7.78333 5.05775,-12.01467 2.15865,-4.23135 3.92483,-8.75385 3.92483,-10.05 0,-1.29616 0.38478,-2.78415 0.85506,-3.30665 1.94494,-2.16089 8.73627,-27.06847 10.21117,-37.45 0.42976,-3.025 1.27716,-7.525 1.88311,-10 0.60595,-2.475 1.32009,-8.775 1.58698,-14 0.26689,-5.225 0.89397,-10.85 1.39351,-12.5 1.56526,-5.1701 2.29292,-12.64898 2.21334,-22.74869 -0.0753,-9.56243 -0.0249,-9.78081 2.64001,-11.43003 4.50466,-2.78777 5.19492,-4.19407 4.52071,-9.21021 -0.34087,-2.53609 -1.18998,-5.51107 -1.88691,-6.61107 -1.98148,-3.12749 -0.57483,-25.52976 2.01504,-32.09155 0.84845,-2.14965 1.99303,-6.83345 2.54352,-10.40845 0.55049,-3.575 1.47832,-8.525 2.06185,-11 0.58352,-2.475 1.64755,-7.65 2.36451,-11.5 0.71697,-3.85 1.82473,-8.27966 2.46171,-9.84369 0.63697,-1.56403 1.21662,-4.71403 1.28811,-7 0.0715,-2.28597 0.59538,-5.05631 1.16421,-6.15631 0.56883,-1.1 1.37431,-3.575 1.78996,-5.5 0.41564,-1.925 1.47611,-6.425 2.35658,-10 0.88048,-3.575 1.96197,-8.10968 2.4033,-10.07706 0.44134,-1.96739 1.10804,-4.07154 1.48155,-4.67591 0.37352,-0.60436 0.91111,-5.74468 1.19465,-11.42293 0.28354,-5.67826 0.80397,-13.6991 1.15651,-17.8241 0.35255,-4.125 0.54601,-10.2 0.42992,-13.5 -0.11608,-3.3 0.22553,-9.34316 0.75915,-13.42925 1.05276,-8.06138 1.18352,-7.61385 -5.64766,-19.32913 -3.79787,-6.5132 -11.27354,-15.74162 -12.75185,-15.74162 -0.66718,0 -2.93686,1.36991 -5.04374,3.04424 -4.20369,3.34068 -7.94433,3.60547 -7.94433,0.56236 0,-1.23106 2.56779,-3.64529 7.34047,-6.9015 4.03726,-2.75446 7.83677,-6.17743 8.44336,-7.6066 1.50507,-3.54605 3.7531,-6.0985 5.37116,-6.0985 2.20643,0 1.53789,2.42375 -1.65499,6 -1.65,1.84812 -2.99763,3.61667 -2.99474,3.93011 0.006,0.67518 1.49966,2.99629 9.49054,14.75041 7.1585,10.52973 9.62068,14.90521 10.41307,18.50482 0.89521,4.0667 16.42537,20.4436 22.12592,23.33229 5.4307,2.75195 6.68562,4.16196 5.10811,5.73947 -2.22934,2.22934 -9.20941,-1.39257 -16.24765,-8.43081 -3.70143,-3.70144 -7.03053,-7.67716 -7.398,-8.83496 -0.36861,-1.16139 -1.34784,-1.96751 -2.18439,-1.7982 -1.17142,0.23708 -1.58494,2.12628 -1.81826,8.30687 -0.1661,4.4 -0.6174,11.825 -1.00289,16.5 -1.1722,14.2158 -1.13266,19.15906 0.21998,27.5 1.72139,10.61485 4.1796,22.03807 5.83859,27.13175 0.74013,2.27246 1.56944,5.98804 1.84291,8.25683 0.27347,2.26879 0.72731,4.49738 1.00853,4.95241 0.28123,0.45503 0.75449,2.13945 1.05169,3.74317 0.29721,1.60371 1.25155,5.39084 2.12076,8.41584 0.86921,3.025 1.99628,7.525 2.5046,10 0.91846,4.47195 2.85449,11.45444 5.52545,19.92814 0.76768,2.43548 1.41009,5.36048 1.42758,6.5 0.0175,1.13952 0.6925,2.94537 1.5,4.01299 0.80751,1.06762 1.4682,2.59172 1.4682,3.38688 0,2.53162 8.17902,18.60325 10.38165,20.39975 3.26382,2.66204 10.08001,2.27239 15.53049,-0.88779 11.77007,-6.82427 16.94723,-11.40706 23.8725,-21.13177 3.80243,-5.33951 8.77259,-13.5332 11.04481,-18.2082 2.27221,-4.675 5.46022,-10.75 7.08447,-13.5 1.62424,-2.75 2.98308,-5.70298 3.01963,-6.56217 0.0365,-0.85919 0.93725,-3.36453 2.00157,-5.56741 1.06432,-2.20288 2.22897,-5.17601 2.58811,-6.60695 0.35914,-1.43093 3.22201,-5.6756 6.36193,-9.43259 3.13993,-3.75698 6.72806,-8.50395 7.97364,-10.54882 3.42429,-5.62166 7.1412,-15.75062 7.1412,-19.46051 0,-2.37527 1.28217,-4.98516 4.57837,-9.31938 7.00941,-9.21676 11.28191,-16.83163 13.4609,-23.99127 2.35138,-7.72613 5.13986,-10.28426 10.70454,-9.82026 5.13198,0.42791 6.22321,3.03373 6.24145,14.90437 0.0128,8.34344 0.27805,9.8333 2.03334,11.42182 1.65894,1.50132 2.6822,1.66257 5.74303,0.90499 4.39388,-1.08752 4.93032,-2.64626 5.13537,-14.92182 0.0735,-4.4 0.46423,-8.49513 0.86831,-9.1003 1.34407,-2.01293 5.05666,-3.3997 9.10156,-3.3997 5.8289,0 6.5934,-3.84969 1.9629,-9.88486 -2.375,-3.09552 -2.3245,-6.35746 0.133,-8.58143 4.0561,-3.67073 7.3126,0.56853 4.6791,6.09111 -1.9922,4.1777 -2.0038,4.37518 -0.2571,4.37518 2.1315,0 2.9454,9.60044 1.2264,14.465 -1.5904,4.5004 -2.7505,5.27701 -4.5835,3.0683 -1.6116,-1.94178 -5.4403,-1.97779 -7.349,-0.0691 -0.8862,0.88625 -1.74151,4.59731 -2.16683,9.40206 -0.87141,9.8442 -3.65497,13.95803 -10.01184,14.79656 -5.30516,0.69979 -9.9814,-2.60862 -9.03226,-6.39028 0.34124,-1.3596 0.0871,-3.10398 -0.56704,-3.89217 -0.7967,-0.95997 -0.98607,-3.56324 -0.57748,-7.93876 0.52773,-5.65124 0.34553,-6.77284 -1.38055,-8.49892 -1.5346,-1.5346 -2.41941,-1.7579 -3.87621,-0.97824 -2.44305,1.30748 -6.06646,7.18362 -6.06646,9.83807 0,1.13654 -2.8125,6.17218 -6.25,11.1903 -7.5785,11.06324 -9.25597,14.17623 -10.78113,20.0072 -2.54879,9.74452 -11.18127,25.02191 -17.42614,30.84 -1.51219,1.40884 -3.34157,5.12671 -4.59723,9.34301 -1.14707,3.85165 -3.68651,9.91552 -5.64318,13.47526 -1.95668,3.55974 -5.45056,10.67538 -7.76417,15.81254 -3.74848,8.32315 -8.15897,15.36451 -18.08831,28.87802 -3.14611,4.28176 -14.90508,13.20116 -21.94984,16.64936 -2.3692,1.15965 -6.10645,1.96684 -9.16667,1.97985 -5.80034,0.0247 -6.43346,0.76469 -5.15195,6.02196 2.4164,9.91303 2.82281,33.70917 0.81979,48 -0.65525,4.675 -1.39553,10.525 -1.64507,13 -0.24953,2.475 -0.86706,5.85 -1.37229,7.5 -0.92736,3.0286 -1.24479,4.58738 -3.39196,16.65696 -1.74474,9.80748 -0.75826,12.02795 10.85748,24.43904 9.60266,10.26017 11.8646,12.15017 22.87694,19.11527 2.79249,1.7662 5.61436,4.2412 6.27081,5.5 2.01527,3.86442 4.11203,14.89902 4.33025,22.78873 0.11408,4.125 0.61611,9.3 1.1156,11.5 0.4995,2.2 0.91918,5.2375 0.93262,6.75 0.0202,2.2676 -0.41075,2.75 -2.4565,2.75 -1.74927,0 -2.63712,-0.66357 -3.01048,-2.25 -0.7209,-3.06311 -2.65481,-23.57505 -2.55123,-27.05961 0.15218,-5.11967 -3.3136,-10.94797 -9.33118,-15.69197 -12.39609,-9.77253 -19.25915,-15.9689 -22.12616,-19.97677 -5.82994,-8.14985 -7.28588,-9.59533 -8.48148,-8.42061 -0.68998,0.67794 -1.30654,7.21064 -1.60446,17 -0.70963,23.31773 -1.75289,34.75438 -4.36937,47.89896 -1.36666,6.86578 -1.61912,8.38537 -2.99042,18 -0.54911,3.85 -1.69532,9.925 -2.54712,13.5 -0.85181,3.575 -1.95574,9.09133 -2.45319,12.25853 -0.49745,3.1671 -1.34494,7.2171 -1.88331,9 -0.53837,1.7828 -1.70778,8.4165 -2.59869,14.7415 -1.97571,14.02649 -4.03338,27.53859 -6.01519,39.49999 -0.82014,4.95 -1.76615,13.725 -2.10224,19.5 -0.3361,5.775 -1.02082,12.3815 -1.5216,14.6811 -0.50078,2.2996 -0.71105,5.4496 -0.46728,7 0.24377,1.5504 0.68191,12.2998 0.97364,23.8877 0.47359,18.8111 1.02298,26.0157 3.04505,39.9312 0.68704,4.7281 3.22035,25.3398 3.37993,27.5 0.41102,5.564 3.40775,26.2672 5.13852,35.5 0.61862,3.3 1.51177,8.475 1.98479,11.5 0.47302,3.025 1.33911,7.525 1.92465,10 0.58554,2.475 1.33717,6.3 1.67029,8.5 2.27934,15.0534 6.94203,35.4486 9.37327,41 0.9635,2.2 2.04569,5.5342 2.40488,7.4094 0.35919,1.8751 2.1757,6.6001 4.03669,10.5 1.86099,3.8998 4.37491,9.5656 5.58648,12.5906 1.21157,3.025 2.66132,6.625 3.22167,8 0.56035,1.375 1.18329,4.75 1.38432,7.5 0.77891,10.6555 2.34031,24.4034 3.80474,33.5 0.84115,5.225 1.80489,14.225 2.14164,20 0.33676,5.775 0.92203,13.425 1.3006,17 0.43505,4.1084 0.17414,9.6275 -0.70912,15 -1.2975,7.8922 -1.54516,17.5667 -0.79356,31 0.16925,3.025 -0.14229,11.2736 -0.6923,18.3301 -1.17969,15.1353 0.63341,53.2897 3.0256,63.6699 0.82389,3.575 2.33765,10.325 3.36393,15 2.10421,9.5853 6.84818,25.5489 9.32301,31.3721 0.9051,2.1297 1.64563,4.655 1.64563,5.6117 0,1.4635 2.11991,6.767 7.00155,17.5162 0.49956,1.1 1.5945,4.25 2.43321,7 3.44367,11.2912 8.42369,24.4998 10.24087,27.1619 1.06552,1.5609 2.99173,6.4381 4.28047,10.8381 1.28874,4.4 3.10351,9.8 4.03282,12 0.92932,2.2 2.64943,6.25 3.82247,9 1.17304,2.75 2.87669,7.7 3.78588,11 0.90919,3.3 2.28916,7.2488 3.06659,8.7751 1.15145,2.2607 5.45882,20.9411 6.73873,29.2249 0.16996,1.1 0.86745,4.6436 1.54997,7.8746 2.2009,10.4188 1.57253,32.8769 -1.11454,39.8336 -1.24385,3.2203 -0.66256,10.0069 1.24775,14.5675 1.25404,2.9938 1.12082,4.0264 -1.54813,12 -1.60613,4.7984 -5.04683,13.2622 -7.64602,18.8086 -2.59918,5.5464 -5.23056,12.9714 -5.84752,16.5 -0.61696,3.5286 -1.53526,8.6657 -2.04066,11.4157 -0.50541,2.75 -1.21172,7.25 -1.56958,10 -0.35786,2.75 -1.27622,5.9957 -2.0408,7.2126 -1.30764,2.0813 -2.20511,7.2829 -2.33566,13.5374 -0.0539,2.5808 -0.33209,2.75 -4.52222,2.75 -5.19345,0 -5.7181,0.6538 -9.22913,11.5 -2.56622,7.9275 -2.35823,9.6996 1.336,11.3828 2.1203,0.966 3.04489,0.8971 4.98078,-0.3713 1.90262,-1.2467 2.37717,-2.43 2.37717,-5.9276 0,-5.104 2.24187,-6.7899 5.15002,-3.8728 1.6644,1.6695 1.68036,2.14 0.23906,7.0472 -1.11285,3.789 -2.50074,5.9878 -4.96675,7.8687 -3.51596,2.6818 -4.51941,5.373 -2.00337,5.373 0.78043,0 2.82945,0.7875 4.55339,1.75 3.0786,1.7188 3.1691,1.708 5.08104,-0.6108 1.07064,-1.2984 1.94661,-3.7999 1.94661,-5.5589 0,-4.4801 2.3125,-7.4275 4.69143,-5.9795 3.8618,2.3507 2.35495,8.0514 -4.94719,18.7165 -1.07148,1.5649 -0.8277,2.1543 1.75576,4.245 3.31968,2.6865 5.75134,3.0861 7.22622,1.1877 0.53411,-0.6875 2.44494,-4.85 4.24627,-9.25 3.95563,-9.6621 5.01881,-10.6893 8.45978,-8.1732 1.7443,1.2755 1.73282,1.5116 -0.29652,6.0992 -1.16108,2.6248 -3.69161,6.9255 -5.6234,9.5572 -4.7796,6.5111 -4.60523,8.3277 1.00501,10.4703 4.49379,1.7162 4.52727,1.713 6.41465,-0.6142 1.0435,-1.2866 2.42284,-4.1393 3.06521,-6.3393 0.64236,-2.2 2.57004,-5.7722 4.28372,-7.9382 2.12832,-2.6901 3.04505,-4.8666 2.89258,-6.8676 -0.2772,-3.638 1.3371,-5.6942 4.47036,-5.6942 1.5552,0 2.77982,0.8358 3.48169,2.3763 1.22624,2.6913 -0.14125,5.5168 -5.62557,11.6237 -7.77659,8.6594 -7.56036,11.4073 0.967,12.2894 6.37682,0.6597 9.36353,3.7222 8.75055,8.9728 -0.22956,1.9664 -1.27052,4.4909 -2.31326,5.6102 -1.76224,1.8915 -2.19577,1.9385 -6.15009,0.666 -13.04731,-4.1985 -13.39654,-4.2406 -14.1982,-1.7149 -0.62897,1.9818 1.62419,7.2512 3.91262,9.1505 2.08033,1.7265 11.69892,2.8005 15.10523,1.6866 1.60938,-0.5263 4.11163,-2.1817 5.56056,-3.6787 2.23411,-2.3082 2.7446,-3.9667 3.35965,-10.9149 0.39889,-4.5061 1.23841,-8.599 1.8656,-9.0952 7.28411,-5.7631 8.51868,-7.3688 11.67909,-15.1904 2.86127,-7.0813 3.33881,-9.4481 3.29537,-16.3325 -0.0289,-4.58 -0.60925,-9.0945 -1.34614,-10.4714 -1.54547,-2.8877 -2.04731,-45.2533 -0.57423,-48.4775 0.98922,-2.1652 1.66444,-7.2225 1.60216,-12 -0.0215,-1.65 0.21323,-4.0665 0.52165,-5.3699 0.49943,-2.1108 0.9655,-2.3057 4.2616,-1.7817 4.45948,0.7088 5.39006,0.1848 7.72293,-4.3484 3.65018,-7.0929 5.11728,-14.1168 4.17768,-20 -0.4832,-3.025 -0.8593,-6.6999 -0.8359,-8.1664 0.051,-3.2177 -1.374,-4.5449 -5.36387,-4.9951 -3.99824,-0.4511 -4.39503,-3.526 -1.09929,-8.5187 5.26826,-7.9809 7.20156,-18.8709 4.19066,-23.605 -2.93301,-4.6115 -7.58875,-22.5614 -7.59055,-29.2648 -4.5e-4,-1.6775 -0.53968,-3.5889 -1.19829,-4.2475 -0.6609,-0.6609 -1.37188,-4.8952 -1.58672,-9.45 -0.21409,-4.5389 -0.56196,-10.9525 -0.77303,-14.2525 -0.21108,-3.3 -0.53656,-19.95 -0.72328,-37 -0.29816,-27.2243 0.0856,-38.0028 1.6913,-47.5 0.23247,-1.375 0.6898,-6.0168 1.0163,-10.3151 0.32649,-4.2983 1.00867,-9.6983 1.51597,-12 0.79424,-3.6037 1.00139,-6.6506 1.3043,-19.1849 0.13141,-5.4374 -1.00567,-19.2999 -1.67144,-20.3771 -0.41607,-0.6733 -0.85531,-3.7888 -0.97609,-6.9235 -0.28553,-7.4103 -4.53555,-27.3226 -7.93974,-37.1994 -0.85305,-2.475 -2.08481,-7.2 -2.73724,-10.5 -0.65244,-3.3 -1.97764,-8.475 -2.94489,-11.5 -0.96725,-3.025 -2.32667,-7.975 -3.02095,-11 -1.56918,-6.837 -2.87359,-8.9957 -5.44757,-9.0153 -4.69312,-0.036 -5.01054,-1.2101 -2.74394,-10.151 1.16196,-4.5835 2.33134,-10.8087 2.59861,-13.8337 0.26727,-3.025 0.9866,-8.65 1.59851,-12.5 0.61191,-3.85 1.2749,-8.6565 1.47331,-10.681 0.19841,-2.0246 0.61526,-4.0928 0.92633,-4.5961 0.57187,-0.9254 0.71754,-30.9717 0.17925,-36.9729 -0.16034,-1.7875 -0.34777,-4.6 -0.41652,-6.25 -0.15865,-3.8077 -3.29157,-4.1246 -4.94305,-0.5 -1.28106,2.8116 -2.95719,3.2493 -3.82118,0.9978 -0.86281,-2.2485 0.35145,-5.9956 2.97172,-9.1707 2.8058,-3.3999 5.47223,-11.1614 7.32681,-21.3271 1.16534,-6.3877 2.15717,-46.9215 1.33358,-54.5 -0.11955,-1.1 -0.16972,-3.125 -0.1115,-4.5 0.0582,-1.375 -0.17805,-6.1 -0.52503,-10.5 -0.91491,-11.6015 -0.91219,-52.8078 0.004,-61 1.1019,-9.8525 1.64478,-15.9971 2.07623,-23.5 0.20559,-3.575 0.84799,-8.75 1.42757,-11.5 2.22806,-10.5718 3.41009,-18.2572 3.83763,-24.9519 0.24418,-3.8236 0.86117,-7.7315 1.37108,-8.6843 0.50992,-0.9528 0.92712,-4.1552 0.92712,-7.1166 0,-2.9613 0.70216,-7.7486 1.56035,-10.6385 1.19057,-4.0091 1.6053,-10.8148 1.75,-28.7179 0.15862,-19.6247 0.43507,-23.6189 1.68965,-24.412 2.66068,-1.6819 3,-1.0858 3.00027,5.2712 10e-4,30.1363 1.07928,48.8981 3.57663,62.25 1.44022,7.7 2.98278,16.25 3.42789,19 0.4452,2.75 1.3281,8.15 1.9621,12 1.4014,8.5107 1.9371,13.3088 4.4658,40 1.1408,12.0405 1.3957,23.9189 1.0302,48 -0.5915,38.9648 -0.5835,58.0255 0.026,62 2.1853,14.2497 3.7525,22.1415 4.5566,22.9456 0.5249,0.5249 0.9544,2.1578 0.9544,3.6287 0,4.7471 2.8463,10.9268 7.5903,16.4797 2.8334,3.3166 4.4074,6.0097 4.0526,6.9343 -0.9926,2.5866 -3.344,1.6769 -6.7362,-2.6061 -4.6379,-5.8558 -5.5291,-4.0474 -5.308,10.7704 0.4181,28.0132 2.6948,45.6484 7.4036,57.3474 1.2176,3.025 2.9675,8.425 3.8887,12 0.9211,3.575 2.4308,7.9079 3.3548,9.6286 1.5773,2.9374 1.5753,3.2213 -0.033,4.6468 -0.9421,0.8349 -2.595,1.6798 -3.6731,1.8774 -2.4484,0.4487 -2.5343,0.8261 -7.5961,33.3472 -1.4614,9.3889 -3.7854,52.0163 -3.3803,62 0.6585,16.2257 1.5205,25.4269 3.0699,32.7695 0.8392,3.9768 1.8756,9.9817 2.303,13.3442 0.4275,3.3626 1.0415,6.5414 1.3645,7.064 0.323,0.5226 0.8608,5.8714 1.1951,11.8862 0.3343,6.0149 1.0321,14.3111 1.5506,18.4361 2.4051,19.1339 3.865,64.751 2.5444,79.5 -1.3133,14.6658 -3.5999,26.2779 -6.363,32.3135 -2.2548,4.9251 -2.3705,5.8513 -1.3594,10.8859 0.6078,3.0266 2.6861,8.4801 4.6183,12.119 1.9323,3.6389 3.5132,6.9568 3.5132,7.3732 0,0.4164 -1.4625,1.5064 -3.25,2.4223 -4.0053,2.0522 -4.8826,3.3145 -4.0837,5.8758 0.3413,1.0943 0.5729,4.7889 0.5146,8.2102 -0.2053,12.0469 9.9063,28.4581 16.916,27.4548 2.4237,-0.3469 3.7884,1.9733 3.7507,6.3764 -0.019,2.1829 0.2644,8.0189 0.6291,12.9689 0.3647,4.95 0.7918,18 0.9491,29 0.2931,20.4948 1.1693,27.9881 4.0926,35 3.214,7.7091 10.2693,13.1448 15.5546,11.984 1.6099,-0.3536 2.9857,-0.2697 3.0574,0.1865 0.072,0.4562 0.1965,2.9127 0.2773,5.4588 0.081,2.5461 0.8097,5.4221 1.6197,6.3912 0.8099,0.9691 1.9368,3.385 2.504,5.3686 2.6763,9.3581 20.3912,11.4838 27.7684,3.3321 1.6916,-1.8692 1.6968,-2.0817 0.09,-3.6888 -1.9223,-1.9223 -3.6302,-1.7224 -11.0991,1.2991 l -5.2096,2.1074 -3.0404,-2.5583 c -3.3965,-2.8579 -3.7581,-5.0922 -1.5236,-9.4133 1.497,-2.8949 6.0336,-5.9673 8.811,-5.9673 1.8849,0 3.7414,-2.3048 2.8649,-3.5566 -0.381,-0.5443 -1.9815,-1.8107 -3.5567,-2.8142 -3.7087,-2.3628 -11.5038,-9.6297 -12.7427,-11.8792 -1.3507,-2.4527 0.6229,-5.75 3.4418,-5.75 2.879,0 4.6648,1.7765 4.6648,4.6405 0,1.4669 1.766,3.7284 5.1147,6.55 3.5264,2.9712 6.0884,6.328 8.25,10.8095 2.6241,5.4402 3.706,6.686 6.6353,7.6408 4.4783,1.4596 9.3505,-0.2567 9.8196,-3.459 0.2784,-1.9009 -0.1485,-2.1818 -3.3158,-2.1818 -7.1446,0 -9.2973,-3.1077 -5.5402,-7.998 1.9001,-2.4731 1.8981,-2.5203 -0.1965,-4.75 -1.1637,-1.2386 -2.674,-2.252 -3.3564,-2.252 -1.5998,0 -9.4107,-8.8497 -9.4107,-10.6622 0,-1.7593 4.3766,-3.791 6.4513,-2.9949 0.8683,0.3332 2.0035,1.7232 2.5227,3.0888 0.5192,1.3656 3.1,4.6586 5.735,7.3178 2.6351,2.6593 5.691,6.3748 6.791,8.2568 2.5913,4.4333 7.329,5.991 10.9685,3.6063 1.3924,-0.9123 2.5315,-2.3509 2.5315,-3.1969 0,-1.248 -0.8188,-1.4154 -4.3391,-0.8876 -3.3386,0.5007 -4.7222,0.2678 -6,-1.0101 -2.1954,-2.1954 -2.1115,-2.8291 0.8391,-6.3356 1.375,-1.6341 2.5,-3.2376 2.5,-3.5633 0,-0.3258 -1.6813,-1.2948 -3.7363,-2.1534 -7.4809,-3.1257 -10.8202,-8.7859 -5.9104,-10.0182 2.8249,-0.709 12.6439,6.0568 12.6456,8.7136 6e-4,0.9136 1.3856,2.8261 3.0778,4.25 4.8863,4.1115 9.9233,3.0399 9.9233,-2.1111 0,-2.3312 -2.3282,-3.196 -3.5,-1.3 -1.0197,1.65 -4.0696,1.133 -6.0182,-1.0201 -1.7769,-1.9635 -1.7632,-2.108 0.4909,-5.1568 l 2.319,-3.1366 -3.045,-2.5932 c -5.2148,-4.4413 -6.7451,-9.6048 -3.6161,-12.2017 1.406,-1.1669 1.8535,-1.0377 3.25,0.9384 0.8907,1.2604 2.6071,3.5017 3.8142,4.9808 l 2.1947,2.6892 3.1789,-3.1429 3.1789,-3.1428 -1.7782,-4.6562 c -1.6747,-4.385 -5.466,-8.5581 -7.7752,-8.5581 -0.57,0 -1.8641,0.749 -2.8756,1.6645 -1.726,1.562 -1.9931,1.5199 -4.3395,-0.6844 -2.0225,-1.9001 -2.3844,-2.9662 -1.8941,-5.5797 0.3333,-1.777 0.1475,-4.7315 -0.413,-6.5656 -0.5605,-1.8341 -2.231,-7.3848 -3.7123,-12.3348 -3.8783,-12.9599 -8.3164,-23.263 -12.492,-29 -2.0016,-2.75 -5.3335,-8.6 -7.4044,-13 -2.0708,-4.4 -4.1707,-8.675 -4.6664,-9.5 -1.2848,-2.1382 -2.8615,-5.7462 -5.0254,-11.5 -1.0343,-2.75 -2.3284,-5.15 -2.8758,-5.3333 -2.0163,-0.6752 -1.0544,-5.1937 1.2957,-6.0873 4.6106,-1.7529 5.0365,-3.2437 3.6598,-12.8101 -0.6941,-4.8231 -1.6168,-9.2351 -2.0505,-9.8043 -0.4336,-0.5693 -0.6079,-7.5443 -0.3872,-15.5 0.5173,-18.6518 0.8277,-21.9991 2.2854,-24.6493 0.6608,-1.2013 1.2014,-3.7545 1.2014,-5.6737 0,-3.531 0.6687,-7.2696 4.05,-22.642 1.0283,-4.675 2.6261,-12.55 3.5507,-17.5 0.9247,-4.95 3.1927,-13.6383 5.0402,-19.3073 1.8475,-5.6691 3.3591,-11.6522 3.3591,-13.2958 0,-1.6437 1.125,-5.1018 2.5,-7.6847 1.375,-2.583 2.5,-5.6452 2.5,-6.805 0,-2.064 1.3367,-6.9238 3,-10.9072 2.559,-6.1284 5.556,-17.0744 7.6662,-28 1.9935,-10.3209 1.8556,-9.6807 2.5848,-12 0.5795,-1.8431 1.0772,-7.4579 2.3044,-26 0.2549,-3.85 0.7446,-8.8 1.0883,-11 1.0054,-6.4349 0.5687,-33.4205 -0.6638,-41.019 -0.6228,-3.8396 -1.3266,-9.906 -1.564,-13.481 -0.2373,-3.575 -0.6921,-7.625 -1.0106,-9 -0.3185,-1.375 -0.7456,-7 -0.9491,-12.5 -0.2758,-7.4515 -1.0753,-12.1663 -3.137,-18.5 -3.0169,-9.2678 -3.555,-18.8302 -1.9414,-34.5 0.4531,-4.4 0.9157,-13.175 1.028,-19.5 0.1124,-6.325 0.5506,-14.2 0.9738,-17.5 1.3049,-10.1756 2.7603,-17.9532 3.5553,-19 0.7204,-0.9486 2.3946,-5.8211 7.0247,-20.4442 1.1222,-3.5443 2.0404,-7.2726 2.0404,-8.2852 0,-1.0125 0.6262,-2.8376 1.3916,-4.0558 0.7654,-1.2181 1.7075,-4.4648 2.0936,-7.2148 0.3861,-2.75 1.0533,-5.45 1.4828,-6 0.8059,-1.0322 1.8779,-5.7525 2.4982,-11 0.195,-1.65 0.8233,-5.025 1.3961,-7.5 1.9034,-8.2242 4.1435,-23.4511 3.9722,-27 -0.093,-1.925 0.1609,-5.3 0.564,-7.5 0.4031,-2.2 0.9813,-5.35 1.285,-7 1.0287,-5.5901 1.4692,-8.9882 1.6851,-13 0.1184,-2.2 0.4979,-4.675 0.8432,-5.5 0.3454,-0.825 0.9328,-5.325 1.3054,-10 0.7461,-9.3602 1.0817,-12.3741 2.4501,-22 2.0456,-14.3907 3.3288,-24.7547 3.6524,-29.5 0.34,-4.9839 0.6643,-7.733 2.4772,-21 0.768,-5.6203 2.2672,-38.3525 2.1527,-47 -0.09,-6.7655 -1.3412,-29.5742 -1.7834,-32.5 -0.291,-1.925 -1.1689,-10.1464 -1.9509,-18.2699 -0.782,-8.1234 -1.6923,-15.20749 -2.0229,-15.74239 -0.5978,-0.9672 -2.2213,-9.4573 -5.0321,-26.3142 -0.8095,-4.8546 -1.9192,-9.66254 -2.466,-10.6843 -0.5469,-1.02178 -0.9943,-2.95739 -0.9943,-4.30138 0,-1.34399 -0.675,-4.05912 -1.5,-6.03363 -0.825,-1.9745 -1.5025,-5.51696 -1.5056,-7.87212 0,-2.35517 -0.4333,-5.85712 -0.9561,-7.78212 -1.9515,-7.18597 -2.2913,-9.18322 -4.0827,-24 -0.6318,-5.225 -1.5544,-10.85423 -2.0503,-12.5094 -0.4959,-1.65517 -1.1276,-7.28017 -1.4039,-12.5 -1.1218,-21.19214 -2.3175,-28.20675 -5.3203,-31.20948 -1.4155,-1.41558 -4.9486,1.64266 -9.0487,7.83272 -2.539,3.83314 -8.1612,10.62629 -17.2404,20.83088 -6.2689,7.04588 -6.384,7.50664 -6.3882,25.55528 0,16.34846 -0.024,16.50293 -2.2538,16.81955 -1.2375,0.17575 -2.2591,-0.0493 -2.2703,-0.5 -0.011,-0.45075 -0.2946,-6.21955 -0.6299,-12.81955 -1.106,-21.77016 -0.7008,-23.26616 9.0753,-33.5 2.8896,-3.025 6.9802,-7.75 9.0901,-10.5 2.1099,-2.75 4.5837,-5.68771 5.4974,-6.52824 0.9137,-0.84053 3.3787,-3.99053 5.4779,-7 2.0991,-3.00947 4.4225,-5.83162 5.1631,-6.27145 1.5386,-0.9138 1.8033,-7.4462 0.4418,-10.90326 -0.4976,-1.26338 -1.3768,-4.77205 -1.9538,-7.79705 -0.5771,-3.025 -1.9937,-10.225 -3.148,-16 -4.2904,-21.46379 -5.1791,-30.07928 -5.1058,-49.5 0.039,-10.45 0.1934,-20.125 0.342,-21.5 0.2581,-2.38772 -0.022,-2.52599 -6.2298,-3.07862 -8.6099,-0.76644 -12.9877,-3.23662 -22,-12.41358 -4.125,-4.20038 -8.6199,-8.62047 -9.9887,-9.82243 -5.7669,-5.064 -8.9334,-8.91445 -15.5346,-18.89007 -11.8167,-17.85714 -14.3456,-22.2812 -17.5831,-30.75929 -1.7198,-4.50363 -4.5546,-10.06663 -6.2997,-12.36222 -3.8109,-5.01322 -12.5939,-22.80075 -12.5939,-25.50551 0,-1.05787 -0.675,-2.48359 -1.5,-3.16828 -0.825,-0.68469 -1.5,-1.66504 -1.5,-2.17855 0,-0.51352 -2.25,-3.71441 -5,-7.11309 -4.7164,-5.82896 -6.1823,-9.85964 -4.0622,-11.16992 0.5158,-0.31877 1.7533,0.59254 2.75,2.02513 0.9967,1.4326 3.7656,5.08562 6.153,8.11783 2.6672,3.38766 4.4378,6.72859 4.5927,8.66586 0.1386,1.73401 0.9977,4.59289 1.9092,6.35308 0.9115,1.76019 1.6573,3.74975 1.6573,4.42126 0,0.6715 0.6395,1.93135 1.421,2.79966 0.7816,0.86831 2.6551,4.05374 4.1634,7.07874 1.5083,3.025 3.763,6.4 5.0105,7.5 1.2474,1.1 3.2285,4.475 4.4024,7.5 3.0554,7.87341 12.9378,26.3542 14.5983,27.29969 0.7724,0.43983 1.4044,1.22273 1.4044,1.73977 0,2.82012 10.0674,15.79397 19.3688,24.96054 15.3788,15.156 19.0917,17.68074 27.435,18.6558 5.9535,0.69578 9.6331,-1.84081 10.6674,-7.35369 0.3851,-2.05315 1.2932,-4.87948 2.0178,-6.28073 0.7246,-1.40125 1.646,-4.7918 2.0475,-7.53455 0.4015,-2.74276 1.6347,-7.23683 2.7404,-9.98683 1.1057,-2.75 2.4061,-7.025 2.8897,-9.5 2.3622,-12.08886 4.5884,-21.79451 5.2413,-22.85088 0.834,-1.34953 1.7796,-6.80178 2.0202,-11.64912 0.1092,-2.2 0.7293,-5.575 1.3779,-7.5 1.2895,-3.8271 1.7478,-6.48207 3.1933,-18.5 0.5292,-4.4 1.3989,-9.575 1.9325,-11.5 0.9029,-3.25728 1.403,-6.32294 2.6917,-16.5 0.2785,-2.2 0.6872,-14.0125 0.9082,-26.25 0.3851,-21.33107 0.3232,-22.25 -1.4976,-22.25 -1.0446,0 -2.1765,0.87331 -2.5153,1.94069 -0.8946,2.81878 -11.1127,17.9653 -14.8815,22.05931 -7.2929,7.92211 -13.1342,11.26379 -17.8873,10.2329 -3.0868,-0.66948 -2.0744,-3.91802 1.4402,-4.62093 1.7545,-0.35091 5.7642,-2.30473 8.9104,-4.34181 5.2539,-3.40187 6.2733,-4.71809 12.5059,-16.14699 3.7321,-6.84377 7.7257,-13.45753 8.8746,-14.69726 1.1489,-1.23972 2.5699,-3.30521 3.1576,-4.58998 3.851,-8.41785 5.9525,-12.12607 10.3666,-18.29237 2.7388,-3.82605 6.1987,-7.92842 7.6885,-9.11639 l 2.7089,-2.15995 -6.2014,-5.74132 c -6.548,-6.0623 -7.9532,-9.5259 -3.8648,-9.5259 1.6557,0 4.0593,2.021 8.25,6.93695 3.7552,4.40505 8.1947,8.27193 12.1635,10.59456 6.0504,3.54078 7.724,5.96564 4.8727,7.05979 -0.7575,0.29068 -2.895,-0.39676 -4.75,-1.52765 -1.855,-1.1309 -4.1418,-2.05786 -5.0819,-2.05991 -3.8739,-0.008 -10.8257,5.56412 -15.5226,12.44292 l -4.7682,6.98317 0.12,9.53508 c 0.4111,32.67838 1.7654,54.82224 3.5664,58.31722 0.5051,0.98017 1.5653,5.48017 2.3561,10 0.7907,4.51983 2.1027,11.14287 2.9155,14.71787 0.8128,3.575 1.9912,9.2 2.6187,12.5 0.6274,3.3 1.9919,8.10842 3.0321,10.68538 1.0402,2.57696 1.8912,5.40426 1.8912,6.28289 0,1.47579 7.1437,24.47727 9.0166,29.03173 3.9379,9.57648 7.0186,36.4038 4.9918,43.47068 -0.5098,1.77782 -0.4832,3.23585 0.065,3.57485 0.5095,0.31488 0.9264,1.93435 0.9264,3.59882 0,2.20176 0.9536,3.87059 3.5,6.12498 2.3118,2.04677 3.5,3.98328 3.5,5.70457 0,1.43325 0.7307,5.28795 1.6237,8.566 1.7809,6.53705 3.5359,15.15718 5.896,28.9601 2.0038,11.71927 3.105,17.20431 4.3165,21.5 0.5429,1.925 2.1025,7.55 3.4657,12.5 3.5544,12.9066 7.4788,24.26993 10.2747,29.75052 1.3328,2.61279 2.4234,5.32977 2.4234,6.03773 0,0.70796 1.5012,4.87023 3.3361,9.24948 1.8349,4.37925 4.3625,10.43727 5.6168,13.46227 2.8852,6.95795 5.1371,12.04847 8.4048,19 1.422,3.025 2.8809,6.77274 3.2419,8.32831 0.3611,1.55556 1.7239,5.04086 3.0284,7.74509 1.3046,2.70424 2.372,5.62233 2.372,6.48465 0,0.86232 1.0852,3.90202 2.4116,6.7549 3.8109,8.19665 9.5884,26.87287 9.5884,30.99519 0,3.72111 0.7376,4.53681 4.618,5.10631 3.1085,0.4562 3.8954,3.0107 2.7045,8.7788 -1.5802,7.6536 -0.6575,32.21659 1.6228,43.20259 2.8207,13.5889 3.0025,14.6375 3.5722,20.6042 0.7069,7.4041 1.9231,8.177 11.9657,7.6047 4.4092,-0.2513 9.2239,-0.9174 10.6992,-1.4804 4.4752,-1.7074 21.7304,-2.4214 30.0527,-1.2434 8.7844,1.2433 14.8324,3.7612 19.6881,8.1962 5.3121,4.8518 2.6801,5.812 -5.59,2.0393 -6.0683,-2.7684 -8.3568,-3.2134 -20.4447,-3.9759 -10.8449,-0.6841 -14.91,-0.558 -20,0.6205 -3.5137,0.8136 -9.8394,1.7627 -14.0572,2.1091 -4.2177,0.3464 -7.9139,0.8761 -8.2137,1.1769 -1.2624,1.2671 3.701,14.5882 6.5479,17.5735 2.7634,2.8978 2.9549,3.5851 2.6834,9.6304 -0.3607,8.0331 0.7963,9.7491 6.5735,9.7491 2.2977,0 4.7101,0.5325 5.3609,1.1833 1.6288,1.6288 2.4389,0.5266 2.7809,-3.7835 0.3292,-4.1494 -1.2739,-7.3998 -3.6498,-7.3998 -0.8825,0 -2.4438,-0.9275 -3.4697,-2.061 -3.3673,-3.7209 0.2285,-4.5694 13.8954,-3.2789 7.7919,0.7358 9.1335,2.1424 5.6155,5.8872 -2.1074,2.2432 -2.1799,2.6654 -0.8766,5.1044 0.7816,1.4625 1.3519,4.8686 1.2675,7.5691 -0.1339,4.2875 0.151,5.0488 2.2471,6.0038 1.7553,0.7998 3.4404,0.7822 6.2695,-0.065 2.1279,-0.6376 4.8027,-1.1592 5.9439,-1.1592 3.1121,0 3.5535,-1.6705 1.3918,-5.2682 -1.0681,-1.7775 -2.2604,-4.5773 -2.6496,-6.2218 -0.794,-3.3544 -2.0734,-4.4722 -5.1442,-4.4947 -1.936,-0.014 -6.2479,-3.572 -5.3156,-4.386 1.9983,-1.7445 6.1664,-2.7402 13.7131,-3.2759 10.0985,-0.7168 11.894,0.2118 8.1385,4.2094 -2.1183,2.2548 -2.1833,2.6969 -0.981,6.676 0.7081,2.3436 1.7267,5.7538 2.2634,7.578 1.2791,4.3478 4.6924,5.977 9.147,4.3662 1.7994,-0.6506 4.6756,-1.183 6.3916,-1.183 7.6112,0 3.4559,5.9844 -4.6994,6.768 -2.8074,0.2698 -5.3394,0.8709 -5.6267,1.3358 -0.2874,0.4649 0.5888,3.2192 1.9471,6.1207 1.3582,2.9015 2.7237,6.4005 3.0344,7.7755 1.0978,4.8581 2.0628,5.4417 8.5729,5.1846 3.3599,-0.1327 6.5379,0.024 7.0621,0.3478 1.9534,1.2073 -1.059,4.2929 -4.8098,4.9266 -6.5584,1.1081 -6.8184,1.6308 -3.8899,7.8212 3.9109,8.2669 9.1186,12.0111 14.0655,10.1128 2.0776,-0.7972 1.9867,-3.2479 -0.4785,-12.893 -1.1245,-4.4 -2.4979,-9.8 -3.052,-12 -0.554,-2.2 -1.6048,-7.375 -2.335,-11.5 -1.3158,-7.433 -2.8515,-12.6424 -4.8643,-16.5 -2.5386,-4.8653 -3.7283,-7.3056 -5.7672,-11.8297 -1.2352,-2.7405 -3.2029,-5.2971 -4.549,-5.9105 -5.9242,-2.6992 -0.4148,-7.1216 8.1855,-6.5706 l 4.8501,0.3108 1.1579,6.4289 c 1.7612,9.7783 5.1775,11.7409 14.7562,8.4771 5.3896,-1.8364 5.7857,-3.2651 2.2066,-7.9576 -1.3594,-1.7822 -2.7692,-5.1997 -3.133,-7.5944 -0.3638,-2.3947 -1.2174,-5.029 -1.897,-5.854 -0.6795,-0.825 -1.5177,-3.3 -1.8626,-5.5 -1.8474,-11.7829 -2.4436,-13.6899 -5.1698,-16.5354 -2.8487,-2.9734 -7.1032,-3.9251 -9.0161,-2.0169 -1.9822,1.9774 -13.8565,2.3668 -19.768,0.6482 -6.327,-1.8393 -22.9067,-3.6579 -26.7136,-2.9302 -3.2472,0.6208 -7.9684,-1.2194 -7.9684,-3.1058 0,-0.8192 0.9354,-1.9902 2.0788,-2.6021 2.7876,-1.4918 22.2883,-0.9982 27.4212,0.6942 7.5525,2.4902 28.5,1.0595 28.5,-1.9465 0,-0.4442 -1.4625,-1.4477 -3.25,-2.23 -1.7875,-0.7824 -4.5516,-2.7735 -6.1425,-4.4248 -2.4397,-2.5324 -2.6902,-3.2461 -1.6004,-4.5593 1.9211,-2.3147 12.0308,-0.9491 19.478,2.6312 3.3562,1.6135 7.6526,2.8774 9.7814,2.8774 4.4,0 5.8522,2.1063 3.3548,4.866 -3.4546,3.8172 -1.0605,10.031 6.496,16.8603 4.7475,4.2906 8.8373,6.2737 12.9385,6.2737 3.8513,0 4.4292,-1.425 1.9421,-4.789 -2.2774,-3.0803 -2.4374,-4.3528 -1.4291,-11.3622 0.5891,-4.0956 0.4143,-4.7875 -1.4639,-5.7927 -1.175,-0.6288 -3.608,-0.8647 -5.4174,-0.5253 -2.3813,0.4467 -3.9066,0.1124 -5.5472,-1.2161 -2.9425,-2.3827 -1.9992,-4.8747 2.4551,-6.4854 1.8725,-0.6771 3.4046,-1.6486 3.4046,-2.159 0,-0.5103 -1.5917,-2.6898 -3.5372,-4.8431 -1.9454,-2.1534 -4.264,-5.5829 -5.1524,-7.6212 -3.053,-7.00499 -5.808,-12.20599 -6.4654,-12.20599 -0.9198,0 -17.813,-14.9945 -25.9313,-23.0168 -5.6802,-5.613 -7.9243,-7.0827 -14.2358,-9.3233 -4.5827,-1.62727 -9.5905,-2.66035 -12.8942,-2.66035 -8.6533,0 -11.8858,-4.4899 -5.0921,-7.07285 5.1413,-1.95473 5.4517,-2.73978 2.7659,-6.99446 -1.3517,-2.14112 -2.4575,-4.80409 -2.4575,-5.91772 0,-1.11363 -1.125,-4.35679 -2.5,-7.20703 -1.375,-2.85023 -2.5,-6.25261 -2.5,-7.56083 0,-1.30823 -0.4921,-3.29811 -1.0936,-4.42196 -2.0403,-3.81229 -8.3386,-26.59319 -10.4576,-37.82515 -0.7782,-4.125 -2.3513,-12 -3.4958,-17.5 -1.1445,-5.5 -2.6988,-14.36161 -3.4541,-19.69246 -0.7553,-5.33085 -1.8068,-11.26301 -2.3369,-13.18256 -0.53,-1.91956 -0.7474,-3.70637 -0.483,-3.97069 0.5086,-0.50861 -1.2305,-13.22925 -2.7932,-20.4307 -0.5739,-2.64479 -0.5708,-4.94388 0.01,-6.02582 0.5834,-1.09004 0.5796,-2.3868 -0.01,-3.44048 -0.5205,-0.93008 -1.139,-3.39346 -1.3744,-5.47417 -2.2809,-20.15923 -2.8647,-23.32953 -8.573,-46.56067 -2.1084,-8.58047 -9.5124,-24.825 -13.7979,-30.27323 -1.1763,-1.49542 -2.154,-3.22075 -2.1727,-3.83408 -0.018,-0.61333 -0.9031,-2.91514 -1.9658,-5.11514 -1.0627,-2.2 -1.9474,-4.55046 -1.966,-5.22325 -0.019,-0.67279 -0.8995,-3.14779 -1.9574,-5.5 -3.003,-6.6771 -7.0766,-20.38189 -7.0766,-23.80759 0,-1.70535 -0.4284,-3.90116 -0.952,-4.87958 -0.9268,-1.73172 -1.5344,-8.14513 -2.5188,-26.58958 -0.5661,-10.60651 -2.33,-25.27792 -5.5303,-46 -0.5096,-3.3 -1.2136,-7.94928 -1.5644,-10.33173 -0.3509,-2.38246 -1.2388,-5.49 -1.9733,-6.90566 -0.7344,-1.41566 -1.6281,-5.54138 -1.986,-9.16827 -0.9949,-10.08354 -2.324,-13.09892 -8.297,-18.82443 -4.5626,-4.37359 -5.2525,-5.47537 -4.2131,-6.72785 1.4877,-1.79258 4.2775,-1.52277 6.7404,0.65188 1.218,1.07544 2.4688,1.32719 3.8931,0.78354 1.6936,-0.64641 2.3256,-2.2172 3.2748,-8.13924 1.7361,-10.83048 2.0604,-33.50143 0.5637,-39.39619 -0.6888,-2.7126 -1.0401,-5.27531 -0.7808,-5.69492 0.6379,-1.03212 -1.3622,-14.29828 -3.7528,-24.89194 -1.0729,-4.75464 -3.7402,-12.30644 -5.9271,-16.78177 -2.187,-4.47533 -3.9764,-8.60945 -3.9764,-9.18693 0,-0.57748 -1.5706,-3.72976 -3.4902,-7.00508 -1.9196,-3.27531 -3.7435,-6.9645 -4.0531,-8.19821 -1.299,-5.17551 -13.3067,-14.34066 -22.5987,-17.24889 -12.1276,-3.79575 -14.1762,-4.5649 -22.0913,-8.2943 -9.1936,-4.3318 -10.5332,-4.69708 -24.2542,-6.61349 -8.284,-1.15702 -11.3585,-2.18924 -22.1461,-7.43504 -6.8896,-3.35031 -13.0755,-6.09148 -13.7465,-6.09148 -0.6709,0 -1.6474,-0.39337 -2.1699,-0.87415 -0.5225,-0.48078 -5.9,-2.51375 -11.95,-4.51771 -10.0552,-3.33063 -15.4822,-5.48588 -19.5,-7.74411 -0.825,-0.46369 -3.3,-1.80585 -5.5,-2.98257 -6.8801,-3.67995 -25.8672,-16.50335 -28.8165,-19.4619 -2.2335,-2.24052 -3.165,-2.60655 -4.5,-1.76826 -1.6868,1.05921 -4.6086,7.54521 -5.6215,12.47921 -0.5577,2.71639 -3.4193,4.19372 -5.5603,2.87053 -1.3386,-0.82733 1.0911,-8.93338 5.6045,-18.69788 2.2079,-4.7767 2.4196,-6.59503 2.6188,-22.49191 0.1934,-15.43338 0.038,-17.32954 -1.4453,-17.61517 -1.8634,-0.35886 -11.1614,7.64044 -20.3171,17.47938 -8.6855,9.33362 -14.02239,10.83424 -37.09956,10.43161 -5.22317,-0.0911 -6.81876,-0.591 -10.71571,-3.35707 -8.7235,-6.19198 -19.17507,-14.54819 -25.1473,-20.10571 -7.48706,-6.96716 -9.53415,-7.26827 -9.4789,-1.39429 0.022,2.3375 0.0509,7.4 0.0642,11.25 0.0553,15.97037 2.31967,26.96154 7.67247,37.24147 1.58806,3.04984 1.58599,3.34333 -0.035,4.96429 -1.52824,1.52824 -1.89152,1.5541 -3.21668,0.22895 -0.82162,-0.82163 -1.6688,-2.99635 -1.88261,-4.83273 -0.77088,-6.62084 -3.21838,-5.87846 -10.22875,3.1026 -2.74781,3.52027 -12.81516,10.15068 -17.89477,11.7856 -2.2,0.70809 -5.23908,2.15674 -6.75352,3.21923 -1.51444,1.06249 -7.99664,3.73048 -14.40489,5.92887 -6.40825,2.1984 -13.49416,4.8292 -15.74648,5.84623 -7.74092,3.49542 -13.8505,6.01549 -14.58374,6.01549 -0.40392,0 -4.05921,1.86947 -8.12288,4.15438 -14.63227,8.22739 -18.06082,9.84936 -22.192,10.4985 -5.60908,0.88136 -12.15583,3.75085 -16.61471,7.28235 -2.00823,1.59055 -8.0472,4.6945 -13.41993,6.89768 -15.74176,6.45517 -22.84259,14.51578 -33.18208,37.66709 -1.47379,3.3 -3.75966,8.33417 -5.0797,11.18705 -1.32004,2.85288 -2.40007,5.67148 -2.40007,6.26357 0,0.59208 -0.41404,1.85791 -0.92009,2.81295 -6.54842,12.35849 -9.87655,39.00361 -8.06455,64.56518 1.61486,22.78055 2.22796,25.67125 5.44468,25.67125 3.59032,0 3.86261,1.43573 1.05648,5.57079 -2.26234,3.33375 -3.06077,7.05209 -2.77626,12.92921 0.0532,1.1 -0.52574,4.7 -1.28665,8 -2.79619,12.12691 -3.97716,21.06509 -4.83523,36.59532 -0.17003,3.07742 -0.55734,6.00242 -0.86069,6.5 -0.68294,1.12019 -0.36554,27.13016 0.33967,27.83537 0.69623,0.69624 0.32087,14.13436 -0.53658,19.20955 -0.59908,3.54591 -0.34773,4.4866 1.82526,6.8313 1.60536,1.73221 2.7428,4.40855 3.13385,7.37379 0.6569,4.98114 2.12514,13.07116 3.11336,17.15467 0.33276,1.375 0.94192,5.65 1.3537,9.5 0.80612,7.53688 3.63988,15.12208 6.54315,17.51416 1.40511,1.15772 4.8929,1.48584 15.79371,1.48584 14.86264,0 17.02633,0.73011 11.97404,4.0405 -2.30229,1.50852 -4.96583,1.8309 -15.60851,1.8892 l -12.8325,0.0703 -3.2153,-3.5 c -4.57562,-4.98077 -10.98597,-9.87551 -14.56935,-11.12468 -1.97747,-0.68936 -3.07215,-1.74875 -3.07215,-2.97315 0,-2.11549 1.49402,-2.3204 7.22048,-0.99028 4.95194,1.15021 6.49041,-0.49923 4.79513,-5.141 -2.0076,-5.49688 -4.01561,-16.00824 -4.01561,-21.02052 0,-7.88707 -2.45609,-6.12478 -5.57426,3.99963 -1.48217,4.8125 -2.99222,9.2 -3.35566,9.75 -0.82479,1.24818 -4.66449,11.14061 -5.6281,14.5 -0.39441,1.375 -1.5552,3.57319 -2.57954,4.88486 -1.02434,1.31167 -1.86244,2.98584 -1.86244,3.72036 0,0.73453 -1.07821,3.71135 -2.39603,6.61514 -2.95009,6.50049 -7.49571,19.07202 -8.59826,23.77964 -0.45084,1.925 -1.31157,5.07203 -1.91271,6.9934 -0.60115,1.92137 -1.09955,4.84637 -1.10755,6.5 -0.008,1.65363 -0.63613,4.8066 -1.39584,7.0066 -0.75971,2.2 -1.66498,6.13151 -2.01173,8.73669 -0.34674,2.60518 -0.83849,5.30518 -1.09277,6 -0.25429,0.69482 -0.89589,4.18831 -1.42578,7.76331 -1.00201,6.76017 -2.68266,16.68511 -3.55607,21 -0.27832,1.375 -0.76407,6.08492 -1.07943,10.46649 -0.31537,4.38158 -0.80701,8.34449 -1.09253,8.80648 -0.6079,0.98359 -1.64836,7.62984 -3.79274,24.22703 -1.7227,13.33356 -1.77191,13.67445 -4.61868,32 -1.74443,11.22945 -2.5683,17.4445 -4.37452,33 -0.31028,2.6722 -1.05622,5.16921 -3.5848,12 -0.40719,1.1 -1.28641,4.025 -1.95383,6.5 -3.14963,11.67985 -7.63737,18.11945 -15.32633,21.99225 -1.55078,0.7811 -5.82577,4.7585 -9.499992,8.8387 -3.67423,4.0801 -9.38041,9.4398 -12.68041,11.91039 -7.77334,5.8197 -15.67801,14.2719 -18.52594,19.8091 -1.24193,2.4148 -4.21915,6.2285 -6.61605,8.4751 -4.93001,4.6207 -5.32767,6.3307 -2.10801,9.0642 l 2.25,1.9103 -2.36078,2 c -1.29843,1.1 -3.22207,2 -4.27475,2 -2.63404,0 -4.1289,4.4419 -3.36474,9.998 0.52744,3.835 0.22654,5.1263 -1.93766,8.3154 -1.40914,2.0765 -2.56207,4.4001 -2.56207,5.1636 0,3.2548 8.23871,2.8926 15.33151,-0.6741 3.05322,-1.5353 4.44671,-3.2414 6.86011,-8.3987 2.90939,-6.2172 3.03198,-7.4802 1.27566,-13.142 -0.52047,-1.6779 -0.22788,-2.393 1.16927,-2.8578 1.0249,-0.341 4.11345,-1.6461 6.86345,-2.9002 3.21754,-1.4674 7.78128,-2.4723 12.80181,-2.819 l 7.8018,-0.5388 -0.3018,4.6768 c -0.29079,4.5061 -0.42912,4.695 -3.79045,5.1768 -2.1319,0.3055 -3.60796,1.1243 -3.79544,2.1052 -0.53699,2.8096 4.66745,5.1877 12.445832,5.6869 7.73901,0.4966 7.19972,0.688 26.67186,-9.4644 2.29152,-1.1947 6.97889,-2.7082 10.41639,-3.3632 4.96638,-0.9464 6.25,-1.5683 6.25,-3.028 0,-1.0104 -0.70308,-2.2306 -1.56241,-2.7115 -0.85932,-0.4809 -2.60817,-3.7657 -3.88632,-7.2997 -1.27815,-3.5339 -2.98022,-6.5573 -3.78238,-6.7187 -0.80215,-0.1614 -2.99081,1.5576 -4.86368,3.8201 -1.87286,2.2625 -7.00521,7.8728 -11.40521,12.4674 -8.03072,8.3858 -12.22511,10.7998 -15.34526,8.8317 -2.85064,-1.7981 -2.29186,-3.1716 2.07653,-5.1039 4.90388,-2.1692 14.76873,-8.989 14.76873,-10.21 0,-0.4402 1.38817,-2.2864 3.08483,-4.1027 1.69666,-1.8163 4.34704,-5.8027 5.88973,-8.8588 3.84196,-7.6109 6.33936,-10.5277 8.35254,-9.7551 1.21899,0.4677 1.61905,1.8549 1.56223,5.4167 -0.1,6.2668 7.53268,22.6953 12.61899,27.1612 3.20008,2.8097 4.99298,3.5342 14.41333,5.8248 4.36208,1.0606 5.02379,2.992 1.48591,4.3371 -4.50903,1.7144 -13.03025,-0.6295 -17.6214,-4.847 -2.03953,-1.8736 -3.03964,-2.2226 -4.025,-1.4048 -0.72114,0.5984 -3.77491,1.4034 -6.78616,1.7887 -6.07513,0.7775 -15.64921,3.9704 -17.99058,6 -0.83357,0.7225 -4.65857,2.794 -8.5,4.6034 -8.06552,3.7989 -13.14636,4.1827 -19.204892,1.4506 -8.54676,-3.854 -11.65061,-0.1089 -11.49846,13.874 0.0359,3.3 0.21235,7.293 0.39211,8.8733 0.23362,2.0539 -0.24354,3.1946 -1.67318,4 -2.46546,1.3889 -3.52119,2.7834 -2.88571,3.8116 0.26528,0.4292 -1.09263,4.9854 -3.01758,10.1249 -1.97823,5.2817 -3.26086,10.2585 -2.95011,11.4468 0.30238,1.1563 -0.11203,3.3716 -0.92092,4.9229 -2.71278,5.2025 -3.71091,9.216 -5.6753,22.8205 -1.58611,10.9846 -1.42539,12.4069 1.52883,13.5301 3.37498,1.2832 4.53278,0.5153 8.79628,-5.8338 4.75106,-7.0751 4.87034,-8.4025 0.87377,-9.7234 -3.61003,-1.1931 -5.95169,-3.1038 -4.98666,-4.0688 0.3461,-0.3461 2.77546,-0.774 5.39859,-0.9508 4.82919,-0.3256 7.30416,-2.137 7.37062,-5.3944 0.0175,-0.8574 0.69249,-2.4324 1.5,-3.5 2.61209,-3.4535 1.88452,-5.5589 -1.92102,-5.5589 -4.17255,0 -8.89086,-3.4459 -6.69617,-4.8904 0.77804,-0.5121 3.71666,-0.6935 6.53027,-0.4031 7.23281,0.7465 8.03979,-0.5078 8.11376,-12.6106 l 0.0586,-9.5959 6.441352,0.3423 c 8.33034,0.4428 9.83057,1.5906 6.61629,5.0624 -3.80552,4.1104 -4.70264,7.4247 -9.569322,35.3533 -0.55184,3.1668 -1.70136,6.7545 -2.55448,7.9725 -0.85312,1.218 -1.55113,3.1869 -1.55113,4.3754 0,2.5531 2.29262,3.3609 9.595012,3.3804 6.12726,0.016 7.87755,-1.5527 8.90799,-7.9863 0.39642,-2.475 1.34541,-6.0175 2.10887,-7.8721 2.11051,-5.127 1.80762,-6.1261 -1.86188,-6.1416 -4.71439,-0.02 -7.5271,-0.9631 -8.21469,-2.7549 -0.88149,-2.2971 1.24712,-3.1988 7.59225,-3.2161 3.269,-0.01 6.05875,-0.5392 6.6564,-1.2653 0.56587,-0.6875 1.17073,-4.7043 1.34413,-8.9263 0.25326,-6.1661 -0.0234,-8.0506 -1.4064,-9.5787 -0.94693,-1.0464 -1.72169,-2.8214 -1.72169,-3.9445 0,-1.7948 0.84279,-2.1251 6.95997,-2.7279 9.71467,-0.9573 14.3655,1.8324 7.44289,4.4643 -1.64951,0.6272 -2.40286,1.6945 -2.40286,3.4044 0,1.37 -0.63175,3.9686 -1.40389,5.7748 -2.34399,5.4829 -3.88248,11.5115 -3.21384,12.5934 0.34762,0.5625 0.20235,2.1528 -0.32283,3.5342 -0.52518,1.3813 -1.214,4.6815 -1.53071,7.3339 -0.31671,2.6523 -0.98485,6.3974 -1.48477,8.3224 -0.49992,1.925 -1.14285,4.4 -1.42874,5.5 -0.83248,3.203 -3.76991,15.7069 -4.13387,17.5968 -0.183,0.9503 0.53566,2.5136 1.59703,3.4741 2.74584,2.485 6.17831,0.6706 9.93347,-5.2506 4.2103,-6.639 3.98719,-8.9407 -1.01185,-10.4384 -5.04535,-1.5117 -5.16554,-3.6119 -0.25,-4.3685 8.3678,-1.2881 8.61007,-1.4971 9.88858,-8.5305 0.64814,-3.5656 1.49567,-7.4899 1.88339,-8.7207 0.72962,-2.3162 0.47793,-2.5205 -4.52197,-3.6698 -4.35566,-1.0013 -5.5696,-2.2012 -4.06325,-4.0162 0.89084,-1.0734 3.00474,-1.5762 6.62668,-1.5762 5.45142,0 6.7318,-0.8059 7.14931,-4.5 0.12432,-1.1 0.52171,-4.6017 0.88309,-7.7815 0.53702,-4.7254 0.33777,-6.1344 -1.09067,-7.7128 -3.35214,-3.7041 0.27914,-6.0263 9.36984,-5.992 7.47056,0.028 10.65262,2.5632 6.20509,4.9434 -1.05596,0.5652 -2.4466,2.6234 -3.09033,4.5739 -1.6142,4.8911 -0.13574,6.469 6.06126,6.469 6.30571,0 7.92959,-1.657 7.65951,-7.8156 -0.11496,-2.6212 0.53083,-6.5325 1.4396,-8.7191 0.90646,-2.1809 2.8185,-6.8075 4.24898,-10.2812 2.54899,-6.1899 3.4333,-13.5516 1.75265,-14.5903 -0.46654,-0.2883 -4.2025,0.3875 -8.30213,1.5019 -7.42548,2.0185 -7.49005,2.0188 -16.94315,0.088 -12.29524,-2.5118 -23.80095,-2.1834 -30.28474,0.8644 -2.55598,1.2014 -4.89306,2.5822 -5.19351,3.0683 -0.78903,1.2767 -4.18493,1.0866 -5.03052,-0.2816 -0.95402,-1.5436 3.3916,-4.9262 11.25368,-8.7596 5.51215,-2.6876 7.34836,-3.0718 14.57757,-3.0505 4.54907,0.014 10.08357,0.4433 12.29889,0.9552 10.85864,2.509 22.27638,1.5497 29.58183,-2.4855 1.43533,-0.7927 2.89783,-1.1533 3.25,-0.8011 1.04115,1.0412 0.72961,12.1338 -0.35968,12.807 -0.55,0.3399 -1,2.1536 -1,4.0305 0,1.8769 -1.16442,6.0128 -2.5876,9.191 -1.42319,3.1782 -2.57528,7.5462 -2.56022,9.7068 0.0151,2.1605 -0.35881,4.6498 -0.83083,5.5318 -0.47202,0.882 -1.11497,4.0643 -1.42879,7.0717 -0.31382,3.0075 -0.98014,7.2682 -1.4807,9.4682 -0.50059,2.2 -1.41371,6.475 -2.02917,9.5 -1.78008,8.749 -7.16879,25.336 -8.85287,27.25 -2.01764,2.2931 -10.42426,2.4127 -12.65688,0.1801 -2.23484,-2.2349 -2.85222,-5.5653 -1.62839,-8.7842 0.5805,-1.5269 1.05546,-5.2514 1.05546,-8.2767 0,-3.0254 0.44051,-6.3238 0.97891,-7.3298 0.53839,-1.006 1.27535,-4.3514 1.63768,-7.4342 0.54489,-4.6362 0.39616,-5.6052 -0.86037,-5.6052 -1.47158,0 -3.77265,5.1941 -5.76452,13.0119 -0.49213,1.9315 -1.59183,5.1802 -2.44379,7.2192 -0.85195,2.039 -1.79435,5.2511 -2.09422,7.1379 -0.29987,1.8869 -2.31794,6.9632 -4.4846,11.2808 -2.16666,4.3176 -3.94607,8.3745 -3.95424,9.0152 -0.008,0.6408 -2.10321,3.0033 -4.65564,5.25 -5.29405,4.66 -9.84297,5.4179 -12.81402,2.1349 -1.77355,-1.9597 -1.77156,-4.1516 0.0117,-12.7999 0.42358,-2.0543 0.27768,-3.25 -0.39658,-3.25 -1.22854,0 -5.1968,8.3628 -5.62069,11.8452 -0.4844,3.9794 -3.69292,6.2119 -9.839552,6.8463 -4.35896,0.4499 -6.2263,0.1937 -8.24916,-1.1317 -2.43821,-1.5976 -2.58829,-2.1301 -2.22278,-7.8865 0.43343,-6.8261 2.06849,-13.8286 4.82715,-20.6733 0.99752,-2.475 2.06816,-6.4125 2.3792,-8.75 0.31105,-2.3375 0.85783,-6.1099 1.21507,-8.3832 1.07988,-6.8716 -1.5179,-4.2412 -4.60761,4.6656 -3.72628,10.7417 -11.56923,26.1443 -13.96574,27.4268 -2.47594,1.3251 -8.64139,1.3439 -11.08936,0.034 -1.73081,-0.9263 -1.836,-1.9486 -1.31188,-12.75 0.3134,-6.4586 1.04768,-12.6429 1.63173,-13.7429 0.58406,-1.1 1.38154,-3.8 1.7722,-6 0.39065,-2.2 1.43271,-6.6095 2.3157,-9.7988 0.88297,-3.1899 1.60541,-6.6954 1.60541,-7.7904 0,-1.0951 0.9,-3.7552 2,-5.9114 1.1,-2.1562 2,-4.9631 2,-6.2377 0,-1.2745 0.70096,-3.318 1.55769,-4.5412 2.14591,-3.0637 2.59924,-5.4036 2.94887,-15.2211 0.42063,-11.8109 2.61451,-20.4731 6.10901,-24.1206 3.68958,-3.8511 2.41363,-6.4385 -3.08593,-6.2577 -4.73056,0.1555 -6.46861,1.9491 -7.11924,7.347 -1.1546,9.579 -8.59844,19.1188 -16.82445,21.5616 -7.12336,2.1154 -12.49928,1.8997 -15.16927,-0.6086 -1.92959,-1.8127 -2.08936,-2.5474 -1.25049,-5.75 0.52896,-2.0194 1.63284,-5.1422 2.45308,-6.9394 0.82024,-1.7972 1.90613,-5.6222 2.41311,-8.5 2.14427,-12.1717 5.28426,-18.5441 13.41872,-27.2323 2.05978,-2.2 5.03319,-6.255 6.60759,-9.0111 3.51041,-6.1452 9.3509,-12.1523 19.30135,-19.85209 4.16737,-3.2247 7.81546,-6.6144 8.10687,-7.5325 0.84628,-2.6665 10.578692,-11.6754 16.033092,-14.8414 2.75,-1.5962 5.50837,-3.9958 6.12972,-5.3325 2.19188,-4.7155 6.38988,-18.46187 6.39193,-20.93045 10e-4,-1.375 0.72127,-4.975 1.60028,-8 0.879,-3.025 2.00352,-8.2 2.49892,-11.5 0.49541,-3.3 1.08251,-7.125 1.30466,-8.5 0.22216,-1.375 0.72772,-5.65 1.12346,-9.5 0.39575,-3.85 1.08807,-7.47074 1.5385,-8.04609 0.45042,-0.57534 0.83225,-1.92534 0.84851,-3 0.0163,-1.07465 0.50261,-5.77891 1.08077,-10.45391 0.57817,-4.675 1.18842,-9.85 1.35611,-11.5 0.16769,-1.65 0.59585,-4.125 0.95146,-5.5 0.35561,-1.375 1.36199,-8.575 2.2364,-16 3.25552,-27.64397 7.41725,-54.77113 9.51177,-62 0.71712,-2.475 1.40802,-5.4 1.53534,-6.5 0.12732,-1.1 1.19572,-5.825 2.37423,-10.5 1.17851,-4.675 2.56172,-10.525 3.0738,-13 0.51208,-2.475 1.32378,-5.4 1.80377,-6.5 4.58329,-10.50356 7.1449,-17.34734 7.14284,-19.08333 -0.001,-1.14584 0.30913,-2.39493 0.68997,-2.77577 0.38084,-0.38084 0.82544,-1.56397 0.988,-2.62916 0.16256,-1.0652 1.6252,-4.5411 3.25032,-7.72423 7.33611,-14.36929 11.86378,-25.9811 12.58952,-32.28751 0.7233,-6.28514 1.01173,-29.05897 0.57627,-45.5 -0.31499,-11.89251 0.67776,-30.52775 1.83216,-34.39237 0.55734,-1.86581 0.78707,-3.7585 0.5105,-4.20598 -0.27656,-0.44749 0.14774,-2.37065 0.94288,-4.2737 0.79515,-1.90305 1.73885,-8.11036 2.09713,-13.79402 0.35827,-5.68366 1.11625,-12.75585 1.6844,-15.71598 0.71553,-3.72796 0.7115,-6.03296 -0.0131,-7.5 -1.02063,-2.0664 -1.84003,-7.52204 -2.49589,-16.61795 -0.17846,-2.475 -0.90233,-6.24408 -1.6086,-8.37574 -0.95811,-2.89175 -1.11647,-8.22336 -0.62374,-21 0.36322,-9.41834 0.88803,-17.88315 1.16626,-18.81067 0.27822,-0.92753 1.12333,-6.10253 1.87802,-11.5 1.64973,-11.79867 4.21923,-19.65255 8.60886,-26.31359 0.90612,-1.375 1.95322,-4.17679 2.32688,-6.2262 0.37366,-2.04941 2.23601,-6.48014 4.13854,-9.84607 1.90253,-3.36592 3.45915,-6.55146 3.45915,-7.07896 0,-3.03525 7.48273,-14.12225 13.85422,-20.52751 7.28393,-7.32254 13.60347,-11.35084 21.56672,-13.74743 2.26589,-0.68193 6.89557,-3.28328 10.28817,-5.78077 4.60033,-3.38657 8.28116,-5.10335 14.47963,-6.75347 4.57119,-1.21691 9.88626,-3.15591 11.81126,-4.30889 6.98254,-4.18219 26.17938,-13.7307 27.60494,-13.7307 0.80385,0 3.77608,-1.17286 6.60495,-2.60636 2.82886,-1.43349 7.39152,-3.27398 10.13924,-4.08996 2.74771,-0.81598 5.93072,-2.06797 7.07335,-2.78219 1.14264,-0.71423 3.87752,-1.85739 6.07752,-2.54036 2.2,-0.68298 4.45112,-1.5958 5.0025,-2.02849 0.55137,-0.43269 3.25137,-1.68047 6,-2.77285 4.7749,-1.89768 14.95909,-7.65814 17.99785,-10.18008 5.15896,-4.28156 8.80065,-17.87185 7.77083,-28.99971 -0.22905,-2.475 -0.57746,-11.13658 -0.77426,-19.24795 -0.30478,-12.56216 -0.64292,-15.15583 -2.28154,-17.5 -1.94854,-2.78756 -3.44226,-7.10491 -3.71998,-10.75205 -0.4231,-5.55631 -1.94921,-8.59833 -6.45269,-12.86223 -4.84678,-4.58893 -5.11006,-5.22347 -6.48824,-15.63777 -0.062,-0.46855 -3.55535,-6.65973 -5.64245,-10 -3.04652,-4.87576 -4.91202,-10.7201 -4.91202,-15.38863 0,-4.04834 -0.5778,-5.99733 -2.56947,-8.66709 -2.80953,-3.76608 -5.43053,-9.37044 -5.43053,-11.61186 0,-2.96288 4.73339,-6.33242 8.89553,-6.33242 5.01363,0 5.75681,-1.18772 3.29644,-5.26824 -1.07173,-1.77747 -2.30062,-5.03176 -2.73087,-7.23176 -0.43025,-2.2 -0.9515,-4.675 -1.15834,-5.5 -0.20684,-0.825 -0.43262,-8.475 -0.50174,-17 -0.10684,-13.17802 0.21251,-16.77335 2.13177,-24 2.55413,-9.6172 9.32353,-23.19412 14.85212,-29.7879 9.8649,-11.765538 14.99163,-15.830078 28.50055,-22.595578 7.26799,-3.63993 15.68954,-7.1717 18.71454,-7.84836 5.4137,-1.21099 26.72821,-1.68728 36.48874,-0.81536 5.64557,0.50431 11.00097,2.17438 16.35427,5.10004 8.5717,4.68458 17.3782,10.7922 22.4672,15.58197 3.0006,2.82414 6.0722,5.52414 6.8256,6 0.7535,0.475848 2.6674,2.777688 4.2531,5.115188 1.5857,2.3375 3.2009,4.25 3.5894,4.25 1.1913,0 7.9283,15.22631 9.0772,20.51537 3.7296,17.16932 3.4649,40.22735 -0.5955,51.87864 -2.351,6.74614 -2.034,7.93625 1.9166,7.19512 4.4105,-0.82741 8.3624,0.74403 9.7987,3.89631 0.921,2.02132 0.7914,3.67254 -0.6491,8.27007 -1.1106,3.54469 -1.8457,9.19096 -1.9197,14.74449 -0.1363,10.23846 -1.3087,13.82607 -6.8102,20.8398 -2.088,2.66189 -3.7967,5.81189 -3.7971,7 -0.001,3.2058 -5.3475,13.8021 -8.3677,16.58451 -1.4473,1.33338 -2.6315,3.20953 -2.6315,4.16924 0,4.43419 -4.587,20.6143 -6.4938,22.90645 -0.9236,1.11016 -1.2165,7.304 -1.1271,23.83204 l 0.1209,22.33203 3.5,3.02181 c 1.925,1.662 5.1242,4.54696 7.1094,6.41103 4.2009,3.94457 22.6302,15.40309 24.7735,15.40309 0.8028,0 2.17,0.60397 3.0383,1.34216 0.8684,0.73818 5.4038,2.79564 10.0788,4.57211 22.1954,8.43414 30.1423,11.70033 38,15.61803 7.4285,3.70369 10.0758,4.44505 21,5.88089 11.4015,1.49857 13.3788,2.08281 22.5,6.64796 5.5,2.75275 12.8096,5.65923 16.2436,6.45884 10.6891,2.48894 22.0214,8.80343 27.8484,15.5174 10.342,11.91618 22.8458,40.8276 26.3657,60.96261 3.7005,21.1684 3.0184,62.78443 -1.1744,71.65365 -1.6658,3.52366 1.0246,27.58873 3.8156,34.13028 0.7706,1.80616 1.4011,4.33708 1.4011,5.62427 0,1.28719 0.6093,4.08442 1.3541,6.21607 0.7448,2.13165 1.6767,7.70073 2.0709,12.37573 0.3942,4.675 0.8921,9.85 1.1064,11.5 0.2143,1.65 0.6444,7.05 0.9557,12 1.3426,21.34947 3.9671,42.1688 6.494,51.5154 3.0789,11.38845 10.1116,27.53642 14.2915,32.81505 1.5249,1.92579 3.0406,4.66425 3.3683,6.08549 0.3276,1.42123 1.7645,4.60906 3.1932,7.08406 3.5428,6.13767 5.8626,12.9948 7.6118,22.5 0.8097,4.4 2.4187,12.275 3.5756,17.5 1.1569,5.225 2.4945,13.1 2.9725,17.5 0.478,4.4 1.3188,10.925 1.8684,14.5 0.5497,3.575 2.1855,15.725 3.6353,27 1.4497,11.275 3.0558,21.88195 3.5691,23.571 0.5132,1.68905 0.9332,4.10474 0.9332,5.36821 0,2.9552 3.0262,18.94533 4.0804,21.56079 0.4434,1.1 1.1136,4.01508 1.4893,6.47794 0.3757,2.46287 1.5152,6.96287 2.5321,10 1.0169,3.03714 1.8601,6.37902 1.8736,7.42643 0.024,1.89041 4.5037,18.26236 6.0453,22.09563 0.7978,1.98394 2.9931,7.91975 6.8419,18.5 1.1004,3.025 2.2703,6.4 2.5996,7.5 0.8521,2.8454 6.81,7.06601 12.2089,8.64885 3.7315,1.094 5.9616,2.84853 11.7174,9.2187 3.9098,4.3272 9.777,9.8968 13.0383,12.377 3.2612,2.4802 6.5643,5.0148 7.3402,5.6325 5.353,4.261 8.6836,8.5587 12.6155,16.2786 2.4776,4.86439 6.6201,11.31939 9.2056,14.34439 6.6887,7.8256 9.2782,12.272 10.0158,17.1983 0.3542,2.3659 1.2264,5.6517 1.9381,7.3017 5.6931,13.1986 5.5573,12.6994 4.0711,14.9677 -2.1017,3.2076 -8.6156,4.8642 -13.8603,3.5248 -2.3391,-0.5973 -5.3778,-1.5622 -6.7528,-2.1442 -3.9964,-1.6915 -14.6234,-14.2668 -16.546,-19.5794 -2.0294,-5.608 -5.588,-9.2689 -9.0098,-9.2689 -2.9761,0 -3.377,3.2076 -0.6491,5.1933 5.7883,4.2134 10.9595,16.6857 9.8347,23.7199 -0.691,4.3216 0.4994,8.4797 3.3171,11.5868 0.9976,1.1 2.4115,3.8 3.142,6 0.7305,2.2 1.6434,4.45 2.0287,5 0.9216,1.3157 4.4892,12.1286 5.3479,16.2088 0.3714,1.7648 1.781,5.5009 3.1325,8.3024 2.1765,4.5117 5.641,16.3277 7.1233,24.2948 1.2386,6.6572 -7.699,9.9998 -15.0854,5.6417 -4.2354,-2.499 -8.6359,-8.0598 -8.6359,-10.9131 0,-2.6538 -2.2721,-7.7897 -4.8816,-11.0346 -4.8524,-6.034 -5.1417,3.7966 -0.3173,10.7838 1.9935,2.8872 2.5967,5.0546 2.7041,9.7162 0.076,3.3 0.4955,8.9392 0.9322,12.5315 0.6852,5.6369 0.5516,6.7327 -0.9754,8 -2.6431,2.1936 -13.223,1.9106 -16.7511,-0.4481 -2.75,-1.8385 -6.7109,-8.9615 -6.7109,-12.0684 0,-2.6486 -3.9411,-9.515 -5.4613,-9.515 -2.5996,0 -2.5721,1.7603 0.1565,10.0425 l 2.7066,8.2151 -2.7567,2.3712 c -1.5161,1.3042 -3.6573,2.3712 -4.7581,2.3712 -3.8177,0 -10.7718,-2.2152 -12.3181,-3.9238 -3.5285,-3.899 -11.3571,-20.9081 -12.0441,-26.1681 -0.3884,-2.9744 -1.7573,-7.6726 -3.0418,-10.4404 -1.2846,-2.7678 -2.6558,-6.3678 -3.0472,-8 -0.3914,-1.6322 -1.1546,-3.5302 -1.6961,-4.2177 -2.6113,-3.3153 -4.1952,0.4119 -2.5953,6.1071 0.6401,2.2786 1.2594,6.1679 1.3761,8.6429 0.1167,2.475 0.5465,6.9128 0.955,9.8617 1.0766,7.7705 -0.4282,10.1484 -6.3945,10.105 -2.893,-0.021 -5.3686,-0.6913 -6.7184,-1.8191 -2.5938,-2.1671 -5.847,-8.3896 -6.8739,-13.1476 -0.4155,-1.925 -1.5954,-5.0683 -2.622,-6.9852 -1.0267,-1.9168 -1.8735,-4.6168 -1.8818,-6 -0.02,-3.344 -2.2125,-9.493 -4.1797,-11.7222 -1.0496,-1.1893 -1.5923,-3.7677 -1.6126,-7.6616 -0.017,-3.2279 -0.517,-6.3554 -1.1116,-6.95 -0.5945,-0.5945 -1.081,-2.3568 -1.081,-3.9162 0,-1.5593 -0.7074,-3.9148 -1.572,-5.2343 -0.8645,-1.3194 -2.1659,-5.8194 -2.8918,-9.9999 -1.0402,-5.9901 -1.8947,-8.1334 -4.032,-10.1143 -2.0433,-1.8937 -2.5392,-3.0563 -2.0111,-4.7149 0.9207,-2.8917 0.8649,-3.7031 -0.9438,-13.7014 -0.8457,-4.675 -1.7229,-9.85 -1.9492,-11.5 -0.2263,-1.65 -0.943,-5.475 -1.5926,-8.5 -0.6496,-3.025 -1.1506,-10.6533 -1.1135,-16.95179 0.066,-11.2524 0.01,-11.5622 -3.4132,-17.7845 -2.9109,-5.2958 -3.4808,-7.3397 -3.4808,-12.4844 0,-5.90158 -3.2382,-20.07182 -5.1174,-22.39334 -1.1688,-1.44387 -4.2259,-11.00823 -6.3563,-19.88601 -0.9239,-3.85 -2.7061,-8.58091 -3.9605,-10.51312 -1.2544,-1.93222 -2.6266,-4.63222 -3.0495,-6 -0.4228,-1.36779 -2.287,-5.44113 -4.1425,-9.05187 -1.8556,-3.61075 -3.3738,-7.47635 -3.3738,-8.59024 0,-1.11388 -1.3419,-4.45963 -2.9819,-7.435 -1.64,-2.97537 -2.99,-6.20142 -3,-7.16898 -0.019,-1.80434 -6.1928,-17.31297 -10.4469,-26.24079 -1.3104,-2.75 -2.6059,-6.125 -2.8789,-7.5 -0.273,-1.375 -1.4729,-5.65 -2.6664,-9.5 -1.1935,-3.85 -2.7899,-9.7 -3.5476,-13 -0.7577,-3.3 -1.84,-7.8 -2.4051,-10 -2.5747,-10.0234 -4.0732,-17.68669 -4.0732,-20.82979 0,-1.88032 -0.675,-5.33191 -1.5,-7.67021 -0.825,-2.3383 -1.5,-5.40242 -1.5,-6.80915 0,-1.40673 -0.9099,-5.28765 -2.022,-8.62427 -1.1121,-3.33662 -2.5147,-7.64158 -3.117,-9.56658 -0.6023,-1.925 -2.1302,-4.625 -3.3954,-6 -1.4308,-1.55499 -2.5551,-4.39002 -2.9743,-7.5 -0.3707,-2.75 -1.0983,-6.68014 -1.6168,-8.73364 -0.6892,-2.72933 -0.58,-4.47777 0.4059,-6.5 1.4471,-2.96818 1.4772,-4.43625 0.3432,-16.76636 -0.6623,-7.20244 -2.1583,-13.30651 -4.6565,-19 -2.9929,-6.82106 -6.9586,-18.33809 -6.9625,-20.22036 0,-1.22121 -1.128,-4.67623 -2.5009,-7.67785 -1.373,-3.00161 -2.2383,-6.12978 -1.923,-6.95149 0.3153,-0.82171 0.086,-2.40519 -0.5104,-3.51884 -0.596,-1.11365 -1.4943,-4.63632 -1.9962,-7.82814 -0.5019,-3.19183 -1.5915,-8.95332 -2.4215,-12.80332 -0.8299,-3.85 -2.0317,-10.2609 -2.6705,-14.24645 -1.0125,-6.31611 -2.2827,-9.28681 -3.4651,-8.10369 -0.1924,0.19258 -2.2232,11.58836 -4.5128,25.32395 -2.2895,13.7356 -4.3944,25.34852 -4.6774,25.80648 -0.2831,0.45796 -0.8829,3.16974 -1.333,6.02618 -0.8696,5.51937 -5.7006,24.83889 -7.05,28.19353 -0.4425,1.1 -1.2795,4.25 -1.86,7 -2.402,11.37884 -4.1081,17.34379 -6.7214,23.5 -2.6994,6.35915 -2.7598,6.9334 -2.7876,26.5 -0.016,11 0.3099,22.25 0.7234,25 0.4135,2.75 1.1969,10.175 1.741,16.5 0.5441,6.325 1.4135,12.625 1.9319,14 0.9258,2.45535 2.695,11.20932 3.6154,17.88873 0.2568,1.8638 0.6948,3.75743 0.9733,4.20808 0.2785,0.45064 0.7239,3.20072 0.9898,6.11127 0.2658,2.91056 1.8053,9.11692 3.421,13.79192 2.9647,8.57819 4.3365,15.68658 5.5003,28.5 0.3496,3.85 1.0428,9.475 1.5403,12.5 2.3588,14.34249 4.0996,26.68982 3.8842,27.54997 -0.3206,1.28009 0.9696,9.60035 2.6284,16.95003 0.7448,3.3 2.1101,10.275 3.0339,15.5 0.9239,5.225 2.7059,13.55005 3.9599,18.50005 1.2541,4.95 2.5435,11.025 2.8653,13.5 0.3219,2.475 0.9997,6.975 1.5063,10 3.0285,18.08519 4.2,26.27749 4.6474,32.49999 0.2769,3.85 0.8451,10.402 1.2626,14.5601 1.4468,14.4079 0.3054,60.5227 -1.7312,69.9399 -0.8215,3.7985 -2.1787,15.169 -4.6553,39 -0.5258,5.0598 -3.1673,26.6374 -3.9174,32 -0.2692,1.925 -0.7514,6.425 -1.0715,10 -0.32,3.575 -1.0353,9.65 -1.5894,13.5 -2.3011,15.9883 -2.9182,21.3991 -3.3074,29 -0.2252,4.4 -0.8494,9.8 -1.3871,12 -0.5376,2.2 -1.5034,6.7 -2.1462,10 -0.6427,3.3 -2.0692,9.375 -3.17,13.5 -1.1007,4.125 -2.4435,9.7025 -2.984,12.3944 -0.5405,2.6918 -1.5751,5.8418 -2.299,7 -0.7239,1.1581 -1.6258,3.9056 -2.0042,6.1056 -0.9459,5.4993 -3.7246,13.8148 -7.4609,22.3277 -3.4104,7.7704 -3.5823,9.4195 -4.6565,44.6723 -0.2681,8.8 -0.6414,18.25 -0.8296,21 -0.4882,7.1354 1.1113,18.9379 3.5849,26.4535 1.3594,4.1302 2.2624,9.8902 2.5085,16 0.2114,5.2506 0.6166,11.3465 0.9004,13.5465 0.2838,2.2 0.6974,6.475 0.9191,9.5 0.2217,3.025 0.6505,7.525 0.9528,10 2.8571,23.3913 0.2815,70.8965 -5.0965,94 -4.898,21.0415 -5.5921,23.672 -8.8391,33.5 -7.3199,22.1564 -13.7186,45.0311 -15.5537,55.6035 -0.4395,2.5318 -1.5026,7.4818 -2.3626,11 -0.8599,3.5181 -2.034,9.4523 -2.6091,13.1872 -0.5751,3.735 -1.7092,8.7453 -2.5202,11.1342 -2.3913,7.0432 -3.5715,26.7248 -2.4106,40.1989 2.2542,26.1643 2.2666,26.8373 0.5547,30.1478 -2.6101,5.0474 -2.3974,5.8756 5.5279,21.5277 18.4271,36.3923 21.0723,42.1026 23.8486,51.4826 2.9362,9.9205 3.2583,10.4829 9.1634,16 3.3661,3.145 6.7393,7.0681 7.496,8.7181 0.7567,1.65 1.7823,3.675 2.2792,4.5 2.6242,4.3572 6.0668,12.1949 6.0668,13.8121 0,1.0169 -1.1491,4.0627 -2.5536,6.7684 -1.4044,2.7057 -2.7391,5.8195 -2.9658,6.9195 -1.5703,7.6167 -2.8005,10.1394 -5.9516,12.205 -2.0864,1.3677 -3.5983,3.334 -4.0121,5.2179 -0.6727,3.0628 -4.9746,7.4528 -8.3545,8.5255 -1.0166,0.3227 -3.2943,2.8183 -5.0617,5.5458 -2.5032,3.863 -4.0594,5.1869 -7.0416,5.9899 -3.5182,0.9473 -3.9793,1.4958 -5.6937,6.7734 -1.6921,5.2089 -2.3116,5.9638 -6.6672,8.1236 -5.9898,2.9701 -13.7031,3.095 -19.969,0.3233 -4.8151,-2.1299 -9.0244,-7.2122 -13.0683,-15.7785 -1.5302,-3.2416 -4.6229,-7.0338 -8.563,-10.5 -7.6215,-6.7048 -10.6148,-10.9382 -12.7053,-17.9686 -2.2925,-7.7099 -2.4649,-9.4284 -2.8561,-28.4573 -0.8401,-40.8712 -0.8085,-40.6614 -7.1359,-47.265 -2.4203,-2.5261 -4.4006,-5.1176 -4.4006,-5.7589 0,-0.6414 -0.9492,-2.0234 -2.1094,-3.0711 -1.1601,-1.0478 -3.4216,-4.5025 -5.0256,-7.6772 -3.1566,-6.2481 -2.9378,-3.4389 -2.7442,-35.2278 0.034,-5.5 -0.454,-12.2362 -1.0833,-14.9692 -1.182,-5.1331 -0.064,-16.6573 2.0409,-21.0308 3.5022,-7.2779 5.4068,-56.7429 3.1241,-81.1347 -0.5078,-5.4259 -0.9344,-11.4403 -0.948,-13.3653 -0.014,-1.925 -0.5169,-8 -1.1185,-13.5 -0.6016,-5.5 -1.3584,-14.275 -1.682,-19.5 -0.3235,-5.225 -1.4598,-13.7828 -2.5251,-19.0174 -2.7982,-13.749 -3.6501,-25.7196 -3.7349,-52.4826 -0.064,-20.2378 0.2145,-28.1726 1.1943,-34 0.3699,-2.2 0.8587,-6.25 1.0862,-9 0.3629,-4.3865 1.1354,-10.1942 4.1233,-31 0.3949,-2.75 1.3236,-5.9359 2.0636,-7.0798 0.7401,-1.1439 1.0537,-2.3717 0.697,-2.7285 -0.3568,-0.3568 -0.079,-3.976 0.6161,-8.0427 1.1821,-6.9104 1.1203,-7.7785 -0.9443,-13.2715 -3.1576,-8.4013 -6.1407,-19.6471 -5.5914,-21.0786 0.2579,-0.6721 0.01,-3.8267 -0.5591,-7.0104 -1.7669,-9.95 -2.0634,-13.3855 -2.404,-27.8572 -0.1821,-7.7377 -0.5696,-16.65 -0.861,-19.8051 -0.3806,-4.1204 -0.074,-6.6915 1.0871,-9.127 1.7257,-3.6188 1.2267,-7.4577 -3.1192,-23.9992 -0.867,-3.3 -2.021,-8.025 -2.5644,-10.5 -1.3678,-6.2294 -1.6366,-32.1063 -0.6182,-59.5 1.0276,-27.6418 1.0054,-23.6849 0.2074,-37 -1.215,-20.274 -2.5225,-33.2704 -4.97968,-49.5 -1.62452,-10.7298 -2.70497,-20.2757 -3.12708,-27.6281 -0.46812,-8.1538 -1.65095,-13.4923 -3.11379,-14.0537 -0.81021,-0.3109 -1.71564,-0.3228 -2.01206,-0.026 -0.29642,0.2964 -0.94938,5.1895 -1.45101,10.8735 -0.50164,5.684 -1.12904,11.4259 -1.39422,12.7596 -0.80749,4.0614 -2.39483,17.1154 -3.10985,25.575 -0.37189,4.4 -0.82758,9.125 -1.01264,10.5 -0.18506,1.375 -0.58765,6.55 -0.89465,11.5 -0.30699,4.95 -1.01973,13.6392 -1.58386,19.3093 -0.56413,5.6701 -0.80937,11.0701 -0.54498,12 0.26439,0.9299 0.79066,10.4657 1.16949,21.1907 0.37882,10.725 0.83759,22.2 1.01947,25.5 1.09578,19.8817 1.25663,34.7594 0.43244,40 -0.51899,3.3 -1.14665,7.6726 -1.39479,9.7168 -0.24814,2.0443 -0.73645,4.1785 -1.08514,4.7426 -0.34868,0.5642 -0.77586,2.7167 -0.94927,4.7832 -0.17342,2.0666 -0.77884,6.0074 -1.34537,8.7574 -0.67021,3.2533 -0.71245,7.9694 -0.12089,13.5 2.34298,21.9048 1.44269,62.3111 -1.62651,73 -2.81844,9.8157 -2.96164,14.3799 -0.60395,19.2502 1.16651,2.4097 2.12289,5.0267 2.12529,5.8155 0.004,1.1788 2.21121,7.8429 5.27853,15.9343 0.31274,0.825 0.78153,2.85 1.04173,4.5 0.26021,1.65 0.70741,3.9586 0.99377,5.1303 0.28637,1.1716 1.71597,7.0216 3.17689,13 1.46092,5.9783 3.07214,11.2972 3.58047,11.8197 0.50834,0.5225 0.9308,1.8725 0.9388,3 0.008,1.1275 0.72187,4.075 1.58635,6.55 0.86449,2.475 1.774,6.75 2.02113,9.5 0.24714,2.75 0.6929,6.125 0.99059,7.5 0.29768,1.375 1.17205,9.25 1.94303,17.5 1.31156,14.0345 0.83044,31.6164 -1.10243,40.2868 -0.28038,1.2577 -0.72042,6.6577 -0.97786,12 -0.25743,5.3422 -0.70299,11.2882 -0.99013,13.2132 -0.39096,2.6211 -1.63336,33.861 -1.65044,41.5 -0.01,4.4412 1.17335,31.796 1.62859,37.6494 0.31442,4.0428 0.81858,10.5006 1.12034,14.3506 0.30177,3.85 1.19389,8.9282 1.98248,11.2849 0.78859,2.3568 1.43381,5.7441 1.43381,7.5275 0,1.7834 0.6095,4.1302 1.3545,5.2151 0.7449,1.0849 1.6081,3.0975 1.918,4.4725 0.31,1.375 1.2271,4.3 2.0382,6.5 2.2832,6.1934 2.6313,12.3139 0.9765,17.1704 -1.702,4.9951 -1.1243,12.8772 1.7098,23.3296 1.5117,5.5754 1.5749,15.1857 0.135,20.52 -1.2848,4.7594 -6.1509,13.0631 -12.70692,21.6837 -2.60242,3.422 -5.10922,7.8135 -5.57068,9.759 -1.20193,5.0674 -0.94678,39.7807 0.32735,44.5373 0.58931,2.2 1.12347,8.725 1.18702,14.5 0.12987,11.8026 -0.68271,14.5835 -6.6247,22.6716 -4.2714,5.8141 -6.79159,11.3091 -7.23198,15.7685 -0.26726,2.7063 -5.30263,12.3201 -9.5121,18.1611 -2.46483,3.4202 -5.4637,4.3988 -13.47971,4.3988 -6.71558,0 -7.89561,-0.2844 -10.02819,-2.417 z m -7.07389,-13.19 c 3.52562,-1.3529 0.14311,-5.4611 -5.70496,-6.9288 -3.77813,-0.9483 -4.3274,1.2853 -1.1354,4.6171 2.85461,2.9795 4.04855,3.383 6.84036,2.3117 z m 20.13564,-9.3059 c -0.84542,-1.3679 -4.22976,-1.4205 -5.05908,-0.079 -0.78001,1.262 3.69229,3.0757 4.8681,1.9742 0.47457,-0.4447 0.56052,-1.2976 0.19098,-1.8956 z m -33.05385,-5.0871 c 0,-1.0115 -1.22127,-1.6011 -3.75,-1.8104 -3.96141,-0.3278 -4.93286,1.0083 -2,2.7507 2.40421,1.4284 5.75,0.8813 5.75,-0.9403 z m 160.49997,-1 c 0,-0.55 -0.9,-1 -2,-1 -1.1,0 -2,0.45 -2,1 0,0.55 0.9,1 2,1 1.1,0 2,-0.45 2,-1 z m -171.19297,-10.079 c -0.63348,-1.9004 -5.48591,-4.2582 -7.3173,-3.5554 -1.67809,0.6439 -1.67671,0.7703 0.0292,2.6552 1.87029,2.0667 7.92629,2.8147 7.28813,0.9002 z m 220.19297,-32.421 c 0,-0.9333 -0.9444,-1.5 -2.5,-1.5 -1.5555,0 -2.5,0.5667 -2.5,1.5 0,0.9333 0.9445,1.5 2.5,1.5 1.5556,0 2.5,-0.5667 2.5,-1.5 z M 100.56269,1164.9661 c 2.76614,-2.5986 5.85011,-9.38 5.12504,-11.2695 -0.32421,-0.8449 -2.35452,-1.629 -4.87762,-1.8837 -2.377222,-0.24 -5.103472,-0.7836 -6.058332,-1.2081 -1.87426,-0.8331 -2.82463,0.8932 -5.02985,9.1369 -0.98962,3.6994 -0.89368,4.4608 0.79753,6.3296 2.30693,2.5491 6.66373,2.0697 10.043232,-1.1052 z m 56.51092,-19.9297 c 4.56638,-8.6984 4.92941,-11.7071 1.51598,-12.5638 -6.72772,-1.6886 -9.42326,1.5997 -8.1688,9.965 0.65035,4.3368 0.91594,4.6931 3.28645,4.4084 1.4184,-0.1703 2.93327,-0.9846 3.36637,-1.8096 z m 622.11184,-1.7975 c 0.7147,-0.7147 -1.5104,-9.9191 -3.1915,-13.2025 -0.7983,-1.5591 -1.6757,-1.6028 -8.756,-0.4367 -2.6488,0.4363 -4.25,1.2288 -4.25,2.1036 0,1.873 2.6674,6.0842 6.4301,10.1516 2.5531,2.7599 3.5696,3.2196 6.0386,2.7312 1.6328,-0.3229 3.3108,-0.9292 3.7288,-1.3472 z M 163.5057,1126.0076 c 0.34972,-0.5659 0.80575,-2.7034 1.01341,-4.75 0.20766,-2.0467 0.51058,-4.5979 0.67316,-5.6695 0.24206,-1.5953 -0.51871,-2.0916 -4.19929,-2.7396 -7.24878,-1.2763 -8.0051,-0.6538 -8.0051,6.5886 0,3.4463 0.3,6.566 0.66667,6.9326 1.06623,1.0663 9.15207,0.769 9.85115,-0.3621 z m 577.04575,-4.9712 c 0.098,-8.4499 -0.1716,-9.0022 -4.381,-8.9847 -2.0254,0.01 -4.3104,0.4129 -5.0778,0.8988 -3.4093,2.1587 3.0745,14.4888 7.3014,13.885 1.8258,-0.2608 2.102,-1.0032 2.1574,-5.7991 z m 91.8075,2.8977 c 0.6192,-1.7685 0.4654,-4.0115 -0.4799,-7 -1.3484,-4.2627 -1.5293,-4.4067 -5.8911,-4.6917 -6.1412,-0.4012 -8.4965,1.3581 -7.0194,5.243 1.5583,4.0986 7.7998,9.725 10.3765,9.3539 1.2066,-0.1738 2.4909,-1.4119 3.0139,-2.9052 z m -57.371,-1.6863 c 0,-0.9837 -0.9258,-3.5712 -2.0573,-5.75 -1.4433,-2.7792 -1.8943,-5.0373 -1.5113,-7.5667 0.7101,-4.6899 -1.9726,-7.4962 -6.1464,-6.4295 -1.5318,0.3915 -4.6975,0.9423 -7.035,1.224 -2.3375,0.2817 -4.25,0.8418 -4.25,1.2446 0,1.2079 6.6489,16.1162 7.6099,17.063 0.4895,0.4823 2.9151,1.0517 5.3901,1.2654 2.475,0.2136 5.2875,0.467 6.25,0.5631 1.0795,0.1078 1.75,-0.5106 1.75,-1.6139 z m 7.5593,-1.3074 c 0.3725,-0.6027 -0.067,-1.8402 -0.9772,-2.75 -1.4337,-1.4333 -1.7754,-1.4583 -2.5611,-0.1875 -0.5639,0.912 -0.5039,1.9516 0.1586,2.75 1.3052,1.5726 2.4833,1.638 3.3797,0.1875 z m -44.1484,-14.7599 c 0.864,-1.398 -0.5868,-11.0023 -1.942,-12.8556 -1.0194,-1.3941 -1.5321,-1.481 -2.7542,-0.4667 -0.8259,0.6854 -2.948,1.4293 -4.7157,1.653 -1.7677,0.2237 -3.4319,0.6247 -3.6983,0.8911 -0.7041,0.7041 1.8648,7.834 3.5612,9.8841 1.516,1.8322 8.5615,2.4919 9.549,0.8941 z m 88.4325,-0.8288 c 0.5633,-1.0067 0.5833,-2.4153 0.05,-3.5 -0.4912,-0.9984 -1.3431,-2.7092 -1.8931,-3.8017 -0.55,-1.0926 -1,-2.8604 -1,-3.9286 0,-3.807 -2.6459,-5.1414 -8.8218,-4.449 -6.9383,0.7779 -8.5145,1.8636 -7.6793,5.2898 0.6414,2.6317 5.1925,9.9859 6.9983,11.3089 0.5515,0.4041 3.3429,0.7416 6.2031,0.75 3.8473,0.011 5.4456,-0.423 6.1431,-1.6694 z m -81.8435,-19.1153 c 0,-1.8548 -1.7868,-4.2 -3.2,-4.2 -0.965,0 -1.0748,4.3918 -0.1333,5.3333 1.3168,1.3169 3.3333,0.6312 3.3333,-1.1333 z M 434.48788,318.92771 c 9.17724,-0.26418 16.40367,-3.61978 23.86837,-11.08336 3.4699,-3.4694 9.2415,-9.09539 12.8256,-12.50221 6.9307,-6.58769 11.806,-14.84534 11.806,-19.99652 0,-1.64527 0.6806,-5.20042 1.5123,-7.90033 0.8318,-2.69991 1.7769,-6.48393 2.1002,-8.40893 0.3233,-1.925 1.0489,-4.36278 1.6124,-5.4173 0.5635,-1.05451 1.1847,-3.52951 1.3805,-5.5 0.1957,-1.97048 1.511,-6.9577 2.9228,-11.0827 1.4119,-4.125 2.7638,-9.71171 3.0044,-12.41491 0.2405,-2.70321 0.6902,-5.71151 0.9992,-6.68512 0.309,-0.97362 -0.1743,-4.30227 -1.0739,-7.39701 -0.9977,-3.43168 -1.4578,-7.65078 -1.1797,-10.81488 0.4433,-5.04114 3.7285,-18.63473 5.7249,-23.68808 0.5432,-1.375 1.0572,-7.225 1.1422,-13 0.085,-5.775 0.5787,-11.33581 1.0972,-12.35736 0.6203,-1.22193 0.569,-2.23117 -0.1498,-2.95 -0.601,-0.60095 -1.0927,-3.00647 -1.0927,-5.34559 0,-2.33912 -0.3993,-5.28662 -0.8874,-6.55 -0.488,-1.26338 -1.4514,-4.74457 -2.1408,-7.73598 -2.2342,-9.69442 -6.5519,-16.47155 -17.5084,-27.48128 -6.068,-6.097548 -12.2203,-11.283158 -15.1015,-12.728738 -2.674,-1.34165 -5.9869,-3.16579 -7.3619,-4.05363 -3.5261,-2.27687 -14.00014,-4.10123 -30.60822,-5.33134 -4.91649,-0.36416 -24.07164,1.93704 -30.39175,3.6511 -10.24199,2.77769 -23.73015,10.74805 -30.54464,18.049278 -17.02654,18.2427 -22.52968,32.74196 -22.73075,59.88919 -0.10658,14.39127 -0.24167,13.68724 7.18456,37.44435 1.81717,5.81328 2.70104,10.59336 2.49624,13.5 -0.2602,3.69294 0.71709,11.74325 2.00307,16.5 0.14869,0.55 0.608,2.8 1.02067,5 1.22386,6.52441 3.82052,15.91761 4.72813,17.10357 0.46451,0.60696 0.78019,2.18196 0.70152,3.5 -0.0787,1.31804 0.76994,4.87143 1.88579,7.89643 1.11585,3.025 2.58873,7.75 3.27308,10.5 1.04535,4.20066 3.23882,9.70854 6.9564,17.46776 0.38678,0.80727 1.85234,2.15727 3.25681,3 1.40447,0.84273 6.08958,4.69051 10.41135,8.55063 4.32177,3.86011 9.65777,8.11194 11.85777,9.44851 2.2,1.33656 5.73155,3.80151 7.84789,5.47764 3.94865,3.12733 11.40258,4.75742 18.15211,3.96967 1.65,-0.19257 5.7,-0.42786 9,-0.52286 z m -15,-33.68447 c -4.23643,-1.49733 -5.81679,-2.93896 -5.14393,-4.6924 0.54228,-1.41315 1.3554,-1.5989 4.40449,-1.00617 3.93439,0.76482 15.02399,0.74288 16.27812,-0.0322 0.40409,-0.24974 1.30954,0.23855 2.01211,1.0851 2.24562,2.7058 -0.91554,4.51813 -8.64993,4.95911 -3.79547,0.2164 -7.80086,0.0754 -8.90086,-0.31343 z m -16.34839,-9.09954 c -0.74162,-0.46585 -1.18547,-1.69307 -0.98634,-2.72717 0.77996,-4.05039 9.87957,-5.05112 40.8936,-4.49729 7.6626,0.13683 11.1081,1.9122 9.3321,4.80855 -1.0124,1.65106 -2.9719,1.81312 -22.49996,1.86085 -11.76505,0.0288 -22.29101,0.35598 -23.39101,0.72717 -1.1,0.37119 -2.60678,0.29374 -3.34839,-0.17211 z m 22.84737,-14.10836 c -2.8618,-2.8618 -2.10987,-4.36127 2.58315,-5.15123 5.00575,-0.8426 6.36271,0.37821 4.36885,3.93052 -1.95346,3.48033 -4.28328,3.88943 -6.952,1.22071 z m -0.99898,-11.04146 c -0.825,-0.55652 -3.525,-0.94155 -6,-0.85564 -6.99694,0.24289 -7.85392,0.0396 -9.02038,-2.13996 -1.97205,-3.68481 -0.15626,-10.58528 3.8359,-14.57744 4.02688,-4.02688 4.31878,-5.27943 4.69804,-20.15938 0.23807,-9.34026 0.0831,-10.37061 -1.70397,-11.32701 -2.78939,-1.49283 -4.80959,-0.39169 -4.80959,2.62155 0,3.77999 -5.14257,5.61843 -15.60747,5.57959 -9.01468,-0.0335 -12.22226,-1.1215 -16.35907,-5.54916 -3.37253,-3.60965 -2.05381,-5.36169 6.57161,-8.73099 7.61693,-2.97536 13.16737,-3.40028 21.79163,-1.66828 4.99361,1.00286 5.943,0.93807 7.38504,-0.50397 1.53969,-1.53969 1.51235,-1.79718 -0.39314,-3.70267 -2.53419,-2.53419 -11.14067,-3.89634 -24.79344,-3.92405 l -9.90483,-0.0201 -3.80511,4 c -2.09281,2.2 -4.22499,4 -4.73818,4 -4.05834,0 1.15671,-9.92633 6.65055,-12.65864 6.78808,-3.37599 34.95446,-1.86213 37.4371,2.01213 0.40408,0.63058 0.74158,2.58124 0.75,4.33479 0.0103,2.13849 1.0121,4.27872 3.04261,6.5 4.20728,4.60255 5.38062,9.49445 3.59276,14.97892 -0.77684,2.38304 -1.62987,8.19846 -1.89563,12.92316 -0.55803,9.92097 -1.39279,11.92352 -6.21178,14.90182 -5.84384,3.61169 -4.81665,5.07938 4.48735,6.41171 1.925,0.27566 4.95845,0.79803 6.741,1.16083 2.06751,0.4208 4.6999,0.0759 7.27024,-0.95254 2.21608,-0.8867 5.09003,-1.61218 6.38655,-1.61218 1.29653,0 2.88516,-0.63601 3.53031,-1.41336 1.34277,-1.61794 0.61416,-2.49495 -4.67863,-5.63156 -2.66066,-1.57676 -3.23248,-2.51871 -3.15106,-5.1907 0.21032,-6.90268 -1.42989,-18.79459 -2.74253,-19.88399 -2.01639,-1.67346 -1.81089,-12.72012 0.2796,-15.03009 0.89952,-0.99396 1.81697,-3.45408 2.03878,-5.46695 0.83934,-7.61659 3.89463,-9.67895 16.11631,-10.87876 10.4629,-1.02715 19.5405,0.85547 24.0495,4.98768 2.3565,2.15956 3.2856,3.73795 2.8572,4.85418 -0.5722,1.49114 -1.0564,1.43242 -4.916,-0.59619 -3.6868,-1.93783 -5.8085,-2.25026 -15.2813,-2.25026 -9.1722,0 -11.653,0.34257 -14.92988,2.06167 -4.75018,2.49198 -6.52788,4.88054 -4.86786,6.54056 0.87636,0.87636 2.99504,0.78728 8.72844,-0.36697 7.6286,-1.53581 8.217,-1.48875 18.5693,1.4853 5.8018,1.66674 7,2.48308 7,4.76891 0,1.17939 -0.832,1.98959 -2.25,2.19098 -1.3996,0.19878 -2.1529,0.92001 -1.9931,1.90838 0.1412,0.87386 -0.6981,2.44886 -1.8651,3.5 -1.865,1.67985 -3.7352,1.91117 -15.4516,1.91117 -7.72518,0 -13.76092,0.42892 -14.35513,1.02013 -0.70013,0.6966 -0.5254,2.75801 0.55096,6.5 0.86694,3.01393 1.80159,7.05487 2.07699,8.97987 0.27784,1.94207 1.76315,4.83537 3.33685,6.5 1.55987,1.65 3.41723,5.18294 4.12753,7.85098 1.2361,4.643 1.1909,4.93238 -1.0537,6.75 -1.51335,1.2254 -3.91357,1.89902 -6.76657,1.89902 -2.43174,0 -6.03684,0.675 -8.01134,1.5 -4.22004,1.76325 -4.39176,1.77563 -6.34576,0.45752 z m -23.12646,-48.55507 c 0.20544,-0.17391 0.10707,-1.0106 -0.21862,-1.85932 -0.8045,-2.0965 -6.52264,-2.05143 -7.33202,0.0578 -0.80867,2.10735 1.52782,3.46696 4.66879,2.71679 1.37957,-0.32948 2.6764,-0.74135 2.88185,-0.91526 z m 56.62643,-1.40245 c 0,-2.30666 -5.8745,-2.00952 -6.3231,0.31983 -0.2914,1.51325 0.2117,1.76595 2.9864,1.5 2.1572,-0.20677 3.3367,-0.85009 3.3367,-1.81983 z m 38.8377,43.8264 c 0.5394,-0.855 0.6787,-2.3414 0.3096,-3.3031 -0.9482,-2.47106 -3.6473,-0.11596 -3.6473,3.18248 0,2.6542 1.7008,2.71566 3.3377,0.12062 z M 352.80743,234.79658 c -0.17575,-1.23189 -1.10705,-2.38988 -2.06955,-2.57333 -2.00595,-0.38232 -2.34145,1.82166 -0.55,3.61311 1.86216,1.86216 2.97079,1.42211 2.61955,-1.03978 z m 152.21372,-5.30026 c 0.7029,-0.84702 1.6914,-3.88452 2.1965,-6.75 1.0368,-5.88117 1.0387,-5.99754 0.1734,-10.45996 -0.5301,-2.73382 -1.0706,-3.25 -3.4032,-3.25 -2.3165,0 -2.8454,0.49377 -3.2133,2.99986 -0.2421,1.64992 0.025,5.27329 0.5947,8.05193 0.7797,3.80655 0.7287,5.54236 -0.2071,7.04081 -2.17,3.47472 1.216,5.55193 3.859,2.36736 z M 349.46159,217.32481 c 0.48224,-2.57057 0.24334,-3.99997 -0.85152,-5.09483 -2.16072,-2.16072 -4.62219,0.0913 -4.62219,4.22882 0,6.28591 4.32846,6.97073 5.47371,0.86601 z m -0.47371,-12.87816 c 0,-2.15908 -3.98836,-5.33619 -6.75,-5.37702 -3.43455,-0.0508 -2.68496,2.3215 1.5,4.7472 4.50999,2.6141 5.25,2.70287 5.25,0.62982 z m 156.46517,-5.51388 c 5.2055,-4.57048 4.1227,-7.88695 -1.5788,-4.83561 -2.1563,1.15404 -4.2441,5.55133 -3.3345,7.02312 0.8172,1.32233 1.0173,1.23326 4.9133,-2.18751 z M 403.95219,1633.9697 c -0.60833,-1.1367 -1.00046,-3.4992 -0.87139,-5.25 0.12907,-1.7508 -0.30014,-5.6706 -0.9538,-8.7106 -0.65366,-3.0401 -1.35152,-7.0901 -1.5508,-9 -0.19928,-1.91 -0.89261,-5.9477 -1.54074,-8.9727 -0.64813,-3.025 -1.59521,-9.1 -2.10463,-13.5 -0.88314,-7.628 -1.57529,-11.7438 -3.86785,-23 -0.5601,-2.75 -1.49887,-9.05 -2.08616,-14 -0.58729,-4.95 -1.71512,-11.925 -2.50629,-15.5 -0.79117,-3.575 -1.71177,-8.75 -2.04578,-11.5 -1.16223,-9.569 -4.4889,-28.5066 -5.4531,-31.0427 -0.5338,-1.404 -1.16457,-4.8938 -1.40172,-7.755 -0.23714,-2.8613 -0.90438,-7.0023 -1.48275,-9.2023 -1.75079,-6.6596 -1.45164,-8.5 1.38165,-8.5 1.77826,0 2.60322,0.6373 2.91264,2.25 0.23744,1.2375 0.89402,4.725 1.45908,7.75 0.56506,3.025 1.49449,7.975 2.0654,11 0.57091,3.025 1.25099,7.075 1.51128,9 0.26029,1.925 0.91575,5.975 1.45657,9 2.05213,11.4782 4.07814,26.6598 4.09576,30.691 0.0101,2.305 0.42079,4.4397 0.91269,4.7437 0.4919,0.304 1.13531,2.2431 1.42981,4.309 0.29449,2.066 1.0236,6.2313 1.62025,9.2563 0.59664,3.025 1.25243,7.075 1.4573,9 0.20487,1.925 1.29063,8.225 2.4128,14 1.12217,5.775 2.55523,15 3.18458,20.5 0.62935,5.5 2.23973,15.5511 3.57862,22.3357 1.3389,6.7847 2.18008,12.7472 1.86929,13.25 -1.02258,1.6546 -4.35537,0.9541 -5.48271,-1.1524 z m 97.13846,-0.8276 c -1.1095,-0.7192 -1.2603,-2.7276 -0.7322,-9.7557 0.3657,-4.8675 0.8964,-14.925 1.1793,-22.35 0.283,-7.425 0.7711,-15.075 1.0847,-17 0.7873,-4.8318 1.3711,-12.5561 1.9272,-25.5 0.26,-6.05 0.697,-13.25 0.9712,-16 1.8979,-19.0318 2.4065,-25.7557 3.0256,-40 0.2869,-6.6 1.0014,-16.275 1.588,-21.5 1.0264,-9.144 1.4618,-13.2999 1.7284,-16.5 0.1358,-1.6287 4.6254,-2.1173 5.5601,-0.6051 0.3041,0.4922 0.1415,3.0797 -0.3615,5.75 -2.2934,12.1744 -2.5718,14.8571 -3.4622,33.3551 -0.478,9.9322 -0.9465,17.1039 -2.2211,34 -0.1453,1.925 -0.5193,11.15 -0.8312,20.5 -0.312,9.35 -1.0035,21.05 -1.5368,26 -1.0548,9.7914 -2.1627,29.3153 -2.3832,42 -0.1251,7.194 -0.3406,8.0258 -2.1391,8.2557 -1.1,0.1407 -2.6287,-0.1518 -3.3972,-0.65 z m -6.0359,-214.0388 c -1.1368,-1.1368 -2.0669,-3.1312 -2.0669,-4.432 0,-1.3009 -0.8938,-3.5015 -1.9863,-4.8904 -2.909,-3.6982 -8.0604,-17.1592 -8.6358,-22.5662 -0.2738,-2.5731 -0.8859,-5.5783 -1.3602,-6.6783 -4.4279,-10.2694 -4.7854,-14.5 -1.2251,-14.5 1.4544,0 2.3403,1.6746 4.0999,7.75 1.2345,4.2625 2.7083,9.1 3.2752,10.75 0.5668,1.65 1.4736,5.2327 2.0152,7.9616 1.1112,5.5994 2.9275,9.5552 5.286,11.5126 0.8805,0.7307 5.2107,1.6459 9.6227,2.0338 8.7224,0.767 11.0421,1.921 8.9436,4.4496 -0.9135,1.1008 -3.1437,1.5424 -7.7885,1.5424 h -6.5084 l 0.558,3.4381 c 0.7614,4.6922 -1.3523,6.5058 -4.2294,3.6288 z m -102.64714,-2.5307 c -0.59369,-2.3654 -0.98315,-2.4752 -9.75762,-2.75 -7.65097,-0.2396 -9.19195,-0.5618 -9.46287,-1.9784 -0.50931,-2.6631 4.55381,-4.6902 10.84278,-4.341 7.95988,0.442 10.67441,-1.2644 11.46965,-7.2103 0.34988,-2.6161 1.0529,-6.0612 1.56224,-7.6557 0.50935,-1.5946 0.92609,-5.5465 0.92609,-8.7821 0,-6.7545 2.14011,-12.8187 4.52385,-12.8187 2.71494,0 1.12205,19.8678 -2.30007,28.6884 -1.45349,3.7464 -2.71585,9.0616 -2.80524,11.8116 -0.2419,7.4423 -0.26037,7.5 -2.39949,7.5 -1.27126,0 -2.20248,-0.8827 -2.59932,-2.4638 z m -41.66901,-17.9277 c -0.9621,-0.7304 -2.24499,-3.7536 -2.85086,-6.7182 -0.60586,-2.9647 -1.48659,-7.1903 -1.95716,-9.3903 -0.47058,-2.2 -0.8752,-5.4925 -0.89915,-7.3167 -0.0255,-1.9428 -1.07913,-4.6745 -2.54355,-6.5944 -2.94803,-3.8651 -2.96561,-3.9804 -0.91851,-6.0275 1.442,-1.442 1.81804,-1.4131 4.2631,0.3279 1.47488,1.0502 3.80071,2.0687 5.16851,2.2633 1.97006,0.2803 2.43015,0.8617 2.21383,2.7974 -0.15019,1.3439 -0.93867,3.179 -1.75218,4.0779 -0.81351,0.8989 -1.16753,1.946 -0.78671,2.3268 0.38082,0.3808 0.78632,3.5958 0.90112,7.1444 0.13747,4.2497 0.95972,8.0033 2.4089,10.9969 3.07703,6.3563 1.35176,9.6038 -3.24734,6.1125 z m 179.37555,-5.3725 c -0.6247,-1.1673 -0.5236,-2.7742 0.2989,-4.75 1.324,-3.1808 1.3871,-14.1428 0.108,-18.7763 -0.5695,-2.0632 -0.3081,-3.3009 1.0033,-4.75 0.9754,-1.0778 2.172,-1.9597 2.659,-1.9597 0.487,0 2.2204,-0.9869 3.8519,-2.1931 2.3481,-1.7361 3.2228,-1.9367 4.1969,-0.9626 0.9741,0.9741 0.6573,2.3254 -1.5198,6.4837 -2.3187,4.4288 -2.7712,6.5807 -2.8834,13.7126 -0.1548,9.8373 -1.7828,14.9594 -4.7549,14.9594 -1.1087,0 -2.4406,-0.7938 -2.9599,-1.764 z m 198.8737,-355.8177 c 0,-0.8699 1.588,-3.5196 3.5289,-5.8882 3.8901,-4.7473 6.5125,-13.6583 7.01,-23.82 0.297,-6.0672 2.4662,-10.71009 5.0039,-10.71009 0.8232,0 4.7503,3.42699 8.727,7.61549 5.6415,5.9421 8.967,8.4691 15.1339,11.5 4.347,2.1365 8.6445,3.8845 9.55,3.8845 0.9055,0 2.0739,0.4119 2.5964,0.9153 0.5225,0.5035 2.0704,1.066 3.4397,1.25 1.3779,0.1852 2.6357,1.1003 2.8165,2.049 0.7821,4.1042 -10.4777,3.0583 -19.7755,-1.837 -2.4581,-1.2942 -7.5163,-5.3174 -11.2404,-8.9404 -8.6164,-8.3824 -9.894,-8.2626 -11.4683,1.0758 -2.2144,13.1353 -5.6721,20.0656 -11.5201,23.0897 -3.4233,1.7703 -3.802,1.7519 -3.802,-0.1841 z m -304.24018,-9.6683 c -3.76848,-4.9433 -10.75745,-16.6268 -10.77799,-18.0176 -0.01,-0.6778 -1.36001,-3.2126 -3,-5.6329 -1.63999,-2.4202 -2.9818,-4.80739 -2.9818,-5.30489 0,-0.7973 -2.86699,-5.0773 -10.78951,-16.1072 -1.25923,-1.7531 -2.83423,-3.6374 -3.5,-4.1874 -1.98394,-1.639 -6.71049,-8.2833 -6.71049,-9.4333 0,-0.5867 1.125,-1.0667 2.5,-1.0667 1.42226,0 2.5,0.5773 2.5,1.3393 0,0.7366 1.4625,2.7154 3.25,4.3972 4.42021,4.159 13.3819,17.495 20.63448,30.70629 0.88854,1.6186 2.62802,4.089 3.86552,5.4898 1.2375,1.4008 2.25,3.0795 2.25,3.7305 0,0.6509 1.05046,2.4555 2.33435,4.0102 2.94775,3.5695 5.66565,9.0768 5.66565,11.4803 0,2.8574 -2.503,2.187 -5.24021,-1.4036 z m 21.57718,-2.3143 c -0.5371,-1.3995 2.8139,-9.0718 10.4542,-23.9357 1.4136,-2.74999 4.8589,-9.51989 7.6564,-15.04419 5.5793,-11.0178 12.8272,-20.4558 15.709,-20.4558 2.6796,0 2.2742,1.7515 -1.4066,6.0759 -5.6965,6.6928 -7.7474,9.6835 -10.3673,15.1181 -3.0693,6.367 -4.5976,9.1368 -6.0414,10.9493 -0.5943,0.7462 -1.6506,3.15669 -2.3472,5.35669 -0.6966,2.2 -2.3303,6.0214 -3.6303,8.492 -1.3001,2.4707 -2.3638,5.2976 -2.3638,6.2822 0,0.9845 -0.652,3.3506 -1.4489,5.2579 -1.5561,3.7241 -5.099,4.8095 -6.2141,1.9036 z m 302.0749,-2.8047 c -0.7505,-1.9559 0.2721,-3.631 2.2167,-3.631 0.9818,0 1.3987,0.7602 1.191,2.1717 -0.388,2.637 -2.5933,3.5814 -3.4077,1.4593 z M 150.42361,987.92631 c -5.25333,-1.2075 -10.82066,-5.7574 -9.91343,-8.1019 1.17411,-3.0341 4.36243,-3.2045 6.98626,-0.3733 1.31777,1.4219 3.42993,2.6341 4.69369,2.6937 1.26376,0.06 5.57538,0.2098 9.58137,0.3336 7.91561,0.2447 10.37854,1.488 8.5888,4.3355 -0.84815,1.3495 -2.68418,1.7576 -8.47752,1.8845 -4.0672,0.089 -9.22382,-0.2583 -11.45917,-0.7721 z m -26.79894,-5.3316 c -4.70234,-1.2634 -7.03267,-3.1088 -6.01179,-4.7606 0.27117,-0.4388 4.03382,-0.7977 8.36144,-0.7977 7.20189,0 8.03498,-0.2118 9.8349,-2.5 2.80981,-3.5721 4.13668,-3.1316 3.76455,1.25 -0.24877,2.9291 -1.03684,4.2425 -3.60007,6 -3.71242,2.5454 -5.45857,2.6597 -12.34903,0.8083 z m 584.66348,-10.2182 c -1.2745,-3.3214 8.663,-8.3401 16.5141,-8.3401 5.281,0 6.3885,-3.3394 3.6663,-11.05495 -1.0583,-2.99951 -1.2017,-4.62406 -0.4725,-5.35325 1.8193,-1.81932 4.1914,0.67769 6.3276,6.66079 1.8012,5.04485 1.8739,6.08191 0.6805,9.69811 -1.0423,3.1582 -1.8383,4.0493 -3.6173,4.0493 -1.2545,0 -2.5275,0.3989 -2.8289,0.8866 -0.3014,0.4876 -2.2405,1.194 -4.309,1.5696 -2.0686,0.3756 -5.6893,1.3266 -8.046,2.1133 -5.5405,1.8496 -7.1347,1.8034 -7.9148,-0.2294 z m 32.2179,-11.9648 c -2.235,-2.23508 -1.5621,-5.79793 1.1686,-6.18662 2.5325,-0.36047 5.8783,3.89634 4.9546,6.30352 -0.7625,1.987 -4.0827,1.9236 -6.1232,-0.1169 z M 410.2349,949.92191 c -13.82325,-3.0308 -17.4703,-4.30242 -19.00115,-6.6252 -1.36819,-2.07596 -1.30608,-2.30252 0.84978,-3.10003 1.43391,-0.53044 4.25836,-0.38952 7.3651,0.36746 15.83536,3.85841 28.64246,4.24726 50.53922,1.53446 22.7671,-2.82062 28.0792,-3.3164 28.7155,-2.68005 1.412,1.41191 -1.4993,4.11267 -5.8149,5.3945 -4.0481,1.20239 -12.0634,2.6509 -28.90057,5.22288 -11.55968,1.76581 -25.39231,1.71908 -33.75298,-0.11402 z m 21.36917,-146.87592 c -1.5861,-1.01429 -3.46344,-1.62174 -4.17186,-1.34989 -1.69589,0.65077 -5.45526,-1.39777 -5.40437,-2.94492 0.0502,-1.5269 12.23071,-8.71482 14.76792,-8.71482 1.03518,0 2.68624,0.88851 3.66902,1.97447 0.98278,1.08596 2.62752,2.24128 3.65498,2.56739 2.14979,0.68232 2.49349,3.0042 0.55474,3.74815 -0.72236,0.2772 -2.52236,0.27288 -4,-0.01 -2.86474,-0.54763 -3.71009,1.2961 -1.57375,3.43244 0.61207,0.61207 0.81052,1.60207 0.44098,2.2 -0.99452,1.60916 -4.66139,1.1919 -7.93766,-0.90324 z m 228.38378,-71.13464 c -3.025,-0.46388 -8.7562,-1.13429 -12.7359,-1.48981 -7.4596,-0.66637 -9.7594,-1.93074 -8.671,-4.76706 0.9732,-2.53613 4.9072,-3.00537 14.2866,-1.70405 13.6813,1.89816 14.9242,1.99201 18.5621,1.40167 4.5701,-0.74163 7.5582,-3.66198 7.5582,-7.38681 0,-1.64624 0.6928,-4.65119 1.5395,-6.67767 1.7889,-4.28131 3.6044,-24.7342 3.3511,-37.75126 -0.096,-4.95 -0.2236,-11.43453 -0.2829,-14.41006 -0.1497,-7.52276 1.8499,-7.76348 3.968,-0.47767 2.2282,7.66488 2.1673,28.74131 -0.1168,40.38773 -0.9168,4.675 -1.8955,9.73232 -2.1747,11.23848 -0.6615,3.56758 1.9291,4.65746 5.7316,2.41128 3.3952,-2.0056 7.3398,-2.13114 8.8741,-0.28244 1.4853,1.7896 -0.3779,3.38856 -4.9852,4.2783 -4.3332,0.83682 -10.7437,5.3872 -13.6865,9.71522 -1.6298,2.3969 -3.7345,3.82505 -7.3649,4.99754 -5.4825,1.77066 -5.6377,1.77645 -13.8533,0.51661 z M 406.98788,579.73213 c 0,-0.79798 0.72064,-2.04896 1.60142,-2.77994 1.24719,-1.03508 1.46077,-2.38935 0.96556,-6.12245 l -0.63587,-4.79338 h 3.06583 c 4.3041,0 4.58285,1.91381 1.26014,8.65155 -2.69623,5.46735 -6.25708,8.33797 -6.25708,5.04422 z m -91.20747,-18.00568 c -4.09294,-1.8979 -7.79253,-5.45644 -7.79253,-7.49542 0,-1.0002 1.40004,-2.85365 3.1112,-4.11876 2.6188,-1.93616 4.02771,-2.23391 8.90222,-1.88132 6.86833,0.49681 13.31624,4.55372 12.79375,8.04958 -0.73057,4.88804 -11.07644,8.19947 -17.01464,5.44592 z m 144.01434,-3.08422 c -0.9312,-1.2822 -2.638,-5.13618 -3.7929,-8.5644 -1.6247,-4.82297 -1.8361,-6.55081 -0.9344,-7.6373 1.5459,-1.8628 8.3422,-1.80581 9.9099,0.0831 1.6308,1.965 0.5715,4.51273 -1.8763,4.51273 -6.0152,0 -6.5745,2.85638 -1.6438,8.39633 3.3328,3.74466 3.7481,5.63891 1.2216,5.57225 -0.655,-0.0173 -1.9529,-1.0805 -2.8841,-2.36271 z m 70.8657,0.35947 c -4.406,-0.77781 -7.2571,-3.28004 -8.217,-7.21156 -0.6232,-2.55239 -0.2924,-2.92224 4.687,-5.24023 7.3817,-3.43637 15.0011,-3.4608 18.4029,-0.059 3.0413,3.04132 3.0859,4.62174 0.2045,7.24617 -4.6996,4.28054 -10.0564,6.15099 -15.0774,5.26462 z m -130.0059,-3.63201 c -0.36667,-0.36666 -0.66667,-1.43656 -0.66667,-2.37755 0,-0.94099 -0.675,-2.27109 -1.5,-2.95578 -2.42282,-2.01076 -1.76306,-4.6484 1.5009,-6.00037 5.43279,-2.25034 7.46399,1.55862 4.55013,8.53249 -1.40839,3.37073 -2.51605,4.16953 -3.88436,2.80121 z m -4.66667,-21.76075 c 0,-0.78508 1.03604,-2.24758 2.3023,-3.25 3.06374,-2.42536 7.6977,-9.35394 7.6977,-11.5094 0,-1.17793 -1.11009,-1.93081 -3.51105,-2.38123 -4.14683,-0.77795 -5.25002,-2.09945 -3.34388,-4.00559 2.37293,-2.37294 7.30553,-2.8329 9.27367,-0.86477 2.07636,2.07637 1.60598,5.90192 -1.54125,12.53467 -3.50686,7.39069 -10.87749,13.81188 -10.87749,9.47632 z m 63.21397,-1.85178 c -3.5391,-3.65148 -10.214,-14.26103 -10.214,-16.23497 0,-2.05691 2.8819,-2.57498 3.8862,-0.69859 0.5041,0.94202 0.9745,2.04447 1.0452,2.44989 0.565,3.23733 4.4015,9.86515 6.9534,12.01249 2.8697,2.41468 4.2105,5.75038 2.3114,5.75038 -0.4421,0 -2.2341,-1.47564 -3.9822,-3.2792 z M 393.20401,503.1911 c -2.01399,-1.27791 -0.55865,-3.40058 4.5626,-6.65474 6.20831,-3.9449 6.2922,-6.10536 0.22127,-5.69818 -2.84528,0.19084 -5.23543,-0.24633 -6.5,-1.18888 -1.8119,-1.3505 -1.85359,-1.6395 -0.44332,-3.07278 0.85617,-0.87015 4.21078,-2.01405 7.45469,-2.54201 4.76157,-0.77497 6.34028,-0.67014 8.19332,0.54401 3.18211,2.085 2.89367,4.0908 -1.56289,10.86823 -4.76194,7.24185 -8.69371,9.79508 -11.92567,7.74435 z m 56.89104,-9.0476 c -2.3812,-2.38114 -2.7244,-5.88076 -0.8308,-8.47044 2.0632,-2.82152 4.4676,-1.04372 4.9805,3.68252 0.6117,5.63729 -1.2046,7.73302 -4.1497,4.78792 z m -56.43183,-17.76513 c -1.17855,-1.17855 1.44721,-3.27437 4.91811,-3.92552 4.51796,-0.84757 9.65538,-6.57691 8.83355,-9.85133 -0.72202,-2.87673 1.22946,-4.33727 3.18384,-2.38289 1.55758,1.55758 1.05662,6.26635 -0.93811,8.81773 -3.37757,4.32013 -8.91617,8 -12.04086,8 -1.81419,0 -3.59463,-0.2961 -3.95653,-0.65799 z m 54.08153,-5.32478 c -3.74659,-3.29792 -4.6447,-4.78357 -5.223,-8.63996 -0.94602,-6.30846 1.11434,-8.43707 8.3255,-8.60133 8.3047,-0.18917 10.1185,4.33236 2.2431,5.59169 -3.2472,0.51925 -4.1959,1.15629 -4.6974,3.15449 -0.7678,3.05905 0.6979,4.97962 5.778,7.57129 4.5881,2.34068 5.089,4.90659 0.9577,4.90659 -1.9096,0 -4.3619,-1.32271 -7.3839,-3.98277 z m -58.04889,-22.06062 c -3.55645,-5.43203 -3.42569,-6.73134 0.75639,-7.5159 7.10601,-1.3331 7.11125,-4.98407 0.0127,-8.81343 -6.98223,-3.76659 -13.59904,-8.76118 -13.19891,-9.963 0.87974,-2.6424 4.17172,-1.50463 11.48801,3.97047 4.25363,3.18319 7.90606,6.20913 8.11651,6.72431 0.21044,0.51519 1.67294,2.2869 3.25,3.93714 3.49613,3.65837 3.56949,4.95856 0.4465,7.91333 -1.33148,1.25976 -2.56898,3.41547 -2.75,4.79047 -0.24011,1.82381 -1.01668,2.58016 -2.87115,2.79635 -2.02815,0.23645 -3.08944,-0.53976 -5.25,-3.83974 z m 64.29199,-2.68397 c -2.8304,-0.51513 -6,-3.01249 -6,-4.72754 0,-3.06265 9.9326,-14.5451 12.5818,-14.5451 1.2456,0 0.1165,3.21939 -1.8318,5.22278 -3.9878,4.1007 -4.7969,5.49135 -4.1602,7.15047 0.3433,0.89471 1.165,1.62675 1.8261,1.62675 0.661,0 2.0584,0.6263 3.1052,1.39179 1.6172,1.18252 1.7027,1.6336 0.5687,3 -1.3575,1.63569 -1.6833,1.68282 -6.0898,0.88085 z m -149.63242,-5.75721 c -0.31333,-0.81651 0.35736,-2.95401 1.49041,-4.75 5.32175,-8.43545 5.28877,-8.30917 2.94725,-11.28593 -1.56974,-1.9956 -1.87783,-3.14082 -1.15376,-4.28871 0.81641,-1.29428 2.87991,-1.51905 11.88968,-1.29509 11.14483,0.27704 14.45887,1.09769 14.45887,3.58047 0,2.13108 -1.34452,2.58819 -9.22993,3.13803 -8.23008,0.57387 -10.40658,1.93133 -11.37521,7.09456 -1.16576,6.21401 -7.52738,11.71544 -9.02731,7.80667 z M 546.20155,423.5119 c -5.412,-5.1948 -10.1933,-6.91536 -15.215,-5.47516 -3.9242,1.12545 -8.3418,-0.94262 -7.3781,-3.454 0.5525,-1.43981 5.5069,-3.40518 8.3794,-3.32403 2.99,0.0845 13.4319,-2.25424 14.4037,-3.22606 0.548,-0.54796 2.5143,-0.99629 4.3696,-0.99629 4.5864,0 4.0193,2.87565 -1.0367,5.25631 -2.0551,0.96768 -3.7366,2.39705 -3.7366,3.17637 0,0.77932 1.8693,3.1956 4.1541,5.36951 2.7979,2.66224 3.9507,4.48228 3.5314,5.57519 -0.9699,2.52728 -2.3905,1.97552 -7.4718,-2.90184 z m -79.2137,-0.86855 c 0,-1.50843 2.4291,-2.84457 3.4023,-1.87142 1.3169,1.3169 0.4803,3.26443 -1.4023,3.26443 -1.1,0 -2,-0.62686 -2,-1.39301 z m -51.29904,-10.85699 c -1.88814,-2.3375 -4.90225,-7.36291 -6.69802,-11.16758 -3.038,-6.43657 -3.14486,-7.00546 -1.53677,-8.18132 2.7164,-1.98628 4.07065,-0.77562 7.29292,6.51968 3.38918,7.67321 4.49548,8.25467 14.19712,7.46188 5.31215,-0.4341 9.04382,-2.44324 9.04382,-4.86924 0,-3.29815 4.44506,-14.71175 6.21136,-15.94891 2.38531,-1.67075 4.78881,-1.02197 4.78811,1.29248 -7e-4,2.44762 -3.85913,12.13718 -6.06864,15.24015 -1.06196,1.49138 -1.93083,3.32517 -1.93083,4.0751 0,0.74992 -1.16718,3.08115 -2.59373,5.18051 -2.24351,3.30161 -2.9524,3.72401 -5.25,3.12821 -4.83781,-1.25449 -5.62918,-1.24186 -9.02839,0.14411 -4.62569,1.88605 -4.56416,1.90704 -8.42695,-2.87507 z m -18.95027,-6.3154 c -4.98515,-2.59501 -10.13141,-9.20048 -9.55041,-12.25837 0.24124,-1.2697 1.60918,-1.75022 5.64029,-1.9813 6.0803,-0.34856 7.74872,0.63235 8.71562,5.12417 0.37659,1.74949 1.33379,4.45073 2.12711,6.00273 1.12127,2.19363 1.17851,3.13979 0.25711,4.25 -1.50582,1.8144 -1.52549,1.81129 -7.18972,-1.13723 z m -57.25066,0.85758 c -4.89678,-0.93365 -10.5,-3.57347 -10.5,-4.94682 0,-2.37765 5.04332,-10.32764 7.6246,-12.01896 2.34558,-1.53688 5.3754,-1.23406 5.3754,0.53726 0,0.50953 -1.11723,1.98615 -2.48272,3.28138 -4.34596,4.12231 -3.38604,5.60274 4.15659,6.41048 3.67063,0.39309 8.73239,0.31641 11.24835,-0.1704 3.96404,-0.76701 4.85047,-1.41878 6.64274,-4.88425 2.15557,-4.16793 5.03795,-5.69925 6.00145,-3.18839 0.96806,2.52271 -2.11266,11.00621 -4.69769,12.93622 -1.87571,1.40042 -4.64374,1.89438 -11.9063,2.12471 -5.20433,0.16506 -10.36242,0.1285 -11.46242,-0.0812 z m 112.74997,-5.01909 c -1.4822,-0.52146 -1.6344,-3.5988 -0.2984,-6.03666 0.5233,-0.95504 1.6996,-3.42393 2.6139,-5.48643 1.3791,-3.11094 2.1654,-3.75 4.6142,-3.75 1.6235,0 3.851,-0.48123 4.95,-1.06939 4.6875,-2.50871 5.5337,3.35556 1.3955,9.67127 -2.1694,3.3109 -10.6758,7.58566 -13.2752,6.67121 z m 42.1381,-5.21262 c -2.8766,-1.21753 -6.3978,-5.87142 -5.7398,-7.58623 0.8774,-2.28663 4.0392,-2.6872 7.4182,-0.93984 4.1031,2.12179 16.8283,3.12747 19.7548,1.56124 2.8098,-1.50374 2.7446,-2.66489 -0.3792,-6.76042 -2.1951,-2.87801 -2.3317,-3.44036 -0.9627,-3.96567 2.2241,-0.85347 4.5608,1.55994 7.905,8.16463 l 2.8659,5.65997 -2.1501,2.15292 c -1.937,1.93959 -3.3615,2.17544 -14.3751,2.38008 -6.7238,0.12493 -13.1754,-0.17508 -14.337,-0.66668 z"
       id="path1" />
  </g>
</svg>
